<?xml version="1.0" encoding="UTF-8"?><svg xmlns="http://www.w3.org/2000/svg" viewBox="0 0 137.86 155.24"><defs><style>.d{fill:#f2f2f2;}.e{fill:#fff;}.f{fill:#f1f2f2;}.g{fill:#7bbfe9;}.h{fill:#cbccce;}.i{fill:#e1b796;}.j{fill:#122628;}.k{stroke:#c4c4c4;}.k,.l,.m{fill:none;stroke-miterlimit:10;}.l{stroke:#cbccce;}.m{stroke:#122628;stroke-width:.25px;}</style></defs><g id="a"/><g id="b"><g id="c"><g><g><path class="f" d="M17.6,12.52S-2.44,26.51,.25,31.36c0,0,.83,7.06,2.46,9.42,8.73,12.66,26.21,33.17,48.6,59.1,26.56,30.77,52.03,43.42,59.09,48.38s17.31,2.46,17.31,2.46c0,0,7.49,6.02,9.7,4.15l-.13,.11c2.21-1.88-2.5-10.25-2.5-10.25,0,0,4.15-9.7,.41-17.47s-12.05-34.98-38.06-66.22C74,33.28,55.93,11.88,45,1.77c-1.36-1.26-7.74-1.29-7.74-1.29-4.35-3.45-20.9,13.1-20.9,13.1"/><path class="i" d="M107.1,121.66c1.27-1.08,6.49-1.21,9.68-4.54,3.18-3.33-7.03-19.24-8.59-21.07s-4.37-3.22-5.96-1.88l-11.68,9.9-9.53,8.08c-1.59,1.35-.68,4.35,.88,6.19s15.58,14.52,19.39,11.92c3.8-2.6,4.94-7.85,6.21-8.93"/><path class="j" d="M81.19,98.93l8.45-7.16c7.37-6.25,8.28-17.28,2.03-24.65l-6.74-7.95c5.88,6.94,5.03,17.33-1.91,23.21l-10.01,8.49c-6.94,5.88-17.33,5.03-23.21-1.91l6.74,7.95c6.25,7.37,17.28,8.28,24.65,2.03Z"/><rect class="i" x="10.56" y="13.08" width="46.65" height="42.79" rx="8.76" ry="8.76" transform="translate(82.03 38.86) rotate(139.71)"/><path class="e" d="M73,90.86l10.01-8.49c6.94-5.88,7.79-16.27,1.91-23.21l-9.47-11.17c-6.25-7.37-17.28-8.28-24.65-2.03l-8.45,7.16c-7.37,6.25-8.28,17.28-2.03,24.65l9.47,11.17c5.88,6.94,16.27,7.79,23.21,1.91Z"/><g><line class="m" x1="123.49" y1="104.67" x2="119.55" y2="96.66"/><line class="m" x1="115.6" y1="88.66" x2="110.59" y2="81.08"/><line class="m" x1="107.92" y1="76.25" x2="100.53" y2="66.42"/><line class="m" x1="93.92" y1="59.21" x2="86.07" y2="49.95"/><line class="m" x1="79.44" y1="41.11" x2="68.41" y2="28.77"/><line class="m" x1="63.67" y1="23.53" x2="56.23" y2="15.09"/></g><g><line class="m" x1="91.47" y1="133.46" x2="84.22" y2="128.26"/><line class="m" x1="76.97" y1="123.05" x2="70.31" y2="116.87"/><line class="m" x1="65.98" y1="113.44" x2="57.5" y2="104.55"/><line class="m" x1="51.47" y1="96.85" x2="43.62" y2="87.59"/><line class="m" x1="35.98" y1="79.6" x2="25.62" y2="66.7"/><line class="m" x1="21.22" y1="61.17" x2="14.11" y2="52.44"/></g><g><path class="h" d="M136.5,153.96c-.88,.35-4.49-1.36-8.02-4.2l-.36-.29-.12-.1-.15,.04-.45,.11c-.1,.02-9.8,2.3-16.29-2.26-1.24-.87-3.01-1.96-5.25-3.33-10.31-6.33-31.75-19.51-53.62-44.84C30.96,74.42,12.62,52.96,3.73,40.08c-1.06-1.53-1.94-6.25-2.24-8.86l-.02-.18v-.06l-.04-.05-.09-.16c-.13-.24-1.02-2.58,8.6-10.74,3.29-2.79,6.54-5.16,7.78-6.06l.09-.07,.05-.05c1.05-1.02,3.2-3.06,5.76-5.23C31.98,1.53,35.64,.78,36.49,1.45l.25,.2,.08,.07h.43c3.14,.02,6.36,.47,6.9,.97,11.07,10.24,30.1,32.86,52,59.17,21.41,25.72,30.9,49.03,35.46,60.24,.99,2.43,1.77,4.35,2.43,5.72,3.44,7.15-.39,16.35-.43,16.44l-.18,.42-.06,.14,.08,.13,.23,.4c2.22,3.95,3.32,7.8,2.83,8.6m.21,.24c.81-.98-.79-5.48-2.76-9l-.23-.4,.18-.42c.04-.09,3.93-9.41,.43-16.7-.65-1.36-1.43-3.28-2.42-5.7-4.57-11.22-14.07-34.56-35.51-60.32C74.49,35.33,55.45,12.71,44.37,2.45c-.68-.63-4.22-1.03-7.11-1.05h-.32l-.25-.2c-1.2-.95-5.31,.44-13.26,7.18-2.56,2.17-4.72,4.22-5.78,5.24l-.05,.05-.06,.04c-1.25,.89-4.5,3.28-7.8,6.07C.37,27.72,.73,30.31,1.07,30.91l.09,.16,.02,.18c.22,1.9,1.07,7.22,2.3,9,8.9,12.9,27.25,34.36,48.54,59.02,21.9,25.37,43.37,38.56,53.69,44.9,2.23,1.37,3.99,2.45,5.23,3.32,6.62,4.65,16.45,2.34,16.55,2.31l.45-.11,.36,.29c3.15,2.53,7.33,4.84,8.43,4.2h0Z"/><g><path class="d" d="M137.4,154.87s-.05,.03-.08,.04c-.02,.02-.03,.05-.06,.07l.13-.11Z"/><path class="j" d="M137.26,154.99l.13-.11s-.05,.03-.08,.04c-.02,.02-.03,.05-.06,.07h0Z"/></g></g><circle class="h" cx="112.86" cy="127.34" r="4.77"/><line class="l" x1="91.93" y1="94.44" x2="90.89" y2="82.45"/><line class="l" x1="85.74" y1="99.16" x2="74.52" y2="97.94"/><path class="k" d="M70.54,85.62l7.71-6.54c5.34-4.53,6-12.53,1.47-17.88l-7.29-8.6c-4.81-5.68-13.31-6.38-18.99-1.56l-6.51,5.52c-5.68,4.81-6.38,13.31-1.56,18.99l7.29,8.6c4.53,5.34,12.53,6,17.88,1.47Z"/><path class="i" d="M78.19,77.13c1.81-4.59,2.98-7.52,1.5-12.89l-5.73,2.62-.94,6.1,5.17,4.18Z"/><rect class="i" x="45.02" y="62.74" width="18.61" height="4.08" transform="translate(137.66 79.06) rotate(139.71)"/><path class="k" d="M61.94,84.01l7.71-6.54c5.34-4.53,6-12.53,1.47-17.88l-7.29-8.6"/></g><g><path class="g" d="M30.98,56.63c-2.72,0-5.29-1.19-7.04-3.26l-.81-.96c-1.59-1.88-2.36-4.27-2.16-6.72s1.35-4.69,3.23-6.28l.8-.67c1.66-1.41,3.78-2.19,5.96-2.19,2.72,0,5.28,1.19,7.04,3.26l.81,.96c3.29,3.88,2.81,9.71-1.07,13l-.8,.67c-1.66,1.41-3.78,2.19-5.96,2.19Z"/><path class="i" d="M30.96,37.54c2.33,0,4.65,.99,6.28,2.91l.81,.96c2.94,3.47,2.51,8.66-.96,11.59l-.8,.67c-1.55,1.31-3.44,1.95-5.31,1.95-2.33,0-4.65-.99-6.28-2.91l-.81-.96c-2.94-3.47-2.51-8.66,.96-11.59l.8-.67c1.55-1.31,3.44-1.95,5.31-1.95m0-2h0c-2.42,0-4.76,.86-6.61,2.43l-.8,.67c-2.08,1.77-3.35,4.24-3.58,6.96-.22,2.72,.62,5.37,2.39,7.45l.81,.96c1.95,2.3,4.79,3.61,7.8,3.61,2.42,0,4.76-.86,6.61-2.43l.8-.67c2.08-1.77,3.35-4.24,3.58-6.96,.22-2.72-.62-5.37-2.39-7.45l-.81-.96c-1.95-2.3-4.79-3.61-7.8-3.61h0Z"/></g></g></g></g></svg>