<?xml version="1.0" encoding="UTF-8"?><svg xmlns="http://www.w3.org/2000/svg" viewBox="0 0 455.02 739.48"><defs><style>.d{fill:#f7b566;}.e{fill:#efd486;}.f{fill:#f0f6fc;}.g{fill:#eadec5;}.h{fill:#fff;}.i{fill:#fff1d2;}.j{fill:#849496;}.k{fill:#d3a45f;}.l{fill:#dce1e5;}.m{fill:#e26d52;}.n{fill:#12706b;}.o{fill:#0e5955;}.p{fill:#3f3c36;}.q{fill:#514d46;}.r{opacity:.43;}</style></defs><g id="a"/><g id="b"><g id="c"><g><path class="e" d="M288.77,739.48c2.08,0,2.08-3.23,0-3.23s-2.08,3.23,0,3.23h0Z"/><path class="m" d="M119.13,668.9c-13.93,2.87-24.24,4.83-38.46,5.2,6.57,2.34,10.85,3.82,14.68,6.92-5.47,3.2-14.13,8.78-19.6,11.98,9.75,.64,19.49,1.28,29.24,1.92l-7.04,13.33,40.55-27.35c3.79-2.56,7.79-5.37,9.47-9.62,2.08-5.26-.84-11.53-6.58-8.58-6.25,3.21-15.17,4.73-22.26,6.2Z"/><path class="m" d="M138.59,664.03c0,2.9,.01,5.94,1.34,8.48,1.33,2.54,5.36-2.06,7.81-3.37,1.38-49.46,.91-92.61,.4-142.09-.05-5.29-.32-11.12-3.76-14.96-3.42-3.81-9.64-4.3-13.55-1.07-7.55,6.23-.57,16.87,.56,24.51,2.11,14.21,3.01,28.77,4.08,43.1,2.13,28.41,3.18,56.9,3.12,85.4Z"/><path class="m" d="M292.06,675.85c14.18,1.11,24.66,1.75,38.81,.34-6.22,3.15-10.29,5.15-13.7,8.7,5.83,2.49,15.12,6.94,20.95,9.43l-28.77,5.57c2.89,4.12,5.77,8.23,8.66,12.35-14.55-7.35-29.11-14.7-43.66-22.06-4.08-2.06-8.4-4.35-10.6-8.36-2.72-4.96-.61-11.55,5.46-9.34,6.61,2.41,15.64,2.8,22.86,3.36Z"/><path class="m" d="M272.15,673.46c.37,2.88,.73,5.9-.27,8.58-1,2.68-5.57-1.37-8.17-2.37-7.57-48.9-12.5-91.77-18.19-140.92-.61-5.25-1.08-11.07,1.86-15.31,2.91-4.21,9.02-5.47,13.31-2.76,8.27,5.24,2.68,16.66,2.51,24.39-.32,14.36,.62,28.92,1.35,43.27,1.44,28.45,3.98,56.85,7.6,85.12Z"/><path class="g" d="M114.85,529.95c2.8,7.86,6.04,15.89,12.07,21.66,6.03,5.77,15.59,8.66,22.93,4.69,5.96-3.22,9.02-9.93,11.5-16.23,6.86-17.47,12.4-35.81,12.42-54.58,0-4.31-.33-8.8-2.47-12.54-4.43-7.76-14.64-9.61-23.56-10.17-10.97-.69-22.19-.91-33.14,.14-7.35,.71-14,2.02-14.48,10.46-.49,8.41,3.18,18.02,5.29,26.01,2.73,10.31,5.86,20.52,9.43,30.57Z"/><path class="g" d="M228.17,529.95c2.8,7.86,6.04,15.89,12.07,21.66,6.03,5.77,15.59,8.66,22.93,4.69,5.96-3.22,9.02-9.93,11.5-16.23,6.86-17.47,12.4-35.81,12.42-54.58,0-4.31-.33-8.8-2.47-12.54-4.43-7.76-14.64-9.61-23.56-10.17-10.97-.69-22.19-.91-33.14,.14-7.35,.71-14,2.02-14.48,10.46-.48,8.41,3.18,18.02,5.29,26.01,2.73,10.31,5.86,20.52,9.43,30.57Z"/><path class="g" d="M7.39,289.6c-12.85,35.04-6.92,76.37,15.26,106.39,5.77,7.81,12.52,14.85,19.25,21.86-3.47-9.18-2.96-19.4-1.06-29.03,3.28-16.66,10.45-32.28,18.31-47.33,8.73-16.72,18.39-32.96,28.91-48.61,5.39-8.02,11.05-15.96,14.86-24.84,3.81-8.88,5.68-18.95,3.13-28.27-8.15-29.83-36.61-17.49-54.39-5.67-20.02,13.31-35.98,32.87-44.27,55.49Z"/><path class="j" d="M42.54,441.84c7.04,12.13,17.02,25.32,31.05,25.39,1.65,0,3.37-.2,4.72-1.15,3.31-2.34,2.53-7.37,1.39-11.26-10.85-36.97-21.82-74.22-39.85-108.28-1.32-2.5-2.8-5.1-5.26-6.48-2.46-1.39-6.18-.93-7.35,1.64-1.5,3.28,.79,9.08-2.79,9.56-3.53,.48-3.46-6.16-6.79-7.41-1.06,2.49-.6,5.33-.96,8.01-.36,2.68-2.2,5.65-4.9,5.49-2.32-.14-3.8-2.49-4.8-4.59-3.01-6.35-5.3-13.04-6.81-19.9-1.78,17.85,9.1,38.4,15.69,54.61,7.61,18.71,16.52,36.9,26.66,54.37Z"/><path class="g" d="M311.95,213.75c40.95-19.9,72.51-58.22,84.2-102.22,6.09-22.92,6.96-46.85,9.39-70.44,.19-1.85,.6-4.01,2.28-4.8,2.65-1.25,5.13,2.04,6.04,4.83,5.25,16.11,2.31,33.61-.68,50.29-1.44,8.02-2.87,16.05-4.31,24.07,8.09-2.5,17.55-36.14,21.33-43.72,.57-1.14,1.26-2.3,2.39-2.9,4.1-2.15,7.01,4.46,6.93,9.09-.47,28.97-3.78,57.9-9.89,86.22,3.88-6.87,11.13-22.4,16.51-16.57,5.52,5.07,1.56,18.91-1.06,27.95,2.07-.88,4.13-1.77,6.2-2.65,8.17,2.82,1.18,39.37-4.15,58.34-15.42,54.88-48.48,104.65-93.08,140.14-14.45,11.5-30.54,21.72-48.63,25.42-22.14,4.53-45.26-1.17-65.85-10.48-20.36-9.2-39.63-22.5-51.33-41.53-11.35-18.45-14.67-41.65-8.95-62.55s20.39-39.17,39.55-49.27c12.97-6.84,33.53-14.23,48.39-13.4,7.64,.43,13.82,3.01,21.88,1.79,7.96-1.2,15.65-4.13,22.86-7.64Z"/><g><path class="j" d="M418.24,239.98c.5-.51,.89-1.09,1.18-1.71-.51,.47-.92,1.04-1.18,1.71Z"/><path class="j" d="M447.13,231.14c5.33-18.97,12.32-55.52,4.15-58.34-2.07,.88-4.13,1.77-6.2,2.65,2.61-9.05,6.58-22.88,1.06-27.95-5.38-5.83-12.63,9.7-16.51,16.57,6.11-28.32,9.42-57.25,9.89-86.22,.07-4.63-2.83-11.24-6.93-9.09-1.13,.59-1.83,1.76-2.39,2.9-3.78,7.58-13.23,41.22-21.33,43.72,1.44-8.02,2.87-16.05,4.31-24.07,2.99-16.68,5.93-34.18,.68-50.29-.91-2.79-3.39-6.08-6.04-4.83-1.68,.79-2.09,2.95-2.28,4.8-2.43,23.59-3.31,47.52-9.39,70.44-3.78,14.25-9.66,27.9-17.26,40.53,.32-.17,.65-.34,.99-.49,4.27-1.91,10.67-.47,11.4,4.15,.28,1.77-.35,3.54-.97,5.22-1.41,3.83-2.83,7.67-4.24,11.5,1.86-1.66,3.82-3.37,6.23-4,2.41-.63,5.41,.23,6.37,2.53,.46,1.09,.4,2.33,.28,3.51-.37,3.54-1.27,7.02-2.65,10.29,4.42-3.62,11.68-1.17,14.68,3.7,3,4.87,2.7,11.08,1.39,16.65-2.64,11.23-8.83,21.25-14.93,31.04,5.88-3.54,11.45-10.45,17.94-8.22,4.03,1.38,5.8,6.73,4.03,10.46,1.81-1.69,4.9-2.07,7.16-.84,2.89,1.58,4.34,5.06,4.28,8.35s-1.42,6.42-2.99,9.3c1.69-1.34,3.8-2.14,5.96-2.24,.22,5.86-.15,11.75-1.09,17.54,5.8-12.69,10.64-25.81,14.41-39.24Z"/></g><path class="i" d="M129.44,70.51c-9.83,13.93-13.1,31.39-14.74,48.37-1.64,16.97-1.92,34.26-6.79,50.6-11.35,38.11-29.33,64.54-51.7,97.42-19.8,29.1-30.79,64.45-29.08,99.61s16.51,69.85,42.03,94.1c21.92,20.83,50.87,33.44,80.69,38.43,29.82,4.99,60.53,2.66,90.1-3.62,19.1-4.05,38.09-9.85,54.69-20.12,17.15-10.61,31.29-25.79,41.71-43.06,32.37-53.61,28.47-133.36-13.49-179.84-10.87-12.04-45.24-48.35-57.39-94.49-5.5-20.88-9.89-41.97-14.63-63.03-15.43-68.52-92.89-64.74-121.41-24.35Z"/><g><path class="p" d="M142.51,110.33c-.31,.97-.52,1.97-.53,2.98-.06,4.48,3.84,8.27,8.18,9.4,3.53,.92,7.78,.17,9.87-2.81,.53-.75,.89-1.6,1.17-2.48,1.15-3.65,.62-7.93-1.88-10.84-4.85-5.64-14.66-3.01-16.81,3.74Z"/><path class="h" d="M146.24,110.59c-.77,1.54-.95,3.5,.01,4.93,.96,1.43,3.26,1.93,4.46,.7,1.2-1.22,.86-3.35,1.92-4.69,.71-.88,1.95-1.31,2.41-2.34,1.1-2.5-2.14-2.9-3.73-2.57-2.13,.44-4.11,2.04-5.08,3.97Z"/></g><path class="j" d="M177.09,102.02c.02-1.06-.98-1.83-1.87-2.42-5-3.28-10.03-6.59-15.51-8.99-5.81-2.55-13.02-4.54-19.37-3.06-4.48,1.05-9.39,5.45-5.48,10.13,3.1,3.72,42.24,3.26,42.22,4.33Z"/><g><path class="p" d="M234.49,108.91c.42,.92,.75,1.89,.89,2.9,.6,4.44-2.81,8.68-6.98,10.32-3.39,1.34-7.7,1.11-10.14-1.59-.61-.68-1.08-1.48-1.46-2.32-1.58-3.49-1.57-7.8,.55-10.99,4.13-6.19,14.18-4.76,17.14,1.68Z"/><path class="h" d="M230.83,109.61c.95,1.44,1.37,3.36,.58,4.9-.78,1.54-3,2.31-4.35,1.23-1.33-1.07-1.26-3.22-2.48-4.42-.81-.79-2.09-1.06-2.67-2.03-1.4-2.35,1.77-3.13,3.39-3,2.17,.18,4.33,1.53,5.52,3.32Z"/></g><path class="j" d="M199.16,104.85c-.15-1.05,.75-1.94,1.56-2.62,4.57-3.87,9.16-7.75,14.31-10.8,5.45-3.23,12.37-6.09,18.85-5.38,4.57,.5,9.98,4.28,6.67,9.39-2.63,4.07-41.53,8.35-41.39,9.42Z"/><path class="f" d="M97.02,32.47c-4.47-4.1-8.87-9.52-8.03-15.53,.69-4.96,4.92-8.83,9.61-10.57,4.69-1.74,9.82-1.73,14.82-1.71,56.08,.28,156.67-14.31,170.91,6.73,8.78,12.96-17.22,20.98-24.41,28.9-2.25,2.48-2.21,1.02-4.9,3.02-2.83,2.1-6.07,3.6-9.33,4.95-18.98,7.85-39.61,11.16-60.14,11.79-24.56,.75-48.21-3.74-70.36-14.42-6.61-3.19-12.8-8.22-18.17-13.15Z"/><path class="l" d="M271.18,4.33c2.2,1.91,3.66,4.27,3.32,7.15-.51,4.38-5.11,7.04-9.37,8.2-9.78,2.67-20.13,1.23-30.23,.34-29.82-2.64-59.9-.29-89.46,4.37-10.52,1.66-21.05,3.61-31.7,3.69-8.12,.06-16.39-1.05-23.88-4.05,1.49,3.38,4.22,6.42,6.99,8.97,5.38,4.93,11.56,9.97,18.17,13.15,15.94,7.68,32.66,12.15,49.93,13.78,13.27-.66,26.55-1.03,39.83-.81,13.98-1.71,27.74-4.96,40.74-10.33,3.26-1.35,6.49-2.84,9.33-4.95,2.69-2,2.65-.53,4.9-3.02,7.2-7.92,33.19-15.94,24.41-28.9-2.28-3.37-6.8-5.83-12.99-7.58Z"/><path class="o" d="M209.44,31.03c-1.36-.71-2.32-2.1-2.43-3.59-.03-.34-.22-.64-.56-.74-.3-.08-.73,.05-.86,.35-.67,1.58-1.76,2.95-3.18,3.91-.34,.23-.49,.67-.27,1.05,.03,.05,.06,.09,.1,.13,.12,.16,.31,.26,.57,.26s.45-.11,.57-.27c.73-.52,1.39-1.12,1.97-1.8h0c.12,2.25-.78,4.47-2.4,6.06-.98,.96-2.17,1.87-3.39,2.51-.63,.33-1.33,.43-2.03,.46-.7,.03-1.41,.03-2.1-.12-1.17-.25-2.48-1.04-2.58-2.37-.01-.2-.1-.39-.23-.53-.44-4.91-.8-9.84-1.07-14.76-.08-1.37-.14-2.75-.21-4.12,1.25-.34,2.41-1.19,2.36-2.63-.03-.76-.35-1.51-.76-2.14-.38-.6-.89-1.13-1.55-1.42-1.22-.54-2.68-.32-3.78,.42-.62,.42-1.15,.98-1.43,1.69-.3,.75-.17,1.58,.21,2.29,.65,1.24,2.04,2.03,3.43,2.09,.25,5.18,.58,10.36,1,15.53,.11,1.36,.23,2.72,.36,4.09-.51,2.04-2.59,3.23-4.63,3.24-1.33,0-2.64-.41-3.82-1.01-1.1-.57-2.23-1.29-2.85-2.41-.37-.67-.59-1.42-.79-2.16-.1-.35-.18-.7-.27-1.06,.43,.34,.91,.62,1.44,.81,.39,.14,.84-.16,.94-.53,.12-.42-.14-.8-.53-.94-.04-.02-.09-.03-.13-.05h-.03c-.09-.05-.18-.1-.26-.14-.14-.08-.28-.17-.41-.26-.02-.02-.14-.11-.16-.13-.07-.06-.14-.13-.21-.2-.05-.05-.1-.11-.15-.16-.01-.01-.11-.13-.13-.15-.1-.13-.19-.27-.27-.41-.05-.08-.09-.17-.14-.26-.02-.04-.04-.07-.05-.11l-.02-.04c-.06-.16-.11-.32-.15-.49-.02-.08-.03-.16-.05-.25,0,0-.02-.18-.02-.2-.03-.38-.27-.7-.66-.75-.35-.04-.77,.17-.84,.55-.33,1.78-.94,3.41-1.86,4.94-.21,.35-.08,.84,.27,1.05,.36,.21,.83,.08,1.05-.27,.32-.53,.61-1.09,.86-1.66,.25,1.18,.59,2.35,1.11,3.41,.68,1.38,1.96,2.35,3.29,3.07,2.6,1.42,5.94,2,8.54,.26,.78-.52,1.45-1.21,1.91-2.03,.43,.55,1,.99,1.65,1.29,1.56,.71,3.52,.77,5.18,.42,.88-.19,1.65-.65,2.38-1.15,.68-.46,1.34-.95,1.97-1.48,1.25-1.06,2.24-2.34,2.86-3.86,.44-1.08,.65-2.22,.67-3.37,.49,.6,1.1,1.1,1.8,1.47,.37,.19,.83,.09,1.05-.27,.2-.34,.09-.85-.27-1.05Zm-21.45-15.71c-.28-.32-.49-.76-.44-1.17,.05-.39,.36-.74,.68-1.01,.27-.23,.69-.44,1.07-.54,.36-.1,.78-.12,1.1-.04,.41,.1,.71,.28,1.02,.65,.29,.35,.54,.81,.67,1.26,.07,.23,.1,.45,.05,.67-.04,.2-.12,.3-.28,.44-.08,.07-.39,.25-.48,.29-.25,.1-.51,.16-.78,.22-.05,.01-.1,.03-.15,.05-.14,0-.26,.05-.35,.11-.81,.01-1.57-.28-2.12-.92Z"/><path class="q" d="M261.07,98.26c3.24-.17,6.55-.41,9.54-1.67,.9-.38,1.81-.89,2.29-1.75,1.17-2.09-.84-4.49-2.71-5.98-6.25-4.96-13.1-9.16-20.35-12.49-3.13-1.44-6.38-2.72-9.8-3.2-3.64-.51-7.33-.1-10.98,.29-15.34,1.63-30.73,2.87-46.16,3.39-7.81,.27-15.62,.35-23.43,.21-3.85-.07-7.7-.19-11.55-.38-1.77-.08-10.01-1.72-11.17-.67-2.44,2.22,7.87,5.86,9.39,6.38,7.03,2.38,14.15,4.51,21.34,6.37,14.37,3.73,29.02,6.42,43.78,8.05,16.53,1.82,33.21,2.32,49.82,1.44Z"/><path class="p" d="M115.88,45.79c15.39,2.95,31.12,3.6,46.78,3.8,32.67,.43,65.65-1.08,97.27-9.29-5.11,10.46-10.21,20.91-15.32,31.37-.29,.6-.6,1.22-1.08,1.69-.74,.72-1.8,.99-2.81,1.22-22.02,5.02-44.83,4.99-67.41,4.94-13.99-.03-28.72,.46-42.48-2.46-5.92-1.26-6.25-4.29-8.14-9.77-2.46-7.11-4.73-14.28-6.8-21.5Z"/><g><path class="n" d="M307.14,235.79c-8.14,2.75-15.7,5.32-17.24,5.74-13.92,3.73-28.03,6.74-42.26,9-50.08,7.98-101.61,6.86-151.27-3.47-7.44-1.55-15.05-3.04-22.34-5.41-5.56,8.65-11.51,17.4-17.82,26.67-19.8,29.1-30.79,64.45-29.08,99.61,1.13,23.06,7.88,45.92,19.6,65.77,35.53,7.62,72.11,10.87,108.5,12,58.59,1.83,118-1.75,174.02-19.04,4.45-1.37,8.9-2.85,13.3-4.48,25.45-53,19.38-125.09-19.68-168.36-3.41-3.77-9.12-9.93-15.73-18.02Z"/><g><g><path class="f" d="M355.63,380.19c-2.08,.83-4.16,1.64-6.25,2.43-11.3,4.26-22.81,7.98-34.46,11.18-11.77,3.24-23.68,5.95-35.68,8.17-5.96,1.1-11.95,2.09-17.95,2.96-1.36,.2-2.73,.37-4.09,.57-.21,.03-.41,.05-.62,.08-.86,.11-1.72,.22-2.58,.33-3.02,.37-6.04,.72-9.06,1.04-24.49,2.58-49.16,3.36-73.77,2.66-12.22-.35-24.42-1.06-36.6-2.11-6.08-.52-12.15-1.13-18.21-1.81-3.13-.35-6.26-.73-9.39-1.12-1.29-.16-2.58-.33-3.87-.5h.06c-.05,0-.11,0-.16-.01-.08,0-.15-.02-.23-.03-.07,0-.14-.02-.23-.03-.13-.02-.25-.03-.38-.05-.89-.12-1.77-.24-2.66-.37-12.42-1.75-24.8-3.9-36.98-6.9-6.17-1.52-12.29-3.26-18.32-5.29-2.95-.99-5.88-2.05-8.78-3.18-.73-.28-1.45-.57-2.17-.86-.3-.12-2.2-.93-1.09-.44,1.15,.5-.18-.08-.46-.2-.31-.13-.61-.27-.92-.4-.58-.25-1.15-.51-1.72-.77,1.25,7.24,3.06,14.39,5.39,21.36,16.36,5.91,33.44,9.77,50.64,12.53,25.33,4.07,50.95,6.66,76.58,7.79,24.83,1.09,49.74,.71,74.5-1.47,25.16-2.21,50.23-6.16,74.74-12.33,13.48-3.39,26.78-7.48,39.84-12.25,2.08-6.83,3.7-13.84,4.87-20.95Z"/><path class="f" d="M95.85,285.56c25.33,4.07,50.95,6.66,76.58,7.79,24.83,1.09,49.74,.71,74.5-1.47,25.16-2.21,50.23-6.16,74.74-12.33,5.52-1.39,11-2.9,16.45-4.52-3.16-5.47-6.69-10.7-10.61-15.61-.62,.17-1.23,.36-1.84,.53-11.77,3.24-23.68,5.95-35.68,8.17-5.96,1.1-11.95,2.09-17.95,2.96-1.36,.2-2.73,.37-4.09,.57-.21,.03-.41,.05-.62,.08-.86,.11-1.72,.22-2.58,.33-3.02,.37-6.04,.72-9.06,1.04-24.49,2.58-49.16,3.36-73.77,2.66-12.22-.35-24.42-1.06-36.6-2.11-6.08-.52-12.15-1.13-18.21-1.81-3.13-.35-6.26-.73-9.39-1.12-1.29-.16-2.58-.33-3.87-.5h.06c-.05,0-.11,0-.16-.01-.08-.01-.15-.02-.23-.03-.07,0-.14-.02-.23-.03-.13-.02-.25-.03-.38-.05-.89-.12-1.77-.24-2.66-.37-12.42-1.75-24.8-3.9-36.98-6.9-3.75-.92-7.47-1.94-11.17-3.04-1.93,2.85-3.89,5.74-5.89,8.68-1.52,2.24-2.99,4.52-4.41,6.84,14.33,4.66,29.15,7.87,44.05,10.27Z"/><path class="f" d="M328.66,304.85c-11.77,3.24-23.68,5.95-35.68,8.17-5.96,1.1-11.95,2.09-17.95,2.96-1.36,.2-2.72,.37-4.09,.57-.21,.03-.41,.05-.62,.08-.86,.11-1.72,.22-2.58,.33-3.02,.37-6.04,.72-9.06,1.04-24.49,2.58-49.16,3.36-73.77,2.66-12.22-.35-24.42-1.06-36.6-2.11-6.08-.52-12.15-1.13-18.21-1.81-3.13-.35-6.26-.73-9.39-1.12-1.29-.16-2.58-.33-3.87-.5h.06c-.05,0-.11,0-.16-.01-.08,0-.15-.02-.23-.03-.07,0-.14-.02-.23-.03-.13-.02-.25-.03-.38-.05-.89-.12-1.77-.24-2.66-.37-12.42-1.75-24.8-3.9-36.98-6.9-6.17-1.52-12.29-3.26-18.32-5.29-2.95-.99-5.88-2.05-8.78-3.18-.73-.28-1.45-.57-2.17-.86-.3-.12-2.2-.93-1.09-.44,1.15,.5-.18-.08-.46-.2-.31-.13-.61-.27-.92-.4-.81-.36-1.63-.72-2.44-1.09-.35-.16-.68-.33-1.03-.49-2.41,5.46-4.54,11.04-6.37,16.72,20.33,9.14,42.15,14.45,64.15,17.98,25.33,4.07,50.95,6.66,76.58,7.79,24.83,1.09,49.74,.71,74.5-1.47,25.16-2.21,50.23-6.16,74.74-12.33,9.83-2.47,19.56-5.32,29.18-8.53-1.32-5.86-2.95-11.61-4.92-17.23-6.7,2.23-13.45,4.28-20.26,6.15Z"/><path class="f" d="M164.92,383.54c24.83,1.09,49.74,.71,74.5-1.47,25.16-2.21,50.23-6.16,74.74-12.33,14.81-3.73,29.39-8.3,43.67-13.69,.13-6.29-.09-12.59-.66-18.84-1.51,.59-3.03,1.18-4.55,1.75-11.3,4.26-22.81,7.98-34.46,11.18-11.77,3.24-23.68,5.95-35.68,8.17-5.96,1.1-11.95,2.09-17.95,2.96-1.36,.2-2.73,.37-4.09,.57-.21,.03-.41,.05-.62,.08-.86,.11-1.72,.22-2.58,.33-3.02,.37-6.04,.72-9.06,1.04-24.49,2.58-49.16,3.36-73.77,2.66-12.22-.35-24.42-1.06-36.6-2.11-6.08-.52-12.15-1.13-18.21-1.81-3.13-.35-6.26-.73-9.39-1.12-1.29-.16-2.58-.33-3.87-.5h.06c-.05,0-.11,0-.16-.01-.08,0-.15-.02-.23-.03-.07,0-.14-.02-.23-.03-.13-.02-.25-.03-.38-.05-.89-.12-1.77-.24-2.66-.37-12.42-1.75-24.8-3.9-36.98-6.9-6.17-1.52-12.29-3.26-18.32-5.29-2.95-.99-5.88-2.05-8.78-3.18-.73-.28-1.45-.57-2.17-.86-.3-.12-2.2-.93-1.09-.44,1.15,.5-.18-.08-.46-.2-.31-.13-.61-.27-.92-.4-.81-.36-1.63-.72-2.44-1.09-1.07-.49-2.13-1-3.18-1.52-.86,6.29-1.35,12.63-1.43,18.97,19.53,8.39,40.37,13.38,61.37,16.75,25.33,4.07,50.95,6.66,76.58,7.79Z"/></g><polygon class="i" points="374.7 127.92 374.7 127.92 374.7 127.92 374.7 127.92"/></g></g><path class="p" d="M211.35,253.28c7.21,1.84,14.16,5.44,18.9,11.18,4.42,5.34,6.66,12.15,8.03,18.95,1.68,8.37,2.17,16.97,1.46,25.48-1.18,13.93-5.36,28.97,1.45,41.18,4.37,7.85,13.04,13,22.01,13.5,8.97,.5,17.99-3.52,23.93-10.26,5.78-6.55,8.6-15.22,10.11-23.82-9.55-4.19-19.1-8.38-28.65-12.57-2.44,5.56-4.87,11.11-7.31,16.67-.71,1.61-1.49,3.31-2.96,4.27-2.35,1.54-5.71,.52-7.59-1.57-1.88-2.1-2.6-4.97-3.08-7.74-2.21-12.81-.56-25.95-1.43-38.92-.88-12.97-5.02-26.8-15.62-34.32-3.49-2.48-7.5-4.13-11.54-5.53-11.66-4.05-23.96-6.24-36.29-6.45-2.43-.04-5.06,.05-7.01,1.51-2.76,2.07-2.98,6.54-.47,8.88,2.67,2.49,6.74,1.56,9.81,.67,8.91-2.58,17.02-3.46,26.25-1.11Z"/><g><path class="d" d="M228.55,153.07c-2.22-6.88-7.61-12.23-11.04-18.6-3.44-6.37-4.9-13.69-8.55-19.94-5.6-9.59-14.27-11.41-22.62-8.92-8.36-2.5-17.02-.68-22.62,8.92-3.65,6.25-5.11,13.57-8.55,19.94-3.44,6.36-8.82,11.71-11.04,18.6-2.04,6.32-1.17,13.17-.18,19.74,4.01,26.8,9.47,53.39,16.35,79.6,2.72,10.35,5.67,20.68,10.07,30.44,3.61,8,9.53,20.61,15.99,20.61,6.37-.29,12.38-12.61,15.99-20.61,4.4-9.75,7.35-20.09,10.07-30.44,6.88-26.21,12.34-52.8,16.35-79.6,.98-6.57,1.86-13.42-.18-19.74Z"/><path class="k" d="M229.38,172.81c.98-6.57,1.86-13.42-.18-19.74-.43-1.33-.98-2.6-1.61-3.83,.27,2.83,.34,5.68,.09,8.53-.63,7.34-3.27,14.33-5.55,21.33-10.33,31.71-13.82,65.41-25.2,96.75-2.22,6.1-5.05,12.49-10.57,15.89-3.03,1.86-7.05,2.25-10.39,1.21,3.18,5.62,6.99,10.51,11.01,10.51,6.37-.29,12.38-12.61,15.99-20.61,4.4-9.75,7.35-20.09,10.07-30.44,6.88-26.21,12.34-52.8,16.35-79.6Z"/></g><g class="r"><path class="h" d="M168.17,124.75l.07,88.24c0,3.95,.1,8.21,2.44,11.4,.39,.53,.86,1.04,1.47,1.3,2.56,1.1,4.51-2.49,4.9-5.24,3.61-25.31-3.64-51.88,3.94-76.3,1.75-5.63,4.29-11.16,4.33-17.06,.11-13.86-17.15-18.57-17.14-2.34Z"/></g></g></g></g></svg>