<?xml version="1.0" encoding="UTF-8"?><svg xmlns="http://www.w3.org/2000/svg" viewBox="0 0 713.8 735.71"><defs><style>.d{fill:#f7b566;}.e{fill:#efd486;}.f{fill:#f0f6fc;}.g{fill:#eadec5;}.h{fill:#fff;}.i{fill:#fff1d2;}.j{fill:#849496;}.k{fill:#d3a45f;}.l{fill:#dce1e5;}.m{fill:#e26d52;}.n{fill:#15857f;}.o{fill:#0e5955;}.p{fill:#3f3c36;}.q{opacity:.43;}</style></defs><g id="a"/><g id="b"><g id="c"><g><path class="g" d="M382.86,58.13c5.06-20-8.42-42.81-28.38-48.01,14.94,2.36,29.06,9.58,39.74,20.29-1.2-11.68,4.45-23.81,14.16-30.41-3.6,9.04-4.78,19.02-3.41,28.65,10.02-17.54,33.02-26.44,52.23-20.2-15.58,9.31-32.6,20.57-36.33,38.33-1.08,5.17-1.05,10.9-4.31,15.06-4.33,5.53-12.62,5.87-19.48,4.35-3.42-.76-7.2-2.24-8.41-5.53-1.22-3.29,2.81-7.65,5.55-5.46l-11.36,2.94Z"/><path class="e" d="M513.56,735.71c2.08,0,2.08-3.23,0-3.23s-2.08,3.23,0,3.23h0Z"/><path class="m" d="M343.92,665.12c-13.93,2.87-24.24,4.83-38.46,5.2,6.57,2.34,10.85,3.82,14.68,6.92-5.47,3.2-14.13,8.78-19.6,11.98l29.24,1.92c-2.35,4.44-4.69,8.89-7.04,13.33l40.55-27.35c3.79-2.56,7.79-5.37,9.47-9.62,2.08-5.26-.84-11.53-6.58-8.58-6.25,3.21-15.17,4.73-22.26,6.2Z"/><path class="m" d="M363.38,660.26c0,2.9,.01,5.94,1.34,8.48,1.33,2.54,5.36-2.06,7.81-3.37,1.38-49.46,.91-92.61,.4-142.09-.05-5.29-.32-11.12-3.76-14.96-3.42-3.81-9.64-4.3-13.55-1.07-7.55,6.23-.57,16.87,.56,24.51,2.11,14.21,3.01,28.77,4.08,43.1,2.13,28.41,3.18,56.9,3.12,85.4Z"/><path class="m" d="M516.85,672.08c14.18,1.11,24.66,1.75,38.81,.34-6.22,3.15-10.29,5.15-13.7,8.7,5.83,2.49,15.12,6.94,20.95,9.43-9.59,1.86-19.18,3.71-28.77,5.57,2.89,4.12,5.77,8.23,8.66,12.35-14.55-7.35-29.11-14.7-43.66-22.06-4.08-2.06-8.4-4.35-10.6-8.36-2.72-4.96-.61-11.55,5.46-9.34,6.61,2.41,15.64,2.8,22.86,3.36Z"/><path class="m" d="M496.93,669.68c.37,2.88,.73,5.9-.27,8.58-1,2.68-5.57-1.37-8.17-2.37-7.57-48.9-12.5-91.77-18.19-140.92-.61-5.25-1.08-11.07,1.86-15.31,2.91-4.21,9.02-5.47,13.31-2.76,8.27,5.24,2.68,16.66,2.51,24.39-.32,14.36,.62,28.92,1.35,43.27,1.44,28.45,3.98,56.85,7.6,85.12Z"/><path class="g" d="M339.64,526.18c2.8,7.86,6.04,15.89,12.07,21.66,6.03,5.77,15.59,8.66,22.93,4.69,5.96-3.22,9.02-9.93,11.5-16.23,6.86-17.47,12.4-35.81,12.42-54.58,0-4.31-.33-8.8-2.47-12.54-4.43-7.76-14.64-9.61-23.56-10.17-10.97-.69-22.19-.91-33.14,.14-7.35,.71-14,2.02-14.48,10.46-.49,8.41,3.18,18.02,5.29,26.01,2.73,10.31,5.86,20.52,9.43,30.57Z"/><path class="g" d="M452.96,526.18c2.8,7.86,6.04,15.89,12.07,21.66,6.03,5.77,15.59,8.66,22.93,4.69,5.96-3.22,9.02-9.93,11.5-16.23,6.86-17.47,12.4-35.81,12.42-54.58,0-4.31-.33-8.8-2.47-12.54-4.43-7.76-14.64-9.61-23.56-10.17-10.97-.69-22.19-.91-33.14,.14-7.35,.71-14,2.02-14.48,10.46-.49,8.41,3.18,18.02,5.29,26.01,2.73,10.31,5.86,20.52,9.43,30.57Z"/><path class="g" d="M555.41,226.43c44.66-8.84,84.92-37.89,107.4-77.49,11.71-20.63,18.63-43.54,26.98-65.75,.65-1.74,1.6-3.72,3.42-4.06,2.88-.54,4.44,3.28,4.61,6.2,.99,16.92-6.3,33.1-13.43,48.47-3.43,7.4-6.86,14.79-10.28,22.19,8.46-.36,26.15-30.49,31.73-36.87,.84-.96,1.81-1.91,3.05-2.19,4.52-1.04,5.65,6.09,4.4,10.56-7.81,27.9-18.36,55.04-31.46,80.88,5.5-5.66,16.45-18.84,20.18-11.83,4.05,6.31-3.29,18.68-8.12,26.77,2.22-.33,4.44-.66,6.67-.99,7.18,4.81-8.86,38.38-18.83,55.38-28.85,49.16-73.47,88.91-125.62,111.9-16.9,7.45-35.06,13.25-53.5,12.24-22.57-1.24-43.48-12.63-61.03-26.86-17.35-14.07-32.62-31.82-39.1-53.2-6.29-20.73-3.61-44.01,7.23-62.77,10.84-18.76,29.67-32.71,50.77-37.61,14.28-3.32,36.05-5.25,50.2-.67,7.28,2.35,12.6,6.42,20.71,7.29,8,.86,16.19-.02,24.05-1.58Z"/><g><path class="j" d="M651.56,278.78c.61-.36,1.13-.83,1.58-1.36-.61,.33-1.16,.77-1.58,1.36Z"/><path class="j" d="M681.75,277.57c9.97-17,26.02-50.57,18.83-55.38-2.22,.33-4.44,.66-6.67,.99,4.83-8.09,12.17-20.46,8.12-26.77-3.73-7.01-14.68,6.17-20.18,11.83,13.1-25.85,23.65-52.98,31.46-80.88,1.25-4.46,.12-11.59-4.4-10.56-1.24,.29-2.21,1.23-3.05,2.19-5.58,6.38-23.27,36.51-31.73,36.87,3.43-7.4,6.86-14.79,10.28-22.19,7.13-15.38,14.42-31.55,13.43-48.47-.17-2.93-1.73-6.74-4.61-6.2-1.83,.34-2.77,2.33-3.42,4.06-8.34,22.2-15.27,45.12-26.98,65.75-7.28,12.83-16.43,24.54-26.99,34.82,.36-.09,.72-.16,1.09-.22,4.62-.76,10.44,2.25,9.97,6.9-.18,1.78-1.24,3.33-2.26,4.8-2.34,3.35-4.68,6.7-7.02,10.05,2.22-1.13,4.55-2.29,7.04-2.29,2.49,0,5.17,1.6,5.52,4.06,.17,1.18-.2,2.36-.62,3.47-1.26,3.33-3.01,6.47-5.18,9.28,5.2-2.38,11.6,1.84,13.26,7.31,1.67,5.47-.2,11.41-2.88,16.46-5.4,10.19-13.94,18.31-22.32,26.23,6.58-1.93,13.73-7.2,19.44-3.4,3.55,2.36,3.9,7.98,1.24,11.14,2.18-1.17,5.27-.76,7.13,1.01,2.39,2.26,2.92,6,2.02,9.17s-3,5.85-5.26,8.24c1.97-.87,4.22-1.1,6.33-.65-1.27,5.73-3.13,11.32-5.51,16.68,8.83-10.8,16.84-22.26,23.9-34.29Z"/></g><path class="g" d="M252.95,285.02c-41.73,18.21-91.36,17.32-132.41-2.39-21.38-10.26-40.14-25.14-59.66-38.61-1.53-1.06-3.44-2.15-5.13-1.38-2.67,1.2-1.78,5.23-.25,7.73,8.84,14.46,24.05,23.59,38.68,32.16,7.03,4.12,14.07,8.24,21.1,12.36-7.16,4.53-38.88-10.13-47.09-12.18-1.24-.31-2.57-.54-3.76-.06-4.3,1.72-1.16,8.23,2.41,11.18,22.33,18.46,46.48,34.73,71.98,48.49-7.75-1.52-24.26-6.09-23.32,1.79,.27,7.49,13.36,13.47,21.94,17.35-2.01,1-4.03,1.99-6.04,2.99-3.16,8.04,29.17,26.47,47.06,34.74,51.74,23.92,111.05,31.12,167.01,20.26,18.13-3.52,36.36-9.11,50.92-20.46,17.83-13.89,28.51-35.17,34.81-56.88,6.23-21.46,8.64-44.74,1.77-66-6.66-20.61-22.14-38.21-41.74-47.43-19.6-9.22-43.03-9.94-63.15-1.94-13.62,5.42-32.6,16.25-41.62,28.09-4.64,6.09-6.69,12.46-12.85,17.8-6.08,5.27-13.31,9.21-20.65,12.42Z"/><g><path class="j" d="M203.84,382.86c-.71,.05-1.4-.03-2.07-.21,.69-.08,1.39-.02,2.07,.21Z"/><path class="j" d="M178.36,399.09c-17.89-8.27-50.22-26.7-47.06-34.74,2.01-1,4.03-1.99,6.04-2.99-8.58-3.89-21.67-9.86-21.94-17.35-.93-7.88,15.58-3.3,23.32-1.79-25.5-13.76-49.65-30.02-71.98-48.49-3.57-2.95-6.71-9.46-2.41-11.18,1.18-.47,2.52-.25,3.76,.06,8.22,2.06,39.94,16.72,47.09,12.18-7.03-4.12-14.07-8.24-21.1-12.36-14.62-8.57-29.84-17.7-38.68-32.16-1.53-2.5-2.43-6.53,.25-7.73,1.69-.76,3.6,.33,5.13,1.38,19.52,13.48,38.28,28.35,59.66,38.61,13.3,6.38,27.49,10.78,42.03,13.2-.34,.13-.68,.27-1.02,.43-4.22,2.01-7.29,7.8-4.25,11.36,1.16,1.36,2.92,2.03,4.59,2.65,3.83,1.42,7.66,2.83,11.5,4.25-2.47,.34-5.05,.71-7.09,2.14-2.04,1.43-3.34,4.26-2.22,6.49,.53,1.06,1.51,1.82,2.49,2.49,2.93,2.02,6.16,3.6,9.55,4.67-5.63,1.01-8.48,8.12-6.73,13.57,1.75,5.44,6.67,9.25,11.75,11.87,10.25,5.29,21.89,7.09,33.3,8.81-6.51,2.17-15.38,1.92-17.91,8.3-1.57,3.96,1.35,8.78,5.33,9.86-2.46,.28-4.76,2.38-5.29,4.9-.68,3.22,1.03,6.59,3.57,8.68,2.54,2.09,5.8,3.09,9.02,3.77-2.12,.41-4.1,1.5-5.57,3.08,4.31,3.98,9.03,7.51,14.04,10.56-13.41-3.83-26.53-8.68-39.19-14.53Z"/></g><path class="i" d="M354.23,66.73c-9.83,13.93-13.1,31.39-14.74,48.37-1.64,16.97-1.92,34.26-6.79,50.6-11.35,38.11-29.33,64.54-51.7,97.42-19.8,29.1-30.79,64.45-29.08,99.61s16.51,69.85,42.03,94.1c21.92,20.83,50.87,33.44,80.69,38.43,29.82,4.99,60.53,2.66,90.1-3.61,19.1-4.05,38.09-9.85,54.69-20.12,17.15-10.61,31.29-25.79,41.71-43.06,32.37-53.61,28.47-133.36-13.49-179.84-10.87-12.04-45.24-48.35-57.39-94.49-5.5-20.88-9.89-41.97-14.63-63.03-15.43-68.52-92.89-64.74-121.41-24.35Z"/><g><path class="p" d="M367.3,106.56c-.31,.97-.52,1.97-.53,2.98-.06,4.48,3.84,8.27,8.18,9.4,3.53,.92,7.78,.17,9.87-2.81,.53-.75,.89-1.6,1.17-2.48,1.15-3.65,.62-7.93-1.88-10.84-4.85-5.64-14.66-3.01-16.81,3.74Z"/><path class="h" d="M371.02,106.81c-.77,1.54-.95,3.5,.01,4.93,.96,1.43,3.26,1.93,4.46,.7,1.2-1.22,.86-3.35,1.92-4.69,.71-.88,1.95-1.31,2.41-2.34,1.1-2.5-2.14-2.9-3.73-2.57-2.13,.44-4.11,2.04-5.08,3.97Z"/></g><path class="j" d="M395.93,77.22c-.58-.89-1.83-.98-2.89-.97-5.98,.05-12,.1-17.89,1.15-6.24,1.11-13.34,3.46-17.8,8.23-3.14,3.36-4.77,9.75,1.08,11.47,4.65,1.36,36.91-20.78,37.5-19.88Z"/><g><path class="p" d="M459.28,105.14c.42,.92,.75,1.89,.89,2.9,.6,4.44-2.81,8.68-6.98,10.32-3.39,1.34-7.7,1.11-10.14-1.59-.61-.68-1.08-1.48-1.46-2.32-1.58-3.49-1.57-7.8,.55-10.99,4.13-6.19,14.18-4.76,17.14,1.68Z"/><path class="h" d="M455.62,105.84c.95,1.44,1.37,3.36,.58,4.9-.78,1.54-3,2.31-4.35,1.23-1.34-1.07-1.26-3.22-2.48-4.42-.81-.79-2.1-1.06-2.67-2.03-1.4-2.35,1.77-3.13,3.39-3,2.17,.18,4.33,1.53,5.52,3.32Z"/></g><path class="j" d="M429.42,81.38c.32-1.02,1.5-1.44,2.53-1.72,5.77-1.56,11.58-3.14,17.54-3.71,6.31-.61,13.78-.26,19.36,3.12,3.93,2.39,7.22,8.1,2.05,11.34-4.11,2.57-41.15-10.05-41.47-9.03Z"/><path class="n" d="M531.93,232.01c-8.14,2.75-15.7,5.32-17.24,5.74-13.92,3.73-28.03,6.74-42.26,9-50.08,7.98-101.61,6.86-151.27-3.47-7.44-1.55-15.05-3.04-22.34-5.4-5.56,8.65-11.51,17.4-17.82,26.67-19.8,29.1-30.79,64.45-29.08,99.61,1.13,23.06,7.88,45.92,19.6,65.77,35.53,7.62,72.11,10.87,108.5,12,58.59,1.83,118-1.75,174.02-19.04,4.45-1.37,8.9-2.85,13.3-4.48,25.45-53,19.38-125.09-19.68-168.36-3.41-3.77-9.12-9.93-15.73-18.02Z"/><path class="o" d="M373.41,383.47c2.88,.99,3.95-2.46,4.71-5.24,10.97,20.33,40.84,36.36,65.57,12.14,2.9-2.84,7.52-7.67,9.79-11.06,.21,1.45,.23,5.06,3.87,4.3,3.62-.76,1.82-5.54,.17-17.01-.29-2.04-3.66-3.55-5.75-.13-3.15,3.46-11.51,5.59-7.82,9.75,1.58,1.79,3.19,.64,4.91-.53,.64-.44-14.33,20.13-28.44,21.08-1.56-13.89-2.55-27.84-2.85-43.49,2.69-.24,5.09-.89,4.54-3.53-.64-3.04-4.61-1.28-4.61-1.44,.18-.02-.23,1.05,.09-14.11,16.63-3.53,10.71-29.64-4.67-26.97-12.59,2.17-15.53,23.17-1.16,26.88-.16,7.56-.12,10.69-.1,13.34-.23-.1-2.69-2.09-4.3,.31-1.65,2.47,1.5,4.11,4.36,4.95,.85,46.69,5.19,44.37,1.31,43.86-9.22-1.21-19.3-6.57-26.5-15.95-7.11-9.27,1.79,1.24,3.91-4.92,1.28-3.74-3.37-3.11-8.85-7.18-2.65-1.97-1.64-2.77-3.6-3.38-1.91-1.48-4.87,.15-4.7,2.27,.93,11.26-4.93,14.33,.12,16.07Zm35.28-57.13c-.04-.05-.03-.04,0,0h0Zm9.23,2.59c.19-.09,.2-.07,0,0h0Zm-.01,0c-.77,.27-.74-1.67-3.09-1.82-2.07-.13-2.67,1.89-2.78,1.85-6.24-2.31-6.36-11.5-1.22-15.66,4.68-3.17,10.67-.22,11.82,6.86,.52,8-6.24,9.31-4.72,8.78Z"/><path class="o" d="M291.24,237.25c5.82-7.54,10.93-15.63,15.25-24.12,1.42-2.81,2.86-5.78,5.43-7.6,2.46-1.74,5.61-2.16,8.63-2.18,12.13-.08,23.5,5.38,35.08,8.99,28.67,8.93,59.48,6.61,89.39,3.91,22.27-2.01,45.37-4.45,64.55-15.96,3.2-1.92,8.38-3.5,9.74-.04,.42,1.08,.21,2.28,.16,3.43-.33,7.01,5.06,12.82,10.08,17.72,5.42,5.3,10.84,10.59,16.26,15.89,2.07,2.03,4.3,4.44,4.11,7.34-.09,1.36-.73,2.63-1.46,3.78-4.03,6.36-10.97,10.24-17.85,13.3-16.43,7.3-34.1,11.41-51.82,14.43-49.99,8.52-101.4,8.69-151.45,.5-13.32-2.18-26.68-5.09-38.72-11.41-5.45-2.86-8.77-3.91-7.5-10.62,1.23-6.53,6.19-12.27,10.13-17.37Z"/><g><path class="d" d="M453.34,149.3c-2.22-6.88-7.61-12.23-11.04-18.6-3.44-6.37-4.9-13.69-8.55-19.94-5.6-9.59-14.27-11.41-22.62-8.92-8.36-2.5-17.02-.68-22.62,8.92-3.65,6.25-5.11,13.57-8.55,19.94-3.44,6.36-8.82,11.71-11.04,18.6-2.04,6.32-1.17,13.17-.18,19.74,4.01,26.8,9.47,53.39,16.35,79.6,2.72,10.35,5.67,20.68,10.07,30.44,3.61,8,9.53,20.61,15.99,20.61,6.37-.29,12.38-12.61,15.99-20.61,4.4-9.75,7.35-20.09,10.07-30.44,6.88-26.21,12.34-52.8,16.35-79.6,.98-6.57,1.86-13.42-.18-19.74Z"/><path class="k" d="M454.17,169.04c.98-6.57,1.86-13.42-.18-19.74-.43-1.33-.98-2.6-1.61-3.83,.27,2.83,.34,5.68,.09,8.53-.63,7.34-3.27,14.33-5.55,21.33-10.33,31.71-13.82,65.41-25.2,96.75-2.22,6.1-5.05,12.49-10.57,15.89-3.03,1.86-7.05,2.25-10.39,1.21,3.18,5.62,6.99,10.51,11.01,10.51,6.37-.29,12.38-12.61,15.99-20.61,4.4-9.75,7.35-20.09,10.07-30.44,6.88-26.21,12.34-52.8,16.35-79.6Z"/></g><g class="q"><path class="h" d="M392.96,120.98c.02,29.41,.04,58.83,.07,88.24,0,3.95,.1,8.21,2.44,11.4,.39,.53,.86,1.04,1.47,1.3,2.56,1.1,4.51-2.49,4.9-5.24,3.61-25.31-3.64-51.88,3.94-76.3,1.75-5.63,4.29-11.16,4.33-17.06,.11-13.86-17.15-18.57-17.14-2.34Z"/></g><path class="o" d="M262.36,427.78c1.12,2.74,2.38,5.5,4.45,7.61,2,2.04,4.63,3.34,7.28,4.39,9.65,3.78,35.93,8.45,46.23,9.53,31.83,3.34,113.16,6.69,163.26,.96,16.86-1.93,37.64-6.54,54.22-10.14,11.34-2.46,23.04-6.66,30.3-15.72,6.43-8.03,8.4-18.63,10.17-28.76,.24-1.38,.36-3.07-.78-3.88-.87-.61-2.05-.39-3.08-.14-92.29,22.45-188.6,31.07-282.9,19.77-26.71-3.2-29.79-14.87-34.03-14.14-7.43,1.32,1.35,21.87,4.89,30.52Z"/><path class="n" d="M260.91,410.3c2.41,9.42,6.22,18.48,11.27,26.8,1.67,2.75,5.99,.24,4.32-2.52-4.84-7.98-8.45-16.57-10.77-25.61-.8-3.11-5.62-1.79-4.82,1.33h0Z"/><path class="n" d="M277.72,417.62c1.3,6.34,3.93,12.43,7.66,17.72,.78,1.1,2.18,1.62,3.42,.9,1.09-.64,1.68-2.31,.9-3.42-3.57-5.06-5.92-10.48-7.16-16.53-.27-1.32-1.84-2.09-3.08-1.75-1.38,.38-2.02,1.75-1.75,3.08h0Z"/><path class="n" d="M294.35,423.85c1.65,4.39,3.3,8.77,4.95,13.16,.46,1.22,1.71,2.19,3.08,1.75,1.19-.39,2.24-1.76,1.75-3.08-1.65-4.39-3.3-8.77-4.95-13.16-.46-1.22-1.71-2.19-3.08-1.75-1.19,.39-2.24,1.76-1.75,3.08h0Z"/><path class="n" d="M313.45,423.8c1.23,6.99,3.39,13.74,6.33,20.2,.56,1.23,2.34,1.53,3.42,.9,1.26-.74,1.46-2.19,.9-3.42-2.76-6.05-4.68-12.46-5.82-19-.23-1.33-1.86-2.08-3.08-1.75-1.4,.39-1.98,1.74-1.75,3.08h0Z"/><path class="n" d="M332.69,426.58c.58,7.22,2.45,14.18,5.57,20.71,.58,1.22,2.32,1.54,3.42,.9,1.25-.73,1.48-2.2,.9-3.42-2.72-5.69-4.39-11.9-4.89-18.19-.11-1.35-1.07-2.5-2.5-2.5-1.27,0-2.61,1.15-2.5,2.5h0Z"/><path class="n" d="M357.54,424.88c.81,6.47,1.62,12.93,2.43,19.4,.17,1.34,1.03,2.5,2.5,2.5,1.22,0,2.67-1.15,2.5-2.5-.81-6.47-1.62-12.93-2.43-19.4-.17-1.34-1.03-2.5-2.5-2.5-1.22,0-2.67,1.15-2.5,2.5h0Z"/><path class="n" d="M435.92,420.91c.23,7.78,.17,15.57-.2,23.35-.15,3.22,4.85,3.21,5,0,.37-7.78,.43-15.57,.2-23.35-.1-3.21-5.1-3.22-5,0h0Z"/><path class="n" d="M450.95,422.05c-.04,8.41-1.02,16.76-2.94,24.95-.73,3.13,4.09,4.47,4.82,1.33,2.02-8.61,3.07-17.44,3.11-26.28,.02-3.22-4.98-3.22-5,0h0Z"/><path class="n" d="M476.39,416.36c-.98,9.19-2.75,18.27-5.24,27.17-.87,3.1,3.95,4.43,4.82,1.33,2.61-9.33,4.4-18.86,5.42-28.5,.14-1.34-1.25-2.5-2.5-2.5-1.47,0-2.36,1.15-2.5,2.5h0Z"/><path class="n" d="M497.33,414.07c-.99,8.66-2.97,17.19-5.78,25.43-1.04,3.05,3.79,4.36,4.82,1.33,2.96-8.69,4.91-17.65,5.96-26.76,.15-1.34-1.26-2.5-2.5-2.5-1.48,0-2.35,1.15-2.5,2.5h0Z"/><path class="n" d="M521.38,408.86c-2,8.99-4.27,17.91-6.81,26.75-.89,3.1,3.93,4.42,4.82,1.33,2.54-8.85,4.81-17.77,6.81-26.75,.7-3.14-4.12-4.47-4.82-1.33h0Z"/><path class="n" d="M546.1,404.92c-1.55,8.11-3.77,16.06-6.65,23.79-.47,1.27,.53,2.74,1.75,3.08,1.4,.38,2.6-.48,3.08-1.75,2.88-7.73,5.1-15.69,6.65-23.79,.25-1.32-.37-2.7-1.75-3.08-1.22-.34-2.82,.41-3.08,1.75h0Z"/><path class="n" d="M564.84,402.07c-.48,2.32-1.11,4.6-1.9,6.84-.19,.55-.39,1.09-.61,1.63-.11,.27-.22,.54-.32,.81-.11,.28-.13,.31-.04,.09-.05,.11-.1,.23-.15,.34-.48,1.1-1,2.19-1.55,3.26-.6,1.16-.34,2.77,.9,3.42,1.15,.61,2.78,.34,3.42-.9,2.31-4.47,4.04-9.24,5.06-14.17,.27-1.28-.37-2.76-1.75-3.08-1.25-.28-2.79,.38-3.08,1.75h0Z"/><path class="n" d="M375.55,427.87c.92,5.6,2.28,11.12,4.05,16.51,.42,1.28,1.73,2.12,3.08,1.75,1.26-.35,2.17-1.79,1.75-3.08-1.77-5.39-3.13-10.91-4.05-16.51-.22-1.33-1.87-2.08-3.08-1.75-1.42,.39-1.97,1.74-1.75,3.08h0Z"/><path class="n" d="M294.11,255.99c3.25-1.37,5.37-4.64,7.43-7.34,2.24-2.95,4.35-6,6.33-9.13,3.99-6.33,7.37-13.01,10.24-19.92,.52-1.25-.56-2.75-1.75-3.08-1.44-.39-2.56,.49-3.08,1.75-2.64,6.37-5.84,12.51-9.5,18.35-1.81,2.89-3.73,5.71-5.76,8.44-1.77,2.38-3.61,5.42-6.43,6.62-1.24,.53-1.52,2.36-.9,3.42,.75,1.29,2.17,1.43,3.42,.9h0Z"/><path class="n" d="M312.21,261.83c6.13-8.69,10.71-18.43,13.53-28.68,.85-3.11-3.97-4.43-4.82-1.33-2.71,9.86-7.12,19.13-13.02,27.49-.78,1.1-.2,2.78,.9,3.42,1.25,.73,2.64,.21,3.42-.9h0Z"/><path class="n" d="M333.81,267.33c1.22-5.29,2.44-10.59,3.66-15.88,.29-1.27-.39-2.77-1.75-3.08-1.27-.29-2.76,.38-3.08,1.75-1.22,5.29-2.44,10.59-3.66,15.88-.29,1.27,.39,2.77,1.75,3.08,1.27,.29,2.76-.38,3.08-1.75h0Z"/><path class="n" d="M473.77,264.92c-4.28-12.07-6.63-24.71-6.9-37.52-.07-3.21-5.07-3.22-5,0,.28,13.22,2.66,26.38,7.08,38.85,.45,1.27,1.71,2.12,3.08,1.75,1.23-.34,2.2-1.8,1.75-3.08h0Z"/><path class="n" d="M490.79,265.87c-4.73-12.88-8.3-26.17-10.67-39.69-.23-1.33-1.86-2.08-3.08-1.75-1.4,.39-1.98,1.74-1.75,3.08,2.37,13.52,5.94,26.8,10.67,39.69,.47,1.27,1.7,2.13,3.08,1.75,1.22-.34,2.21-1.8,1.75-3.08h0Z"/><path class="n" d="M513.91,254.12c-7.39-11.41-12.4-24.17-14.76-37.56-.24-1.33-1.86-2.08-3.08-1.75-1.4,.39-1.98,1.74-1.75,3.08,2.43,13.77,7.67,27.02,15.27,38.76,1.74,2.69,6.07,.19,4.32-2.52h0Z"/><path class="n" d="M533.39,242.89c-8.26-8.69-15.2-18.51-20.68-29.16-1.47-2.86-5.79-.34-4.32,2.52,5.67,11.02,12.93,21.19,21.46,30.17,2.22,2.34,5.75-1.2,3.54-3.54h0Z"/><path class="f" d="M25.53,287.03c-4.91,3.57-11.09,6.8-16.82,4.79-4.72-1.66-7.68-6.58-8.45-11.52-.77-4.94,.25-9.97,1.27-14.87C12.97,210.52,18.68,109.03,42.13,99.26c14.45-6.02,17.14,21.05,23.47,29.67,1.98,2.7,.56,2.37,1.98,5.41,1.5,3.19,2.32,6.66,2.99,10.12,3.92,20.16,3.06,41.04-.41,61.28-4.15,24.22-13.25,46.51-28.12,66.09-4.44,5.85-10.6,10.91-16.51,15.19Z"/><path class="l" d="M32.58,110.75c2.31-1.78,4.92-2.73,7.66-1.84,4.2,1.37,5.88,6.41,6.18,10.81,.67,10.11-2.8,19.98-5.68,29.7-8.51,28.7-12.19,58.64-13.51,88.55-.47,10.64-.65,21.35-2.69,31.8-1.56,7.96-4.29,15.85-8.72,22.6,3.61-.79,7.13-2.86,10.18-5.07,5.9-4.29,12.07-9.35,16.51-15.19,10.7-14.09,18.4-29.59,23.43-46.19,1.99-13.14,4.27-26.23,7.13-39.2,1.1-14.04,.66-28.18-2.03-41.98-.67-3.46-1.5-6.93-2.99-10.12-1.42-3.04,0-2.7-1.98-5.41-6.33-8.63-9.02-35.7-23.47-29.67-3.76,1.57-7.06,5.5-10.01,11.22Z"/><path class="p" d="M42.33,271.2c5.95-14.49,9.71-29.78,13.03-45.09,6.92-31.93,12-64.55,10.24-97.17,9.23,7.08,18.46,14.17,27.7,21.25,.53,.41,1.08,.83,1.44,1.4,.56,.87,.61,1.96,.64,3,.54,22.57-4.02,44.92-8.57,67.04-2.82,13.7-5.26,28.24-10.85,41.15-2.41,5.55-5.45,5.27-11.19,6.04-7.45,.99-14.93,1.79-22.43,2.39Z"/></g></g></g></svg>