<?xml version="1.0" encoding="UTF-8"?><svg xmlns="http://www.w3.org/2000/svg" viewBox="0 0 549.68 955.22"><defs><style>.d{fill:#f7b566;}.e{fill:#efd486;}.f{fill:#f0f6fc;}.g{fill:#eadec5;}.h{fill:#fff;}.i{fill:#fff1d2;}.j{fill:#849496;}.k{fill:#d3a45f;}.l{fill:#dce1e5;}.m{fill:#e26d52;}.n{fill:#15857f;}.o{fill:#12706b;}.p{fill:#0e5955;}.q{fill:#3f3c36;}.r{fill:#514d46;}.s{opacity:.43;}</style></defs><g id="a"/><g id="b"><g id="c"><g><path class="e" d="M383.43,955.22c2.08,0,2.08-3.23,0-3.23s-2.08,3.23,0,3.23h0Z"/><path class="m" d="M213.79,884.63c-13.93,2.87-24.24,4.83-38.46,5.2,6.57,2.34,10.85,3.82,14.68,6.92-5.47,3.2-14.13,8.78-19.6,11.98,9.75,.64,19.49,1.28,29.24,1.92l-7.04,13.33,40.55-27.35c3.79-2.56,7.79-5.37,9.47-9.62,2.08-5.26-.84-11.53-6.58-8.58-6.25,3.21-15.17,4.73-22.26,6.2Z"/><path class="m" d="M233.25,879.76c0,2.9,.01,5.94,1.34,8.48,1.33,2.54,5.36-2.06,7.81-3.37,1.38-49.46,.91-92.61,.4-142.09-.05-5.29-.32-11.12-3.76-14.96-3.42-3.81-9.64-4.3-13.55-1.07-7.55,6.23-.57,16.87,.56,24.51,2.11,14.21,3.01,28.77,4.08,43.1,2.13,28.41,3.18,56.9,3.12,85.4Z"/><path class="m" d="M386.72,891.59c14.18,1.11,24.66,1.75,38.81,.34-6.22,3.15-10.29,5.15-13.7,8.7,5.83,2.49,15.12,6.94,20.95,9.43l-28.77,5.57c2.89,4.12,5.77,8.23,8.66,12.35-14.55-7.35-29.11-14.7-43.66-22.06-4.08-2.06-8.4-4.35-10.6-8.36-2.72-4.96-.61-11.55,5.46-9.34,6.61,2.41,15.64,2.8,22.86,3.36Z"/><path class="m" d="M366.81,889.19c.37,2.88,.73,5.9-.27,8.58-1,2.68-5.57-1.37-8.17-2.37-7.57-48.9-12.5-91.77-18.19-140.92-.61-5.25-1.08-11.07,1.86-15.31,2.91-4.21,9.02-5.47,13.31-2.76,8.27,5.24,2.68,16.66,2.51,24.39-.32,14.36,.62,28.92,1.35,43.27,1.44,28.45,3.98,56.85,7.6,85.12Z"/><path class="g" d="M209.51,745.69c2.8,7.86,6.04,15.89,12.07,21.66,6.03,5.77,15.59,8.66,22.93,4.69,5.96-3.22,9.02-9.93,11.5-16.23,6.86-17.47,12.4-35.81,12.42-54.58,0-4.31-.33-8.8-2.47-12.54-4.43-7.76-14.64-9.61-23.56-10.17-10.97-.69-22.19-.91-33.14,.14-7.35,.71-14,2.02-14.48,10.46-.49,8.41,3.18,18.02,5.29,26.01,2.73,10.31,5.86,20.52,9.43,30.57Z"/><path class="g" d="M322.83,745.69c2.8,7.86,6.04,15.89,12.07,21.66,6.03,5.77,15.59,8.66,22.93,4.69,5.96-3.22,9.02-9.93,11.5-16.23,6.86-17.47,12.4-35.81,12.42-54.58,0-4.31-.33-8.8-2.47-12.54-4.43-7.76-14.64-9.61-23.56-10.17-10.97-.69-22.19-.91-33.14,.14-7.35,.71-14,2.02-14.48,10.46-.48,8.41,3.18,18.02,5.29,26.01,2.73,10.31,5.86,20.52,9.43,30.57Z"/><path class="g" d="M102.05,505.33c-12.85,35.04-6.92,76.37,15.26,106.39,5.77,7.81,12.52,14.85,19.25,21.86-3.47-9.18-2.96-19.4-1.06-29.03,3.28-16.66,10.45-32.28,18.31-47.33,8.73-16.72,18.39-32.96,28.91-48.61,5.39-8.02,11.05-15.96,14.86-24.84,3.81-8.88,5.68-18.95,3.13-28.27-8.15-29.83-36.61-17.49-54.39-5.67-20.02,13.31-35.98,32.87-44.27,55.49Z"/><path class="j" d="M137.2,657.57c7.04,12.13,17.02,25.32,31.05,25.39,1.65,0,3.37-.2,4.72-1.15,3.31-2.34,2.53-7.37,1.39-11.26-10.85-36.97-21.82-74.22-39.85-108.28-1.32-2.5-2.8-5.1-5.26-6.48-2.46-1.39-6.18-.93-7.35,1.64-1.5,3.28,.79,9.08-2.79,9.56-3.53,.48-3.46-6.16-6.79-7.41-1.06,2.49-.6,5.33-.96,8.01-.36,2.68-2.2,5.65-4.9,5.49-2.32-.14-3.8-2.49-4.8-4.59-3.01-6.35-5.3-13.04-6.81-19.9-1.78,17.85,9.1,38.4,15.69,54.61,7.61,18.71,16.52,36.9,26.66,54.37Z"/><path class="g" d="M406.61,429.49c40.95-19.9,72.51-58.22,84.2-102.22,6.09-22.92,6.96-46.85,9.39-70.44,.19-1.85,.6-4.01,2.28-4.8,2.65-1.25,5.13,2.04,6.04,4.83,5.25,16.11,2.31,33.61-.68,50.29-1.44,8.02-2.87,16.05-4.31,24.07,8.09-2.5,17.55-36.14,21.33-43.72,.57-1.14,1.26-2.3,2.39-2.9,4.1-2.15,7.01,4.46,6.93,9.09-.47,28.97-3.78,57.9-9.89,86.22,3.88-6.87,11.13-22.4,16.51-16.57,5.52,5.07,1.56,18.91-1.06,27.95,2.07-.88,4.13-1.77,6.2-2.65,8.17,2.82,1.18,39.37-4.15,58.34-15.42,54.88-48.48,104.65-93.08,140.14-14.45,11.5-30.54,21.72-48.63,25.42-22.14,4.53-45.26-1.17-65.85-10.48-20.36-9.2-39.63-22.5-51.33-41.53-11.35-18.45-14.67-41.65-8.95-62.55s20.39-39.17,39.55-49.27c12.97-6.84,33.53-14.23,48.39-13.4,7.64,.43,13.82,3.01,21.88,1.79,7.96-1.2,15.65-4.13,22.86-7.64Z"/><g><path class="j" d="M512.9,455.71c.5-.51,.89-1.09,1.18-1.71-.51,.47-.92,1.04-1.18,1.71Z"/><path class="j" d="M541.79,446.87c5.33-18.97,12.32-55.52,4.15-58.34-2.07,.88-4.13,1.77-6.2,2.65,2.61-9.05,6.58-22.88,1.06-27.95-5.38-5.83-12.63,9.7-16.51,16.57,6.11-28.32,9.42-57.25,9.89-86.22,.07-4.63-2.83-11.24-6.93-9.09-1.13,.59-1.83,1.76-2.39,2.9-3.78,7.58-13.23,41.22-21.33,43.72,1.44-8.02,2.87-16.05,4.31-24.07,2.99-16.68,5.93-34.18,.68-50.29-.91-2.79-3.39-6.08-6.04-4.83-1.68,.79-2.09,2.95-2.28,4.8-2.43,23.59-3.31,47.52-9.39,70.44-3.78,14.25-9.66,27.9-17.26,40.53,.32-.17,.65-.34,.99-.49,4.27-1.91,10.67-.47,11.4,4.15,.28,1.77-.35,3.54-.97,5.22-1.41,3.83-2.83,7.67-4.24,11.5,1.86-1.66,3.82-3.37,6.23-4,2.41-.63,5.41,.23,6.37,2.53,.46,1.09,.4,2.33,.28,3.51-.37,3.54-1.27,7.02-2.65,10.29,4.42-3.62,11.68-1.17,14.68,3.7,3,4.87,2.7,11.08,1.39,16.65-2.64,11.23-8.83,21.25-14.93,31.04,5.88-3.54,11.45-10.45,17.94-8.22,4.03,1.38,5.8,6.73,4.03,10.46,1.81-1.69,4.9-2.07,7.16-.84,2.89,1.58,4.34,5.06,4.28,8.35s-1.42,6.42-2.99,9.3c1.69-1.34,3.8-2.14,5.96-2.24,.22,5.86-.15,11.75-1.09,17.54,5.8-12.69,10.64-25.81,14.41-39.24Z"/></g><path class="i" d="M224.11,286.24c-9.83,13.93-13.1,31.39-14.74,48.37-1.64,16.97-1.92,34.26-6.79,50.6-11.35,38.11-29.33,64.54-51.7,97.42-19.8,29.1-30.79,64.45-29.08,99.61s16.51,69.85,42.03,94.1c21.92,20.83,50.87,33.44,80.69,38.43,29.82,4.99,60.53,2.66,90.1-3.62,19.1-4.05,38.09-9.85,54.69-20.12,17.15-10.61,31.29-25.79,41.71-43.06,32.37-53.61,28.47-133.36-13.49-179.84-10.87-12.04-45.24-48.35-57.39-94.49-5.5-20.88-9.89-41.97-14.63-63.03-15.43-68.52-92.89-64.74-121.41-24.35Z"/><g><path class="q" d="M237.18,326.07c-.31,.97-.52,1.97-.53,2.98-.06,4.48,3.84,8.27,8.18,9.4,3.53,.92,7.78,.17,9.87-2.81,.53-.75,.89-1.6,1.17-2.48,1.15-3.65,.62-7.93-1.88-10.84-4.85-5.64-14.66-3.01-16.81,3.74Z"/><path class="h" d="M240.9,326.32c-.77,1.54-.95,3.5,.01,4.93,.96,1.43,3.26,1.93,4.46,.7,1.2-1.22,.86-3.35,1.92-4.69,.71-.88,1.95-1.31,2.41-2.34,1.1-2.5-2.14-2.9-3.73-2.57-2.13,.44-4.11,2.04-5.08,3.97Z"/></g><path class="j" d="M271.75,317.75c.02-1.06-.98-1.83-1.87-2.42-5-3.28-10.03-6.59-15.51-8.99-5.81-2.55-13.02-4.54-19.37-3.06-4.48,1.05-9.39,5.45-5.48,10.13,3.1,3.72,42.24,3.26,42.22,4.33Z"/><g><path class="q" d="M329.15,324.65c.42,.92,.75,1.89,.89,2.9,.6,4.44-2.81,8.68-6.98,10.32-3.39,1.34-7.7,1.11-10.14-1.59-.61-.68-1.08-1.48-1.46-2.32-1.58-3.49-1.57-7.8,.55-10.99,4.13-6.19,14.18-4.76,17.14,1.68Z"/><path class="h" d="M325.49,325.35c.95,1.44,1.37,3.36,.58,4.9-.78,1.54-3,2.31-4.35,1.23-1.33-1.07-1.26-3.22-2.48-4.42-.81-.79-2.09-1.06-2.67-2.03-1.4-2.35,1.77-3.13,3.39-3,2.17,.18,4.33,1.53,5.52,3.32Z"/></g><path class="j" d="M293.82,320.58c-.15-1.05,.75-1.94,1.56-2.62,4.57-3.87,9.16-7.75,14.31-10.8,5.45-3.23,12.37-6.09,18.85-5.38,4.57,.5,9.98,4.28,6.67,9.39-2.63,4.07-41.53,8.35-41.39,9.42Z"/><path class="f" d="M191.68,248.21c-4.47-4.1-8.87-9.52-8.03-15.53,.69-4.96,4.92-8.83,9.61-10.57,4.69-1.74,9.82-1.73,14.82-1.71,56.08,.28,156.67-14.31,170.91,6.73,8.78,12.96-17.22,20.98-24.41,28.9-2.25,2.48-2.21,1.02-4.9,3.02-2.83,2.1-6.07,3.6-9.33,4.95-18.98,7.85-39.61,11.16-60.14,11.79-24.56,.75-48.21-3.74-70.36-14.42-6.61-3.19-12.8-8.22-18.17-13.15Z"/><path class="l" d="M365.84,220.06c2.2,1.91,3.66,4.27,3.32,7.15-.51,4.38-5.11,7.04-9.37,8.2-9.78,2.67-20.13,1.23-30.23,.34-29.82-2.64-59.9-.29-89.46,4.37-10.52,1.66-21.05,3.61-31.7,3.69-8.12,.06-16.39-1.05-23.88-4.05,1.49,3.38,4.22,6.42,6.99,8.97,5.38,4.93,11.56,9.97,18.17,13.15,15.94,7.68,32.66,12.15,49.93,13.78,13.27-.66,26.55-1.03,39.83-.81,13.98-1.71,27.74-4.96,40.74-10.33,3.26-1.35,6.49-2.84,9.33-4.95,2.69-2,2.65-.53,4.9-3.02,7.2-7.92,33.19-15.94,24.41-28.9-2.28-3.37-6.8-5.83-12.99-7.58Z"/><path class="p" d="M304.1,246.76c-1.36-.71-2.32-2.1-2.43-3.59-.03-.34-.22-.64-.56-.74-.3-.08-.73,.05-.86,.35-.67,1.58-1.76,2.95-3.18,3.91-.34,.23-.49,.67-.27,1.05,.03,.05,.06,.09,.1,.13,.12,.16,.31,.26,.57,.26s.45-.11,.57-.27c.73-.52,1.39-1.12,1.97-1.8h0c.12,2.25-.78,4.47-2.4,6.06-.98,.96-2.17,1.87-3.39,2.51-.63,.33-1.33,.43-2.03,.46-.7,.03-1.41,.03-2.1-.12-1.17-.25-2.48-1.04-2.58-2.37-.01-.2-.1-.39-.23-.53-.44-4.91-.8-9.84-1.07-14.76-.08-1.37-.14-2.75-.21-4.12,1.25-.34,2.41-1.19,2.36-2.63-.03-.76-.35-1.51-.76-2.14-.38-.6-.89-1.13-1.55-1.42-1.22-.54-2.68-.32-3.78,.42-.62,.42-1.15,.98-1.43,1.69-.3,.75-.17,1.58,.21,2.29,.65,1.24,2.04,2.03,3.43,2.09,.25,5.18,.58,10.36,1,15.53,.11,1.36,.23,2.72,.36,4.09-.51,2.04-2.59,3.23-4.63,3.24-1.33,0-2.64-.41-3.82-1.01-1.1-.57-2.23-1.29-2.85-2.41-.37-.67-.59-1.42-.79-2.16-.1-.35-.18-.7-.27-1.06,.43,.34,.91,.62,1.44,.81,.39,.14,.84-.16,.94-.53,.12-.42-.14-.8-.53-.94-.04-.02-.09-.03-.13-.05h-.03c-.09-.05-.18-.1-.26-.14-.14-.08-.28-.17-.41-.26-.02-.02-.14-.11-.16-.13-.07-.06-.14-.13-.21-.2-.05-.05-.1-.11-.15-.16-.01-.01-.11-.13-.13-.15-.1-.13-.19-.27-.27-.41-.05-.08-.09-.17-.14-.26-.02-.04-.04-.07-.05-.11l-.02-.04c-.06-.16-.11-.32-.15-.49-.02-.08-.03-.16-.05-.25,0,0-.02-.18-.02-.2-.03-.38-.27-.7-.66-.75-.35-.04-.77,.17-.84,.55-.33,1.78-.94,3.41-1.86,4.94-.21,.35-.08,.84,.27,1.05,.36,.21,.83,.08,1.05-.27,.32-.53,.61-1.09,.86-1.66,.25,1.18,.59,2.35,1.11,3.41,.68,1.38,1.96,2.35,3.29,3.07,2.6,1.42,5.94,2,8.54,.26,.78-.52,1.45-1.21,1.91-2.03,.43,.55,1,.99,1.65,1.29,1.56,.71,3.52,.77,5.18,.42,.88-.19,1.65-.65,2.38-1.15,.68-.46,1.34-.95,1.97-1.48,1.25-1.06,2.24-2.34,2.86-3.86,.44-1.08,.65-2.22,.67-3.37,.49,.6,1.1,1.1,1.8,1.47,.37,.19,.83,.09,1.05-.27,.2-.34,.09-.85-.27-1.05Zm-21.45-15.71c-.28-.32-.49-.76-.44-1.17,.05-.39,.36-.74,.68-1.01,.27-.23,.69-.44,1.07-.54,.36-.1,.78-.12,1.1-.04,.41,.1,.71,.28,1.02,.65,.29,.35,.54,.81,.67,1.26,.07,.23,.1,.45,.05,.67-.04,.2-.12,.3-.28,.44-.08,.07-.39,.25-.48,.29-.25,.1-.51,.16-.78,.22-.05,.01-.1,.03-.15,.05-.14,0-.26,.05-.35,.11-.81,.01-1.57-.28-2.12-.92Z"/><path class="r" d="M355.73,314c3.24-.17,6.55-.41,9.54-1.67,.9-.38,1.81-.89,2.29-1.75,1.17-2.09-.84-4.49-2.71-5.98-6.25-4.96-13.1-9.16-20.35-12.49-3.13-1.44-6.38-2.72-9.8-3.2-3.64-.51-7.33-.1-10.98,.29-15.34,1.63-30.73,2.87-46.16,3.39-7.81,.27-15.62,.35-23.43,.21-3.85-.07-7.7-.19-11.55-.38-1.77-.08-10.01-1.72-11.17-.67-2.44,2.22,7.87,5.86,9.39,6.38,7.03,2.38,14.15,4.51,21.34,6.37,14.37,3.73,29.02,6.42,43.78,8.05,16.53,1.82,33.21,2.32,49.82,1.44Z"/><path class="q" d="M210.54,261.52c15.39,2.95,31.12,3.6,46.78,3.8,32.67,.43,65.65-1.08,97.27-9.29-5.11,10.46-10.21,20.91-15.32,31.37-.29,.6-.6,1.22-1.08,1.69-.74,.72-1.8,.99-2.81,1.22-22.02,5.02-44.83,4.99-67.41,4.94-13.99-.03-28.72,.46-42.48-2.46-5.92-1.26-6.25-4.29-8.14-9.77-2.46-7.11-4.73-14.28-6.8-21.5Z"/><g><path class="o" d="M401.8,451.52c-8.14,2.75-15.7,5.32-17.24,5.74-13.92,3.73-28.03,6.74-42.26,9-50.08,7.98-101.61,6.86-151.27-3.47-7.44-1.55-15.05-3.04-22.34-5.41-5.56,8.65-11.51,17.4-17.82,26.67-19.8,29.1-30.79,64.45-29.08,99.61,1.13,23.06,7.88,45.92,19.6,65.77,35.53,7.62,72.11,10.87,108.5,12,58.59,1.83,118-1.75,174.02-19.04,4.45-1.37,8.9-2.85,13.3-4.48,25.45-53,19.38-125.09-19.68-168.36-3.41-3.77-9.12-9.93-15.73-18.02Z"/><g><g><path class="f" d="M450.29,595.92c-2.08,.83-4.16,1.64-6.25,2.43-11.3,4.26-22.81,7.98-34.46,11.18-11.77,3.24-23.68,5.95-35.68,8.17-5.96,1.1-11.95,2.09-17.95,2.96-1.36,.2-2.73,.37-4.09,.57-.21,.03-.41,.05-.62,.08-.86,.11-1.72,.22-2.58,.33-3.02,.37-6.04,.72-9.06,1.04-24.49,2.58-49.16,3.36-73.77,2.66-12.22-.35-24.42-1.06-36.6-2.11-6.08-.52-12.15-1.13-18.21-1.81-3.13-.35-6.26-.73-9.39-1.12-1.29-.16-2.58-.33-3.87-.5h.06c-.05,0-.11,0-.16-.01-.08,0-.15-.02-.23-.03-.07,0-.14-.02-.23-.03-.13-.02-.25-.03-.38-.05-.89-.12-1.77-.24-2.66-.37-12.42-1.75-24.8-3.9-36.98-6.9-6.17-1.52-12.29-3.26-18.32-5.29-2.95-.99-5.88-2.05-8.78-3.18-.73-.28-1.45-.57-2.17-.86-.3-.12-2.2-.93-1.09-.44,1.15,.5-.18-.08-.46-.2-.31-.13-.61-.27-.92-.4-.58-.25-1.15-.51-1.72-.77,1.25,7.24,3.06,14.39,5.39,21.36,16.36,5.91,33.44,9.77,50.64,12.53,25.33,4.07,50.95,6.66,76.58,7.79,24.83,1.09,49.74,.71,74.5-1.47,25.16-2.21,50.23-6.16,74.74-12.33,13.48-3.39,26.78-7.48,39.84-12.25,2.08-6.83,3.7-13.84,4.87-20.95Z"/><path class="f" d="M190.51,501.29c25.33,4.07,50.95,6.66,76.58,7.79,24.83,1.09,49.74,.71,74.5-1.47,25.16-2.21,50.23-6.16,74.74-12.33,5.52-1.39,11-2.9,16.45-4.52-3.16-5.47-6.69-10.7-10.61-15.61-.62,.17-1.23,.36-1.84,.53-11.77,3.24-23.68,5.95-35.68,8.17-5.96,1.1-11.95,2.09-17.95,2.96-1.36,.2-2.73,.37-4.09,.57-.21,.03-.41,.05-.62,.08-.86,.11-1.72,.22-2.58,.33-3.02,.37-6.04,.72-9.06,1.04-24.49,2.58-49.16,3.36-73.77,2.66-12.22-.35-24.42-1.06-36.6-2.11-6.08-.52-12.15-1.13-18.21-1.81-3.13-.35-6.26-.73-9.39-1.12-1.29-.16-2.58-.33-3.87-.5h.06c-.05,0-.11,0-.16-.01-.08-.01-.15-.02-.23-.03-.07,0-.14-.02-.23-.03-.13-.02-.25-.03-.38-.05-.89-.12-1.77-.24-2.66-.37-12.42-1.75-24.8-3.9-36.98-6.9-3.75-.92-7.47-1.94-11.17-3.04-1.93,2.85-3.89,5.74-5.89,8.68-1.52,2.24-2.99,4.52-4.41,6.84,14.33,4.66,29.15,7.87,44.05,10.27Z"/><path class="f" d="M423.32,520.58c-11.77,3.24-23.68,5.95-35.68,8.17-5.96,1.1-11.95,2.09-17.95,2.96-1.36,.2-2.72,.37-4.09,.57-.21,.03-.41,.05-.62,.08-.86,.11-1.72,.22-2.58,.33-3.02,.37-6.04,.72-9.06,1.04-24.49,2.58-49.16,3.36-73.77,2.66-12.22-.35-24.42-1.06-36.6-2.11-6.08-.52-12.15-1.13-18.21-1.81-3.13-.35-6.26-.73-9.39-1.12-1.29-.16-2.58-.33-3.87-.5h.06c-.05,0-.11,0-.16-.01-.08,0-.15-.02-.23-.03-.07,0-.14-.02-.23-.03-.13-.02-.25-.03-.38-.05-.89-.12-1.77-.24-2.66-.37-12.42-1.75-24.8-3.9-36.98-6.9-6.17-1.52-12.29-3.26-18.32-5.29-2.95-.99-5.88-2.05-8.78-3.18-.73-.28-1.45-.57-2.17-.86-.3-.12-2.2-.93-1.09-.44,1.15,.5-.18-.08-.46-.2-.31-.13-.61-.27-.92-.4-.81-.36-1.63-.72-2.44-1.09-.35-.16-.68-.33-1.03-.49-2.41,5.46-4.54,11.04-6.37,16.72,20.33,9.14,42.15,14.45,64.15,17.98,25.33,4.07,50.95,6.66,76.58,7.79,24.83,1.09,49.74,.71,74.5-1.47,25.16-2.21,50.23-6.16,74.74-12.33,9.83-2.47,19.56-5.32,29.18-8.53-1.32-5.86-2.95-11.61-4.92-17.23-6.7,2.23-13.45,4.28-20.26,6.15Z"/><path class="f" d="M259.58,599.27c24.83,1.09,49.74,.71,74.5-1.47,25.16-2.21,50.23-6.16,74.74-12.33,14.81-3.73,29.39-8.3,43.67-13.69,.13-6.29-.09-12.59-.66-18.84-1.51,.59-3.03,1.18-4.55,1.75-11.3,4.26-22.81,7.98-34.46,11.18-11.77,3.24-23.68,5.95-35.68,8.17-5.96,1.1-11.95,2.09-17.95,2.96-1.36,.2-2.73,.37-4.09,.57-.21,.03-.41,.05-.62,.08-.86,.11-1.72,.22-2.58,.33-3.02,.37-6.04,.72-9.06,1.04-24.49,2.58-49.16,3.36-73.77,2.66-12.22-.35-24.42-1.06-36.6-2.11-6.08-.52-12.15-1.13-18.21-1.81-3.13-.35-6.26-.73-9.39-1.12-1.29-.16-2.58-.33-3.87-.5h.06c-.05,0-.11,0-.16-.01-.08,0-.15-.02-.23-.03-.07,0-.14-.02-.23-.03-.13-.02-.25-.03-.38-.05-.89-.12-1.77-.24-2.66-.37-12.42-1.75-24.8-3.9-36.98-6.9-6.17-1.52-12.29-3.26-18.32-5.29-2.95-.99-5.88-2.05-8.78-3.18-.73-.28-1.45-.57-2.17-.86-.3-.12-2.2-.93-1.09-.44,1.15,.5-.18-.08-.46-.2-.31-.13-.61-.27-.92-.4-.81-.36-1.63-.72-2.44-1.09-1.07-.49-2.13-1-3.18-1.52-.86,6.29-1.35,12.63-1.43,18.97,19.53,8.39,40.37,13.38,61.37,16.75,25.33,4.07,50.95,6.66,76.58,7.79Z"/></g><polygon class="i" points="469.36 343.65 469.36 343.65 469.36 343.65 469.36 343.65"/></g></g><path class="q" d="M306.01,469.01c7.21,1.84,14.16,5.44,18.9,11.18,4.42,5.34,6.66,12.15,8.03,18.95,1.68,8.37,2.17,16.97,1.46,25.48-1.18,13.93-5.36,28.97,1.45,41.18,4.37,7.85,13.04,13,22.01,13.5,8.97,.5,17.99-3.52,23.93-10.26,5.78-6.55,8.6-15.22,10.11-23.82-9.55-4.19-19.1-8.38-28.65-12.57-2.44,5.56-4.87,11.11-7.31,16.67-.71,1.61-1.49,3.31-2.96,4.27-2.35,1.54-5.71,.52-7.59-1.57-1.88-2.1-2.6-4.97-3.08-7.74-2.21-12.81-.56-25.95-1.43-38.92-.88-12.97-5.02-26.8-15.62-34.32-3.49-2.48-7.5-4.13-11.54-5.53-11.66-4.05-23.96-6.24-36.29-6.45-2.43-.04-5.06,.05-7.01,1.51-2.76,2.07-2.98,6.54-.47,8.88,2.67,2.49,6.74,1.56,9.81,.67,8.91-2.58,17.02-3.46,26.25-1.11Z"/><g><path class="d" d="M323.21,368.8c-2.22-6.88-7.61-12.23-11.04-18.6-3.44-6.37-4.9-13.69-8.55-19.94-5.6-9.59-14.27-11.41-22.62-8.92-8.36-2.5-17.02-.68-22.62,8.92-3.65,6.25-5.11,13.57-8.55,19.94-3.44,6.36-8.82,11.71-11.04,18.6-2.04,6.32-1.17,13.17-.18,19.74,4.01,26.8,9.47,53.39,16.35,79.6,2.72,10.35,5.67,20.68,10.07,30.44,3.61,8,9.53,20.61,15.99,20.61,6.37-.29,12.38-12.61,15.99-20.61,4.4-9.75,7.35-20.09,10.07-30.44,6.88-26.21,12.34-52.8,16.35-79.6,.98-6.57,1.86-13.42-.18-19.74Z"/><path class="k" d="M324.04,388.54c.98-6.57,1.86-13.42-.18-19.74-.43-1.33-.98-2.6-1.61-3.83,.27,2.83,.34,5.68,.09,8.53-.63,7.34-3.27,14.33-5.55,21.33-10.33,31.71-13.82,65.41-25.2,96.75-2.22,6.1-5.05,12.49-10.57,15.89-3.03,1.86-7.05,2.25-10.39,1.21,3.18,5.62,6.99,10.51,11.01,10.51,6.37-.29,12.38-12.61,15.99-20.61,4.4-9.75,7.35-20.09,10.07-30.44,6.88-26.21,12.34-52.8,16.35-79.6Z"/></g><g class="s"><path class="h" d="M262.83,340.48l.07,88.24c0,3.95,.1,8.21,2.44,11.4,.39,.53,.86,1.04,1.47,1.3,2.56,1.1,4.51-2.49,4.9-5.24,3.61-25.31-3.64-51.88,3.94-76.3,1.75-5.63,4.29-11.16,4.33-17.06,.11-13.86-17.15-18.57-17.14-2.34Z"/></g></g><g><path class="n" d="M176.71,21.29c1.24,1.22,2.49,2.55,3.75,4.01,1.26,1.46,2.33,3.02,3.23,4.67,1.42,2.63,2.16,5.47,2.22,8.52,.06,3.05-1.13,5.24-3.59,6.56-1.18,.64-2.32,.66-3.41,.05-1.09-.6-2-1.59-2.74-2.95-1.21-2.24-1.83-4.74-1.85-7.49-.02-2.75,.7-5.16,2.18-7.21-2.68-2.57-5.33-4.16-7.95-4.76-2.61-.6-4.88-.38-6.78,.65-1.73,.93-3.29,2.34-4.68,4.22-1.39,1.88-2.64,3.97-3.75,6.27-1.11,2.3-2.09,4.72-2.95,7.26-.86,2.54-1.65,4.88-2.37,7.03-2.23,6.74-4.21,13.29-5.95,19.63-1.74,6.35-3.2,12.77-4.39,19.26-1.19,6.49-2,13.15-2.42,19.98-.42,6.83-.39,13.95,.09,21.37,.42,6.44,.67,12.88,.75,19.31,.07,6.44,.58,12.93,1.53,19.46,.35,1.95,.75,4.16,1.2,6.62,.45,2.46,.79,4.89,1.02,7.28,.23,2.39,.18,4.52-.15,6.4-.34,1.88-1.18,3.19-2.55,3.92-.64,.34-1.42,.42-2.34,.23-.93-.19-1.7-.87-2.34-2.04-1.31-2.43-2.36-5.01-3.13-7.75-.77-2.73-1.47-5.49-2.1-8.3-.63-2.8-1.18-5.62-1.66-8.45-.47-2.83-1.09-5.61-1.86-8.33-3.55-13.3-7.22-26.63-11.03-39.98-3.81-13.35-6.66-26.68-8.57-39.99,.02,8.29,.3,16.7,.84,25.2,.55,8.51,.92,16.86,1.12,25.06,.2,8.19,.16,16.39-.11,24.58-.27,8.2-.61,16.37-1.02,24.52-.29,4.68-.61,9.36-.97,14.01-.36,4.66-.38,9.36-.05,14.09,.12,1.32,.06,2.61-.2,3.88-.25,1.27-1.02,2.25-2.29,2.93-1,.54-1.99,.51-2.96-.1-.97-.61-1.78-1.49-2.41-2.66-.95-1.75-1.64-3.58-2.08-5.48-.44-1.9-.75-3.84-.94-5.81s-.3-3.92-.34-5.85c-.04-1.92-.11-3.74-.21-5.45-.39-5.07-.95-10.12-1.66-15.14-.72-5.02-1.58-10.21-2.6-15.58-.98-4.63-1.85-9.41-2.63-14.33-.78-4.92-1.74-9.85-2.87-14.77-1.13-4.92-2.47-9.79-4.02-14.62-1.55-4.82-3.51-9.43-5.87-13.81-1-1.85-2.2-3.75-3.6-5.69-1.4-1.95-2.95-3.78-4.65-5.51-1.7-1.73-3.51-3.23-5.44-4.52-1.93-1.29-3.89-2.14-5.88-2.58l.79,1.46c2.11,3.9,3.62,8.01,4.56,12.35,.93,4.34,1.11,8.68,.52,13.02-.29,2.3-.72,4.7-1.3,7.21-.58,2.51-1.34,4.91-2.29,7.18-.95,2.27-2.1,4.38-3.46,6.31-1.36,1.93-3.04,3.44-5.05,4.52-3.09,1.67-6.39,2.13-9.91,1.39-3.51-.74-6.3-3.01-8.35-6.81-1-1.85-1.71-3.7-2.12-5.55-.41-1.85-.74-3.66-.99-5.41-5.08-1.15-9.68-3.04-13.8-5.66-4.12-2.62-7.17-5.78-9.17-9.48-1.68-3.11-2.58-6.25-2.7-9.39-.11-3.15,.38-6.15,1.48-9,1.1-2.86,2.79-5.5,5.06-7.92,2.27-2.42,5-4.49,8.18-6.21,3.36-1.82,7.09-2.95,11.2-3.41,1.26-.05,2.76-.05,4.5,.02,1.74,.07,3.57,.31,5.49,.71,1.92,.41,3.86,1.06,5.81,1.95,1.95,.9,3.7,2.12,5.25,3.68,1.65,.24,3.45,.31,5.39,.2,1.94-.1,3.75,.08,5.41,.57,4.72,1.35,9.14,4.09,13.25,8.22,4.11,4.13,7.51,8.68,10.19,13.65,2.21,4.09,4.13,8.68,5.77,13.77,1.63,5.09,3.11,10.49,4.43,16.19,1.64,7.17,3.23,14.45,4.76,21.86,1.54,7.41,2.92,14.87,4.16,22.37,.48-7.81,.73-15.65,.77-23.53,.03-7.88-.05-15.79-.23-23.74-.12-6.09-.39-12.24-.8-18.44-.41-6.19-.71-12.29-.9-18.29-.19-6-.12-11.91,.19-17.74,.31-5.83,1.11-11.48,2.38-16.95,.12-1.07,.22-2.26,.28-3.55,.07-1.29,.17-2.51,.31-3.66,.14-1.14,.39-2.16,.74-3.04,.35-.88,.84-1.49,1.48-1.83,1.18-.64,2.55-.59,4.12,.13,1.57,.73,2.77,1.87,3.61,3.43,.74,1.36,.94,2.83,.61,4.39-.67,4.64-.92,9.43-.77,14.38,.15,4.95,.59,10.06,1.32,15.32,.96,4.39,2.06,8.7,3.29,12.94,1.23,4.24,2.33,8.55,3.29,12.94,1.72,7.75,3.46,15.43,5.22,23.03,1.76,7.61,3.63,15.21,5.63,22.81-.32-5.36-.58-10.69-.8-15.98-.21-5.29-.34-10.57-.37-15.84-.07-6,.22-11.82,.88-17.45s1.56-11.13,2.73-16.47c1.16-5.35,2.47-10.58,3.93-15.71,1.46-5.13,2.97-10.25,4.55-15.38,.8-2.44,1.68-5.21,2.64-8.31,.97-3.1,2.11-6.14,3.44-9.12,1.32-2.98,2.87-5.73,4.62-8.25,1.75-2.52,3.81-4.42,6.17-5.69,2.45-1.33,5.08-1.74,7.88-1.24,2.8,.5,6.18,2.26,10.16,5.27ZM18.4,106.81c1.06,.44,2.22,.91,3.49,1.41,1.27,.51,2.62,.88,4.04,1.12,.27-3.42,.64-6.86,1.12-10.32,.48-3.47,1.25-6.81,2.33-10.03,1.08-3.22,2.51-6.23,4.29-9.02,1.78-2.78,4.13-5.28,7.05-7.49-1.93-.97-3.81-1.78-5.63-2.43-1.82-.65-3.71-1.04-5.66-1.19-1.95-.14-4.01,.03-6.16,.5-2.15,.47-4.5,1.39-7.05,2.77-2.63,1.42-4.8,3.13-6.49,5.11-1.69,1.98-2.96,4.08-3.82,6.31-.85,2.22-1.21,4.49-1.08,6.81,.14,2.32,.76,4.5,1.86,6.54,2.37,4.38,6.27,7.68,11.7,9.91Zm33.26-20.61c-.26-.49-.5-.98-.72-1.5-.22-.51-.46-1.01-.72-1.5-.47-.88-.89-1.59-1.25-2.15-.36-.56-1.18-.5-2.45,.19-1.55,.84-3.15,2.27-4.81,4.3-1.66,2.03-3.27,4.38-4.83,7.04-1.55,2.67-2.91,5.54-4.07,8.61-1.16,3.08-1.95,6.05-2.39,8.94,1.51,.19,2.98,.18,4.39-.02,1.42-.2,2.72-.62,3.9-1.26,1-.54,1.83-1.33,2.5-2.39,.67-1.05,1.36-1.77,2.09-2.17,.63-.34,1.27-.37,1.89-.08,.63,.29,1.1,.73,1.41,1.31,.37,.68,.41,1.41,.13,2.19-.28,.78-.73,1.53-1.35,2.24-.62,.71-1.32,1.37-2.1,1.98-.79,.61-1.5,1.09-2.13,1.43-1.54,.83-3.21,1.39-5,1.67-1.79,.28-3.72,.34-5.79,.2,.13,1.32,.38,2.66,.76,4.02,.39,1.37,.89,2.63,1.52,3.8,1.05,1.95,2.66,3.41,4.83,4.37,2.17,.97,4.43,.81,6.8-.46,2.55-1.38,4.64-3.64,6.28-6.79,1.64-3.15,2.81-6.71,3.49-10.66,.68-3.95,.84-8,.48-12.15-.36-4.14-1.32-7.87-2.87-11.18Z"/><path class="n" d="M205.03,123.59c.22-.65,.57-1.06,1.06-1.23,.59-.19,1.19-.1,1.81,.28,.62,.38,1.04,.94,1.29,1.67,.21,.63,.24,1.21,.08,1.72-1.59,5.07-3.5,10.14-5.75,15.19-2.25,5.06-4.92,9.82-8.01,14.28-3.09,4.46-6.71,8.42-10.84,11.89-4.13,3.46-8.95,6.11-14.44,7.92-3.24,1.07-6.43,1.05-9.57-.07-3.14-1.12-5.53-4.14-7.17-9.08-1.67-5.04-2.36-10.59-2.07-16.63,.29-6.04,.85-11.76,1.67-17.16,.53-3.67,1.3-7.51,2.31-11.52,1.01-4.01,2.37-7.8,4.07-11.4,1.7-3.59,3.87-6.81,6.51-9.67,2.65-2.86,5.98-4.95,10-6.28,2.35-.78,4.6-.91,6.73-.39s3.7,2.3,4.71,5.35c1.22,3.68,1.41,7.55,.58,11.61-.83,4.07-2.29,7.9-4.36,11.5-2.08,3.6-4.62,6.77-7.63,9.51-3.01,2.74-6.09,4.63-9.22,5.67-.79,.26-1.6,.42-2.46,.46-.86,.05-1.67,.2-2.46,.46-.53,3.67-.9,7.64-1.12,11.91-.22,4.27,.12,7.77,1.02,10.5,1.11,3.36,2.91,5.59,5.4,6.7,2.49,1.1,5.2,1.17,8.14,.19,2.06-.68,4.02-1.74,5.89-3.17,1.87-1.43,3.59-3.05,5.17-4.86,1.58-1.8,3.05-3.69,4.42-5.66,1.36-1.96,2.54-3.75,3.53-5.36,2.53-3.87,4.58-7.78,6.16-11.74,1.57-3.96,3.1-8.16,4.56-12.61Zm-22.77-20.97c-.3-.25-.59-.47-.88-.67-.28-.2-.72-.2-1.31,0-1.87,.62-3.59,1.65-5.17,3.11-1.59,1.46-3,3.18-4.25,5.17-1.25,1.99-2.37,4.11-3.37,6.36-1,2.25-1.8,4.42-2.43,6.49-.03,.24-.15,.87-.36,1.87-.21,1.01-.43,2.07-.66,3.19-.23,1.12-.44,2.13-.64,3.01-.2,.88-.35,1.34-.44,1.37,.52-.06,.98-.15,1.38-.28,.39-.13,.78-.26,1.18-.39,3.24-1.07,6.14-2.9,8.71-5.5s4.56-5.53,5.99-8.8c.19-.41,.5-1.21,.92-2.4,.42-1.19,.82-2.46,1.19-3.8s.65-2.72,.84-4.12c.19-1.4,.13-2.58-.19-3.52-.17-.53-.34-.88-.51-1.05Z"/><path class="n" d="M216.21,116.88c-.93,4-1.63,7.99-2.1,11.96-.47,3.97-.31,8.03,.46,12.16,.41,2.18,1.07,3.91,2,5.2,.92,1.29,2,2.24,3.22,2.86,1.22,.62,2.57,.96,4.05,1.01,1.48,.06,2.99-.05,4.51-.34,1.83-.34,3.95-1.25,6.35-2.71,2.41-1.46,4.84-3.35,7.29-5.67,2.46-2.32,4.83-4.96,7.11-7.92,2.28-2.96,4.27-6.12,5.95-9.47,.38-.75,.83-1.73,1.34-2.95,.51-1.22,1.02-2.41,1.54-3.58,.52-1.17,1.07-2.17,1.64-3.01,.58-.84,1.17-1.32,1.78-1.43s1.19,.06,1.75,.52c.56,.46,.9,1.01,1.02,1.67,.06,.33-.16,1.1-.67,2.32-.51,1.22-1.14,2.61-1.9,4.16-.76,1.55-1.55,3.08-2.38,4.58s-1.52,2.71-2.09,3.6c-1.71,2.68-3.75,5.54-6.12,8.58-2.38,3.04-4.96,5.91-7.77,8.63-2.8,2.72-5.77,5.11-8.91,7.16-3.14,2.05-6.28,3.37-9.43,3.96-4.37,.82-8.44-.14-12.21-2.87-3.77-2.73-6.22-7.14-7.36-13.23-.73-3.92-.97-8.15-.72-12.7,.25-4.55,.76-9.15,1.52-13.79,.76-4.64,1.66-9.26,2.69-13.84,1.03-4.58,2.01-8.93,2.92-13.04,1.66-7.97,3.22-15.94,4.67-23.93,1.45-7.98,3.23-15.89,5.34-23.71,.93-3.44,2.34-7.45,4.22-12.02,1.88-4.57,3.92-8.95,6.13-13.14,2.21-4.18,4.43-7.78,6.65-10.79,2.22-3,4.2-4.67,5.92-4.99,1.22-.23,2.41-.05,3.56,.52,1.16,.57,2.23,1.38,3.22,2.44,.99,1.06,1.85,2.3,2.59,3.74,.74,1.44,1.25,2.86,1.51,4.28,.59,3.16,.66,6.32,.2,9.5-.46,3.18-1.17,6.38-2.14,9.61-.97,3.22-2.07,6.38-3.27,9.48-1.21,3.1-2.24,6.02-3.09,8.77-3.86,11.98-8.6,23.68-14.25,35.09-5.64,11.42-11.23,22.54-16.78,33.37Zm5.99-31.18c-.41,2.33-.84,4.66-1.29,7-.46,2.34-.89,4.67-1.29,7,4.51-9.06,8.9-18.27,13.2-27.63,4.29-9.36,8.03-19.01,11.22-28.95,.79-2.51,1.73-5.19,2.83-8.04,1.1-2.85,2.09-5.68,2.98-8.5,.89-2.81,1.59-5.53,2.1-8.16,.51-2.63,.56-5.03,.15-7.21-.39-2.07-1.04-3.01-1.95-2.84-.61,.11-1.26,.57-1.95,1.38-.69,.81-1.37,1.69-2.03,2.66-.66,.97-1.25,1.9-1.77,2.78-.52,.89-.91,1.47-1.17,1.74-2.9,3.58-5.51,8.07-7.81,13.45-2.3,5.39-4.32,11.19-6.04,17.43-1.73,6.23-3.19,12.62-4.38,19.14-1.2,6.53-2.13,12.78-2.8,18.76Z"/><path class="n" d="M326.66,109.92c.38-.79,.98-1.2,1.81-1.24,.62-.02,1.2,.2,1.73,.68,.54,.48,.82,.99,.84,1.54,.02,.55-.11,1-.41,1.34-3.01,5-6.16,9.66-9.45,14-3.29,4.34-6.99,8.17-11.1,11.49-4.11,3.32-8.73,6-13.87,8.03-5.14,2.03-11.12,3.18-17.93,3.46-2.69,.11-5.33-.04-7.93-.43-2.6-.39-4.94-1.27-7.01-2.63-2.07-1.36-3.78-3.28-5.12-5.78-1.34-2.49-2.09-5.84-2.26-10.04-.18-4.42,.47-8.93,1.94-13.53,1.47-4.6,3.46-9.08,5.98-13.45,2.51-4.36,5.4-8.46,8.66-12.31,3.26-3.84,6.59-7.24,9.99-10.2,3.4-2.96,6.74-5.31,10.03-7.05,3.29-1.74,6.23-2.66,8.81-2.76,1.03-.04,2.04,0,3.03,.13,.99,.13,1.85,.48,2.6,1.06,.75,.58,1.35,1.47,1.81,2.67,.46,1.2,.73,2.85,.82,4.95,.06,1.55-.13,3.19-.58,4.92-.45,1.74-1.39,2.63-2.84,2.69-.52,.02-.89-.27-1.12-.87-.23-.6-.36-1.29-.39-2.06-.02-.44,0-.83,.03-1.16,.04-.33,.05-.72,.03-1.16-.07-1.77-.67-2.63-1.81-2.59-1.45,.06-2.95,.73-4.5,2.01-1.55,1.28-3.04,2.34-4.45,3.17-3.93,2.48-7.59,5.48-10.96,8.99-3.38,3.51-6.32,7.4-8.84,11.65-2.52,4.25-4.51,8.85-5.96,13.78-1.46,4.93-2.24,10.06-2.33,15.38,.11,2.76,.76,4.79,1.95,6.07,1.19,1.28,2.59,2.17,4.22,2.66,1.62,.49,3.31,.7,5.07,.63,1.75-.07,3.25-.13,4.49-.18,5.88-.23,11.06-1.36,15.53-3.36,4.47-2.01,8.48-4.58,12.02-7.71,3.54-3.13,6.71-6.66,9.5-10.6,2.79-3.93,5.44-8,7.97-12.2Z"/><path class="n" d="M389.11,124.14c.55-1.16,1.4-1.67,2.53-1.53,.62,.07,1.15,.33,1.62,.78,.46,.45,.65,1.06,.56,1.82-.04,.33-.13,.6-.25,.81-1.14,2.54-2.67,5.28-4.58,8.22s-4.07,5.7-6.46,8.25c-2.39,2.55-4.98,4.61-7.77,6.17-2.79,1.56-5.62,2.16-8.49,1.82-3.8-.46-6.84-2.19-9.13-5.2-2.29-3.01-3.98-6.47-5.07-10.39-1.53,1.49-3.25,3.01-5.16,4.56-1.9,1.55-3.87,2.93-5.88,4.14-2.02,1.21-4.06,2.13-6.11,2.77-2.06,.65-4.06,.85-6.01,.61-3.28-.4-5.89-1.85-7.82-4.37-1.93-2.52-2.62-6.14-2.04-10.86,.62-5.16,2.19-10.41,4.71-15.73,2.52-5.32,5.66-10.49,9.44-15.5,3.78-5,8.04-9.67,12.77-14.01,4.74-4.33,9.65-8.14,14.73-11.43,.23-.19,.75-.58,1.54-1.15,.8-.57,1.7-1.13,2.7-1.68,1-.55,1.97-1.04,2.91-1.49,.94-.44,1.66-.64,2.18-.57,.51,.06,.92,.17,1.21,.31l.31,.04c.51,.06,.91,.25,1.18,.56,.27,.31,.55,.65,.81,1.02l.62,.07c1.33,.16,2.4,.82,3.2,1.97,.8,1.16,1.36,2.5,1.7,4.05,.33,1.54,.5,3.15,.51,4.83,0,1.67-.07,3.17-.23,4.49-.5,4.18-1.58,8.31-3.21,12.4-1.64,4.09-3.57,8.01-5.79,11.76-2.22,3.75-4.57,7.25-7.05,10.52-2.48,3.27-4.85,6.1-7.11,8.5,.65,3.2,1.82,6.27,3.5,9.2,1.67,2.94,3.9,4.57,6.67,4.9,2.15,.26,4.35-.25,6.59-1.55,2.24-1.29,4.37-2.98,6.39-5.08,2.02-2.1,3.89-4.41,5.6-6.93,1.71-2.52,3.11-4.89,4.21-7.1Zm-38.38,3.73c-.72-5.21-.72-10.84,0-16.89,.42-3.52,1.09-6.86,1.99-10.04,.9-3.18,2.02-6.42,3.36-9.71-2.9,2.44-5.86,5.26-8.9,8.46-3.04,3.2-5.85,6.65-8.43,10.35-2.58,3.7-4.78,7.51-6.61,11.41-1.83,3.91-2.96,7.73-3.41,11.46-.19,1.54,.3,2.88,1.47,4.02,1.16,1.14,2.62,1.82,4.36,2.03,1.64,.2,3.26-.08,4.86-.83,1.6-.75,3.09-1.69,4.48-2.8,1.38-1.11,2.67-2.27,3.85-3.46,1.18-1.2,2.24-2.18,3.17-2.96-.08-.23-.11-.4-.09-.51,.01-.11-.02-.28-.09-.51Zm8.01-30.13c-.81,2.36-1.48,4.73-2.03,7.11-.55,2.39-.97,4.84-1.28,7.37-.45,3.74-.51,7.69-.18,11.85,2.06-2.43,4.15-5.1,6.28-8.02,2.12-2.92,4.07-5.92,5.85-8.99,1.78-3.07,3.3-6.23,4.58-9.48,1.28-3.25,2.11-6.46,2.49-9.65,.16-1.32,.31-3.03,.46-5.13,.15-2.1-.18-3.7-.98-4.8-.91,1.45-2.16,2.61-3.78,3.47-1.61,.87-3.16,1.77-4.62,2.7-.69,.58-1.4,1.45-2.11,2.59-.71,1.14-1.35,2.37-1.93,3.7-.58,1.33-1.1,2.63-1.56,3.91-.47,1.28-.86,2.4-1.19,3.37Z"/><path class="n" d="M486.24,142.45c.63-.61,1.34-.79,2.13-.53,.59,.19,1.06,.58,1.42,1.16,.35,.58,.41,1.24,.17,1.98-.17,.53-.41,.92-.71,1.17-2.17,1.97-4.34,3.82-6.53,5.55-2.19,1.73-4.45,3.5-6.78,5.3-2.12,1.52-4.68,3.28-7.67,5.27-2.99,2-6.22,3.76-9.71,5.31-3.49,1.54-7.06,2.65-10.7,3.33-3.64,.67-7.14,.47-10.47-.62-1.67-.54-3.01-1.5-4.03-2.88-1.02-1.38-1.13-3.28-.35-5.7,.41-1.26,1-2.5,1.77-3.7,.77-1.2,1.59-2.3,2.46-3.3,4.68-5.69,9.53-11.01,14.56-15.95,5.03-4.94,9.81-10.04,14.36-15.32,1.57-1.82,3.06-3.66,4.49-5.52,1.42-1.86,2.56-4.11,3.42-6.74,.38-1.16,.59-2.22,.63-3.2,.04-.97-.33-1.59-1.11-1.85-.59-.19-1.27-.18-2.05,.03-.78,.21-1.55,.51-2.33,.9-.78,.39-1.52,.82-2.21,1.29-.7,.47-1.24,.82-1.64,1.04-4.57,2.7-8.91,5.83-13,9.39-4.09,3.56-7.81,7.47-11.15,11.73-2.57,2.89-5.17,5.71-7.81,8.46-2.63,2.75-5.38,5.52-8.25,8.31-.77,.68-1.91,1.77-3.42,3.25-1.52,1.49-3.18,2.92-4.99,4.31-1.81,1.39-3.63,2.54-5.45,3.46-1.82,.92-3.37,1.17-4.65,.76-.79-.26-1.4-.78-1.85-1.56-.45-.79-.52-1.65-.21-2.6,.34-1.05,1.06-2.19,2.17-3.4,1.1-1.21,2.3-2.39,3.6-3.54,1.3-1.15,2.56-2.19,3.79-3.13,1.23-.94,2.14-1.66,2.74-2.16,10.02-9.42,19.32-19.49,27.92-30.19,1.07-1.28,2.21-2.71,3.44-4.29,1.22-1.58,2.14-3.15,2.75-4.69,.27-.84,.38-1.65,.3-2.43s-.5-1.3-1.29-1.55c-.49-.16-.99-.15-1.48,.04-4.63,1.52-8.7,3.45-12.24,5.79-3.53,2.34-6.82,5.17-9.85,8.49-4.91,5.39-9.67,10.44-14.3,15.16-4.63,4.72-9.35,9.61-14.15,14.68-.67,.72-1.44,1.57-2.3,2.57-.87,1-1.79,1.92-2.77,2.76-.98,.84-1.99,1.53-3.04,2.07-1.04,.53-2.01,.66-2.89,.37-.88-.29-1.68-.92-2.39-1.91-.71-.99-.81-2.27-.3-3.85,.31-.95,.89-1.98,1.74-3.1s1.83-2.2,2.93-3.24c1.1-1.04,2.16-2.03,3.17-2.98,1.02-.95,1.9-1.76,2.67-2.45,2.27-2.29,4.59-4.59,6.97-6.9,2.38-2.31,4.72-4.66,7.02-7.05,2.2-2.42,4.36-4.87,6.46-7.32,2.1-2.46,4.29-4.83,6.55-7.12,.8-.79,1.68-1.66,2.65-2.63,.97-.96,1.91-1.94,2.83-2.92,.92-.98,1.74-1.93,2.48-2.86,.73-.92,1.22-1.75,1.46-2.49,.24-.74,.17-1.26-.23-1.56-.39-.3-.73-.5-1.03-.6-.88-.29-1.85,.1-2.9,1.15-1.05,1.05-2.12,1.93-3.22,2.62-4.3,4.54-8.9,8.89-13.78,13.06-4.89,4.17-9.82,8.06-14.8,11.68-.7,.47-1.29,.63-1.78,.47-.49-.16-.89-.61-1.19-1.35-.3-.74-.33-1.47-.09-2.21,.21-.63,.58-1.09,1.1-1.39,3.42-2.49,6.7-5.06,9.84-7.71,3.14-2.64,6.28-5.43,9.41-8.37,1.6-1.58,3.43-3.36,5.5-5.37,2.06-2,4.27-3.85,6.61-5.53,2.34-1.68,4.69-2.98,7.06-3.9,2.36-.92,4.67-1.01,6.93-.27,.49,.16,1.05,.43,1.69,.81,.63,.38,1.2,.89,1.71,1.52,.5,.63,.85,1.38,1.06,2.26,.2,.88,.12,1.9-.26,3.06-.62,1.89-1.48,3.53-2.58,4.92,2.75-1.43,5.85-2.69,9.3-3.78,3.45-1.09,6.45-1.22,9.01-.39,2.06,.67,3.34,1.93,3.82,3.78,.48,1.85,.35,3.93-.4,6.24-.17,.53-.33,1-.46,1.42-.14,.42-.34,.88-.61,1.37,1.66-1.09,3.4-2.12,5.24-3.09,1.84-.97,3.65-1.78,5.43-2.42,1.78-.64,3.5-1.07,5.15-1.29,1.65-.22,3.11-.12,4.39,.29,2.16,.7,3.42,2.16,3.79,4.38,.36,2.21,.14,4.58-.68,7.11-1.33,4.1-3.37,7.87-6.11,11.28-2.74,3.42-5.6,6.85-8.57,10.3-3.51,4.09-7.06,8-10.66,11.72-3.6,3.72-7.28,7.52-11.05,11.42-.67,.72-1.65,1.73-2.95,3.05-1.3,1.32-2.15,2.62-2.57,3.88-.48,1.47,.11,2.48,1.79,3.02,2.36,.77,5.35,.43,8.97-1.01,3.62-1.44,7.43-3.4,11.45-5.88,4.01-2.48,7.93-5.27,11.78-8.39,3.84-3.12,7.16-5.96,9.95-8.54Z"/><path class="n" d="M535.28,171.77c.63-.29,1.17-.31,1.62-.06,.54,.3,.89,.8,1.03,1.51,.14,.71,.03,1.4-.34,2.08-.32,.58-.72,1-1.2,1.23-4.79,2.3-9.8,4.36-15.03,6.16-5.23,1.81-10.53,3.11-15.9,3.89-5.37,.78-10.74,.85-16.09,.19-5.35-.66-10.57-2.37-15.64-5.15-2.99-1.63-5.15-3.98-6.48-7.04-1.33-3.06-.75-6.87,1.75-11.44,2.55-4.66,6.13-8.95,10.74-12.86,4.61-3.91,9.17-7.41,13.68-10.49,3.04-2.12,6.37-4.18,10-6.17,3.62-1.99,7.32-3.6,11.11-4.81,3.78-1.21,7.62-1.82,11.51-1.84,3.89-.01,7.7,.99,11.42,3.02,2.18,1.19,3.8,2.74,4.88,4.65,1.08,1.91,.84,4.28-.7,7.09-1.86,3.4-4.56,6.18-8.09,8.35-3.54,2.17-7.33,3.72-11.38,4.66-4.05,.94-8.1,1.25-12.16,.92-4.06-.33-7.54-1.28-10.44-2.87-.73-.4-1.4-.89-2.02-1.48-.62-.59-1.29-1.08-2.02-1.48-3.04,2.12-6.2,4.56-9.47,7.31-3.27,2.75-5.6,5.39-6.98,7.92-1.7,3.11-2.1,5.95-1.21,8.51,.89,2.57,2.7,4.6,5.42,6.08,1.9,1.04,4.01,1.75,6.34,2.14,2.32,.39,4.68,.54,7.08,.46,2.4-.08,4.78-.29,7.15-.63,2.37-.34,4.48-.71,6.33-1.08,4.55-.79,8.81-1.96,12.78-3.51,3.97-1.55,8.08-3.31,12.33-5.27Zm-.21-30.95c-.02-.39-.06-.76-.11-1.1-.05-.34-.34-.66-.89-.96-1.72-.94-3.66-1.49-5.8-1.66-2.15-.16-4.38-.03-6.68,.42-2.3,.44-4.62,1.07-6.94,1.88-2.33,.81-4.46,1.7-6.4,2.65-.2,.15-.74,.48-1.61,1.01-.88,.53-1.81,1.09-2.78,1.7-.98,.6-1.86,1.13-2.63,1.59-.78,.46-1.22,.66-1.31,.61,.4,.35,.78,.62,1.14,.81,.36,.2,.72,.4,1.09,.59,2.99,1.64,6.31,2.5,9.97,2.61,3.65,.1,7.16-.44,10.52-1.63,.43-.14,1.23-.46,2.38-.97,1.16-.5,2.36-1.08,3.59-1.73,1.24-.65,2.43-1.38,3.59-2.2,1.15-.82,1.97-1.67,2.45-2.54,.26-.48,.4-.85,.42-1.09Z"/></g></g></g></svg>