<?xml version="1.0" encoding="UTF-8"?><svg xmlns="http://www.w3.org/2000/svg" viewBox="0 0 747.01 801.03"><defs><style>.d{fill:#eadec5;}.e{fill:#e8b667;}.f{fill:#fff;}.g{fill:#fff1d2;}.h{fill:#ffcb6e;}.i{fill:#849496;}.j{fill:#917061;}.k{fill:#d1ad8c;}.l{fill:#e25a52;}.m{fill:#e26d52;}.n{fill:#15857f;}.o{fill:#0e5955;}.p{fill:#3f3c36;}.q{fill:#717e7f;}.r{fill:#755b4e;}</style></defs><g id="a"/><g id="b"><g id="c"><g><path class="k" d="M272.61,707.36c-6.36,1.22-12.85,2.54-18.46,5.78-5.61,3.24-10.3,8.79-10.78,15.26-.53,7.12,4.16,13.83,10.15,17.72,5.99,3.9,13.12,5.54,20.1,7.1,9.54,2.15,19.08,4.29,28.62,6.44,6.22,1.4,12.98,3.13,16.8,8.24,2.39,3.2,3.27,7.3,5.49,10.62,4.45,6.64,13.11,8.71,20.97,10.16,68.51,12.62,139.1,17.12,207.89,6.1,19.18-3.07,38.71-7.57,54.71-18.58,10.92-7.51,20.3-19.19,20.06-32.44-.22-12.08-8.58-22.87-18.95-29.05-10.37-6.18-22.55-8.5-34.51-10.18-26.28-3.69-52.85-4.79-79.36-6.12-9.05-.46-18.3-1-27.05-3.54-6.55-1.9-12.04-6.26-18.46-8.12-16.36-4.73-39.94,1.43-56.72,3.1-40.4,4.02-80.62,9.86-120.5,17.52Z"/><path class="o" d="M325.59,222.28c-17.16-1.81-34.69-1.84-51.48,2.12-32.99,7.78-61.17,30.36-94.37,37.19-26.98,5.55-55.29,.12-80.78-10.33-3.24,23.33,3.89,47.9,19.11,65.88,1.17,1.38,2.4,2.74,3.9,3.73,1.92,1.27,4.19,1.89,6.43,2.42,33.42,7.88,69.39-.5,98.73-18.32,17.66-10.73,33.98-25.05,54.21-29.32,11.05-2.33,22.47-1.45,33.76-1.63,11.29-.18,23.06-1.61,32.45-7.87,10.26-6.84,17.21-21.71,9.71-32.99-5.95-8.95-21.94-9.85-31.67-10.88Z"/><path class="j" d="M452.66,676.69h104.86c7.75,0,14.04,6.29,14.04,14.04v35.2h-132.94v-35.2c0-7.75,6.29-14.04,14.04-14.04Z"/><path class="j" d="M483.91,365.08c-7.33,25.73-7.14,52.91-7.36,79.66-.74,90.18-6.76,180.25-15.66,269.99-.29,2.93-.3,6.49,2.17,8.09,1.04,.67,2.32,.83,3.55,.96,29.51,3.23,59.42,2.82,88.84-1.21-19.21-122.78-20.59-247.83-40.11-370.56-4.68-29.42-27.22-1.7-31.42,13.06Z"/><path class="l" d="M328.73,692.31c.29,3.41,.57,6.99-.74,10.11-1.31,3.12-6.5-1.89-9.51-3.2-6.51-58.02-10.21-108.8-14.49-167.04-.46-6.22-.72-13.1,2.95-17.96,3.64-4.82,10.91-6.01,15.83-2.59,9.49,6.58,2.34,19.78,1.76,28.88-1.08,16.91-.7,34.13-.55,51.08,.29,33.61,1.88,67.22,4.76,100.72Z"/><path class="l" d="M354.56,695.37c18,2.17,31.31,3.55,49.41,2.51-8.09,3.68-13.38,6.01-17.92,10.35,7.29,3.49,18.89,9.65,26.18,13.13-12.31,1.85-24.63,3.71-36.94,5.56,3.46,5.4,6.91,10.79,10.37,16.19-18.15-10.14-36.29-20.28-54.44-30.42-5.09-2.84-10.47-5.99-13.06-11.21-3.2-6.47-.16-14.74,7.45-11.6,8.29,3.42,19.78,4.4,28.94,5.5Z"/><path class="m" d="M363.18,725.06c.29,3.41,.57,6.99-.74,10.11-1.31,3.12-6.5-1.89-9.51-3.2-6.51-58.02-10.21-108.8-14.49-167.04-.46-6.22-.72-13.1,2.95-17.96,3.64-4.82,10.91-6.01,15.83-2.59,9.49,6.58,2.34,19.78,1.76,28.88-1.08,16.91-.7,34.13-.55,51.08,.29,33.61,1.88,67.22,4.76,100.72Z"/><path class="m" d="M389.01,728.11c18,2.17,31.31,3.55,49.41,2.51-8.09,3.68-13.38,6.01-17.92,10.35,7.29,3.49,18.89,9.65,26.18,13.13-12.31,1.85-24.63,3.71-36.94,5.56,3.46,5.4,6.91,10.79,10.37,16.19-18.15-10.14-36.29-20.28-54.44-30.42-5.09-2.84-10.47-5.99-13.06-11.21-3.2-6.47-.16-14.74,7.45-11.6,8.29,3.42,19.78,4.4,28.94,5.5Z"/><path class="d" d="M325.74,567.32c2.07,7.53,4.55,15.26,9.79,21.06,5.24,5.8,13.97,9.15,21.09,5.95,5.79-2.6,9.11-8.65,11.85-14.37,7.6-15.84,14.03-32.59,15.34-50.12,.3-4.03,.29-8.24-1.44-11.88-3.6-7.55-13.02-9.98-21.3-11.11-10.2-1.39-20.66-2.37-30.96-2.14-6.91,.16-13.21,.92-14.24,8.77-1.03,7.82,1.74,17.05,3.16,24.65,1.84,9.82,4.07,19.56,6.72,29.19Z"/><path class="d" d="M229.31,560.02c2.07,7.53,4.55,15.26,9.79,21.06,5.24,5.8,13.97,9.15,21.09,5.95,5.79-2.6,9.11-8.65,11.85-14.37,7.6-15.84,14.03-32.59,15.34-50.12,.3-4.03,.29-8.24-1.44-11.88-3.6-7.55-13.02-9.98-21.3-11.11-10.2-1.39-20.66-2.37-30.96-2.14-6.91,.16-13.21,.92-14.24,8.77-1.03,7.82,1.74,17.05,3.16,24.65,1.84,9.82,4.07,19.56,6.72,29.19Z"/><path class="r" d="M522.8,411.02c-2.65-11.47-5.31-23.03-5.63-34.8,3.99-1.38,6.95,3.74,8.08,7.81,6.69,24.02,13.39,48.04,20.08,72.06,2.19,7.87,22.57,62.66,17.58,66.87-13.03,11-21.72-32.25-22.63-36.22-5.83-25.24-11.66-50.47-17.48-75.71Z"/><path class="r" d="M554.26,375.6c-9.26-7.27-18.59-14.6-26.23-23.56,2.24-3.58,7.75-1.45,11.19,1.01,20.29,14.5,40.57,29,60.86,43.5,6.65,4.75,56.9,34.61,55.66,41.02-3.24,16.74-37.15-11.48-40.35-13.99-20.38-15.99-40.75-31.98-61.13-47.97Z"/><path class="r" d="M519.95,315.1c-2.07,11.59-4.17,23.27-8.5,34.22-4.21-.3-4.92-6.17-4.36-10.35,3.28-24.72,6.56-49.44,9.84-74.15,1.08-8.1,3.86-66.49,10.1-68.4,16.31-5,7.3,38.19,6.58,42.2-4.56,25.5-9.11,51-13.67,76.49Z"/><path class="r" d="M626.89,181.35c3.24-4.52,6.84-9.04,11.8-11.55s11.64-2.44,15.49,1.58c2.81,2.94,3.58,7.39,2.87,11.39-.7,4-2.69,7.66-4.79,11.14-9.94,16.49-23.07,30.8-36.39,44.7-2.02,2.1-4.1,4.25-6.75,5.48-2.64,1.23-6,1.36-8.29-.43-6.59-5.16,4.42-23.95,6.88-29.3,5.32-11.58,11.75-22.66,19.18-33.01Z"/><path class="r" d="M511.16,534.03c-93.04,0-168.74-75.69-168.74-168.74s75.69-168.74,168.74-168.74,168.74,75.69,168.74,168.74-75.69,168.74-168.74,168.74Zm0-317.47c-82.01,0-148.74,66.72-148.74,148.74s66.72,148.74,148.74,148.74,148.74-66.72,148.74-148.74-66.72-148.74-148.74-148.74Z"/><path class="g" d="M225.84,332.69c-28.21,34.69-41.41,81.09-86.7,167.36-11.56,22.01,4.31,35.3,5.36,60.13,.6,14.16,2.47,28.55,8.53,41.37,11.59,24.5-15.35,21.5,11.59,24.5s37.89-14.1,64.84-16.85c39.68-4.04,83.85-30.88,107.75-43.65,47-25.12,76.35-51.21,101.69-83.16,15.26-19.24,29.99-39.17,40.38-61.42,8.36-17.92,13.8-37.21,16.03-56.86,4.05-35.67-3.87-74.73-29.85-99.5-14.05-13.4-32.25-21.64-50.7-27.69-71.78-23.54-148.74,46.36-188.93,95.78Z"/><path class="g" d="M482.76,164.3c-1.62-21.44-4.21-43.03-11.4-63.29-7.19-20.26-19.36-39.29-37.04-51.52-8.51-5.88-18.11-10.08-28.03-13-26.07-7.67-56.74-5.59-77.07,12.45-17.66,15.67-24.55,42.38-16.68,64.64,7.87,22.26,30.03,38.7,53.61,39.79,2.34,18.22-11.53,52.63-18.37,70.86-2.91,7.75-20.56,114.84-4.49,128.79,11.36,9.87,8.66-25.96,22.46-19.93,21.12,9.23,45.33,13.61,67.32,6.73,28.28-8.85,61.41,38.4,63.22,9.43,2.3-36.75-10.74-148.03-13.52-184.95Z"/><path class="h" d="M331.02,127.74c.67-6.19,2.18-12.59,5.05-16.31,.99-1.28-13.32-30.02-14.64-33.55-4.56-12.14-9.65-7.23-20.22-3.26-24.39,9.16-48.8,18.26-73.2,27.38-10.24,3.83-20.91,7.95-28.17,16.14-12.2,13.78-11.15,34.57-7.93,52.69-.85-4.35,1.45-8.84,4.79-11.74,3.35-2.9,7.6-4.5,11.79-5.94,38.69-13.21,81.38-11.1,122.12-14.49-.12-3.03-.03-6.93,.41-10.93h0Z"/><path class="e" d="M292.26,113.79c-21.95,4.15-43.99,8.38-65.04,15.86-7.48,2.66-14.9,5.76-21.25,10.52s-11.61,11.33-13.49,19.04c4.19-7.96,11.29-14.1,19.19-18.39,7.9-4.3,16.6-6.88,25.33-9.06,29.65-7.4,60.17-10.43,90.39-14.94,2.85-.43,5.85-.93,8.1-2.73,.89-.71,1.66-1.69,1.73-2.83,.3-4.71-17.41-1.81-20.45-1.46-8.23,.93-16.37,2.46-24.5,4Z"/><g><path class="p" d="M354.13,76.06c.59,.73,1.11,1.53,1.46,2.4,1.55,3.86-.54,8.45-3.91,10.89-2.74,1.98-6.68,2.76-9.49,.89-.71-.47-1.31-1.09-1.84-1.75-2.22-2.77-3.2-6.66-2.02-10.01,2.3-6.51,11.67-7.53,15.81-2.42Z"/><path class="f" d="M350.99,77.53c1.19,1.07,2,2.71,1.65,4.27-.35,1.56-2.17,2.76-3.63,2.1-1.45-.65-1.87-2.61-3.24-3.41-.91-.53-2.13-.47-2.87-1.22-1.79-1.79,.88-3.23,2.37-3.48,1.99-.34,4.25,.38,5.73,1.72Z"/></g><path class="i" d="M328.78,63.89c-.04-.99,.87-1.72,1.68-2.28,4.58-3.15,9.18-6.31,14.22-8.65,5.34-2.48,11.99-4.47,17.92-3.22,4.18,.88,8.82,4.88,5.29,9.3-2.81,3.51-39.14,3.85-39.11,4.85Z"/><path class="d" d="M376.57,151.67c13.13-3.73,25.62-10.85,33.86-21.73-8.35,27.68-26.7,52.99-52.45,66.14,2.29-1.17,3.95-10.81,4.54-13.22,1.16-4.74,1.88-9.58,2.15-14.45,.13-2.33,.15-4.66,.07-7-.06-1.69-1.16-5.51-.42-7.01,1.17-2.36,9.33-1.89,12.24-2.72Z"/><path class="n" d="M400.01,.29c20.6-2.42,55.33,10.9,62.11,28.22,5.07,12.94,2.94,28.26-2.62,41.24-.74,1.74-1.69,3.56-3.38,4.47-1.2,.65-2.61,.75-3.97,.81-17.94,.86-36.13-.87-52.81-6.96-8.96-3.27-17.44-7.84-24.91-13.68-5.28-4.13-14.8-11.31-16.45-18.17-1.68-6.97,8.33-16.34,12.59-21.2,7.04-8.01,18.81-13.48,29.43-14.72Z"/><path class="o" d="M354.87,36.7c2.19,3.93,5.38,7.2,8.69,10.25,7.64,7.04,16.17,13.18,25.55,17.65,13.83,6.59,29.11,9.4,44.25,11.73,8.93,1.37,18.19,2.58,26.9,.16,1.19-.33,2.39-.74,3.37-1.49,1.31-1,2.11-2.51,2.74-4.03,1.85-4.48,2.48-9.45,1.81-14.25-.15-1.07-.43-2.24-1.32-2.84-.73-.49-1.69-.47-2.57-.44-16.32,.57-32.52-3.09-48.02-8.2-7.28-2.4-14.45-5.12-21.51-8.1-9.38-3.96-19.02-8.75-24.7-17.2-1.14-1.7-2.29-3.68-4.26-4.24-1.36-.39-2.82,0-4.13,.53-9.33,3.82-11.61,11.87-6.8,20.48Z"/><path class="d" d="M606.39,220.9c15.47-19.13,30.05-43.56,54.44-46.77,15.27,3.86-7.85,37.17-16.19,54.17,11.56-8.46,25.32-37.36,29.99-30.49,3.02,20.7-9.12,40.26-20.73,57.66-8.06,12.08-16.13,24.16-24.19,36.25,9.87-6.55,24.33-21.76,29.61-19.66,9.79,5.31-11.73,21.64-19.32,31.3,5.13-3.15,10.75-5.51,16.59-6.97,1.85-.46,3.94-.81,5.58,.18,3.14,1.89,2.15,6.64,.67,10-15.54,35.21-40.91,65.2-68.33,92.2-33.56,33.05-71.13,62.72-113.94,82.37-42.81,19.64-91.28,28.83-137.62,20.4-20.67-3.76-42.53-12.47-52.28-31.08-4.94-9.43-6.17-20.4-5.91-31.04,.97-39.39,21.62-76.91,51.53-102.55,36.93-31.64,90.55-48.88,138.57-51.17,50.51-2.41,99.48-25.17,131.52-64.8Z"/><path class="q" d="M91.75,539.13c-20.27,24.6-40.71,49.47-54.94,77.99-.83,1.67-1.66,3.54-1.15,5.33,1.86,6.52,12.13-.82,18.53,1.39-23.3,23.42-41.84,51.55-54.2,82.19,3.83,3.86,10.33,1.57,15.14-.98,30-15.91,59.01-33.69,86.8-53.2-8.31,8.2-15.52,17.52-21.38,27.61-.96,1.65-1.91,3.48-1.6,5.36,.83,5.02,8.25,4.49,12.9,2.45,16.03-7.02,31.2-15.98,45.07-26.63-3.21,2.61-5,6.89-4.6,11.01,33.18-19.54,65.59-40.38,97.13-62.46-10.72,1.16-21.99,2.25-31.92-1.95-9.93-4.2-17.68-15.64-13.94-25.75-9.79,.72-23.07-1.31-23.97-11.08-.25-2.74,.7-5.44,1.69-8.02,7.94-20.65,19.53-39.9,34.07-56.57-10.81,6.61-21.62,13.22-32.43,19.83-4.31,2.64-9.29,5.38-14.16,4.02-9.75-2.73-8.45-16.97-4.5-26.29,12.98-30.58,27.81-79.48,44.84-106.88-17.23,22.9-76.6,117.4-97.39,142.64Z"/><path class="r" d="M527.47,144.55c.9-5.49,2.12-11.14,5.45-15.59,3.33-4.45,9.35-7.35,14.58-5.46,3.82,1.38,6.48,5.04,7.63,8.94,1.15,3.9,.99,8.05,.66,12.11-1.59,19.19-7.01,37.84-12.77,56.21-.87,2.78-1.79,5.63-3.61,7.9-1.82,2.27-4.77,3.88-7.63,3.29-8.19-1.7-6.67-23.43-6.84-29.3-.37-12.74,.47-25.52,2.53-38.1Z"/><path class="r" d="M719.35,291.99c5.34-1.55,10.97-2.88,16.42-1.78,5.45,1.1,10.66,5.28,11.2,10.82,.4,4.05-1.76,8.02-4.79,10.73-3.03,2.71-6.85,4.36-10.65,5.8-18.01,6.81-37.17,9.94-56.24,12.63-2.89,.41-5.85,.8-8.69,.14-2.84-.67-5.56-2.64-6.25-5.47-1.99-8.13,18.28-16.09,23.52-18.77,11.34-5.81,23.24-10.54,35.49-14.09Z"/><path class="r" d="M713.11,454.82c4.96,2.51,9.98,5.37,13.22,9.89,3.24,4.52,4.19,11.13,.82,15.55-2.47,3.23-6.75,4.67-10.82,4.59-4.06-.08-7.98-1.48-11.74-3.02-17.82-7.3-33.97-18.08-49.75-29.11-2.39-1.67-4.83-3.4-6.45-5.83-1.62-2.42-2.27-5.72-.84-8.26,4.09-7.3,24.35,.7,30,2.3,12.26,3.48,24.19,8.14,35.56,13.89Z"/><path class="r" d="M589.53,572.53c1.63,5.32,3.04,10.92,2.03,16.39-1.02,5.47-5.12,10.74-10.65,11.36-4.04,.46-8.04-1.64-10.8-4.62-2.76-2.99-4.46-6.78-5.96-10.56-7.08-17.91-10.5-37.02-13.48-56.04-.45-2.88-.89-5.84-.27-8.69,.62-2.85,2.55-5.6,5.37-6.33,8.1-2.11,16.37,18.04,19.13,23.23,5.98,11.25,10.89,23.08,14.62,35.27Z"/><path class="r" d="M422.07,570.67c-2.63,4.9-5.62,9.85-10.22,12.97-4.6,3.12-11.23,3.91-15.56,.42-3.17-2.55-4.49-6.87-4.31-10.93,.18-4.06,1.68-7.94,3.32-11.66,7.75-17.63,18.93-33.5,30.35-49,1.73-2.35,3.52-4.74,5.99-6.3,2.46-1.56,5.78-2.12,8.28-.63,7.19,4.27-1.31,24.32-3.06,29.94-3.79,12.17-8.74,23.98-14.78,35.2Z"/><path class="q" d="M662.15,296.5c-1.64-.98-10.5-1.79-15.63,1.36,7.6-9.66,22.58-20.56,12.79-25.87-5.28-2.11-12.03,5.12-21.9,11.67,8.06-12.08,8.42-16.18,16.48-28.26,11.61-17.4,23.75-36.96,20.73-57.66-4.67-6.87-18.44,22.03-29.99,30.49,8.33-17,31.46-50.3,16.19-54.17-24.39,3.2-38.97,27.63-54.44,46.77-15.39,19.03-34.69,34.16-56.18,45.03,4.42,1.07,8.03,3.47,9.23,7.84,1.68,6.09-2.71,12.04-6.82,16.84-6.33,7.39-12.66,14.79-18.99,22.18,11.85-2.97,24.59-13.47,34.46-6.27,5.67,4.14,6.55,12.64,3.91,19.15-2.64,6.51-7.97,11.48-13.14,16.23,4.18-1.91,8.51-3.85,13.11-3.93,4.59-.08,9.56,2.21,11.16,6.52,2.14,5.78-2.37,11.72-6.56,16.24-6.61,7.13-13.22,14.26-19.83,21.39,8.65-1.27,18.79-9.15,24.52-2.55,4.26,4.92,.23,12.4-3.79,17.52-13.01,16.59-26.02,33.19-39.03,49.78,19.9-14.48,38.54-30.82,56.07-48.09,27.42-27.01,52.79-56.99,68.33-92.2,1.48-3.36,2.48-8.11-.67-10Z"/><path class="n" d="M324.66,239.02c10.84-9.99,19.21-22.64,24.18-36.51,.93-2.6,1.84-5.38,3.97-7.14,2.76-2.29,6.74-2.19,10.32-1.87,26.23,2.32,51.8,9.63,78,12.31,18,1.85,36.23,1.49,54.15-1.07,7.1,22.3,7.85,46.59,2.14,69.28-.33,1.3-.71,2.67-1.68,3.6-1.07,1.03-2.64,1.33-4.11,1.56-32.02,5.07-64.73,2.47-96.93-1.31-21.59-2.54-65.92-9.57-85.39-20.95-14.78-8.64,7.77-10.9,15.35-17.9Z"/><path class="o" d="M381.02,204.92c-4.71-2.12-9.76-3.93-14.91-3.49s-10.36,3.69-11.61,8.69c-.95,3.81,.26,8.47-2.51,11.25-2.02,2.02-5.41,2.11-7.43,4.12-1.24,1.24-1.76,3-2.52,4.57-4.14,8.6-15.05,11.45-21.44,18.55-.73,.81-1.43,1.77-1.47,2.86-.07,2.02,2.03,3.37,3.92,4.06,5.88,2.17,13.39,1.83,17.34-3.04,3.18-3.93,3.34-9.87,7.08-13.27,4.11-3.73,10.47-2.72,15.93-1.69,10.05,1.9,20.24,3.08,30.46,3.53,1.47,.07,3.51-.45,3.36-1.91-.07-.68-.66-1.19-1.24-1.56-4.02-2.61-9.13-2.57-13.84-3.47s-9.87-3.63-10.5-8.39c-.11-.85-.04-1.78,.49-2.45,.43-.54,1.11-.83,1.76-1.06,7.03-2.43,14.7-.24,21.99,1.22,22.74,4.54,46.22,1.73,69.23-1.1,1.73-.21,3.57-.48,4.87-1.64,1.29-1.17,1.59-3.57,.13-4.51-.67-.43-1.51-.46-2.31-.46-15.26-.14-30.54,1.21-45.76,.1-14.89-1.08-27.53-4.86-41.02-10.93Z"/><path class="g" d="M386.26,337.86c2.06,.63,4.18,1.49,5.48,3.21,1.7,2.23,1.58,5.44,.41,7.98-1.18,2.54-3.24,4.55-5.31,6.44-5.49,5.02-11.35,9.64-17.51,13.82,15.52-5.89,29.88-14.81,42.03-26.11,2.6-2.42,5.17-5.04,6.52-8.32,1.36-3.28,1.26-7.4-1.11-10.05-1.87-2.09-4.76-2.91-7.53-3.33-10.62-1.59-21.35,1.46-31.54,4.87-10.28,3.85-20.95,7.24-29.25,14.77,11.9-4.81,25.24-7.15,37.81-3.27Z"/><path class="g" d="M466.32,372.28c1.65,.51,3.36,1.2,4.41,2.58,1.37,1.79,1.27,4.37,.33,6.42-.95,2.04-2.6,3.66-4.27,5.18-4.42,4.03-9.13,7.75-14.07,11.11,12.48-4.73,24.02-11.9,33.79-20.99,2.09-1.95,4.15-4.05,5.24-6.69,1.09-2.64,1.01-5.95-.89-8.08-1.5-1.68-3.82-2.34-6.05-2.68-8.54-1.28-17.17,1.17-25.36,3.91-8.26,3.1-16.84,5.82-23.52,11.87,9.57-3.87,20.29-5.75,30.39-2.63Z"/><path class="g" d="M351.92,406.32c1.65,.51,3.36,1.2,4.41,2.58,1.37,1.79,1.27,4.37,.33,6.42-.94,2.04-2.6,3.66-4.27,5.18-4.42,4.03-9.13,7.75-14.07,11.11,12.48-4.73,24.02-11.9,33.79-20.99,2.09-1.95,4.15-4.05,5.24-6.69,1.09-2.64,1.01-5.95-.89-8.08-1.5-1.68-3.82-2.34-6.05-2.68-8.54-1.28-17.17,1.17-25.36,3.91-8.26,3.1-16.84,5.82-23.52,11.88,9.57-3.87,20.29-5.75,30.39-2.63Z"/><path class="g" d="M433.19,434.95c1.65,.51,3.36,1.2,4.41,2.58,1.37,1.79,1.27,4.37,.33,6.42-.95,2.04-2.6,3.66-4.27,5.18-4.42,4.03-9.13,7.75-14.07,11.11,12.48-4.73,24.02-11.9,33.79-20.99,2.09-1.95,4.15-4.05,5.24-6.69,1.09-2.64,1.01-5.95-.89-8.08-1.5-1.68-3.82-2.34-6.05-2.68-8.54-1.28-17.17,1.17-25.36,3.91-8.26,3.1-16.84,5.82-23.52,11.88,9.57-3.87,20.29-5.75,30.39-2.63Z"/><path class="g" d="M457.76,310.33c3.33,1.31,6.74,3.72,7.18,7.27,.62,4.94-4.56,8.43-9.02,10.66,4.9-1.74,10-3.62,13.5-7.47,3.5-3.84,4.71-10.3,1.23-14.16-1.59-1.76-3.87-2.71-6.12-3.43-9.69-3.11-20.25-2.88-30.15-.52-9.9,2.36-19.21,6.78-28,11.91,11.65-6.81,39.05-9.13,51.38-4.27Z"/></g></g></g></svg>