<?xml version="1.0" encoding="UTF-8"?><svg xmlns="http://www.w3.org/2000/svg" viewBox="0 0 713.8 938.51"><defs><style>.d{fill:#f7b566;}.e{fill:#efd486;}.f{fill:#f0f6fc;}.g{fill:#eadec5;}.h{fill:#fff;}.i{fill:#fff1d2;}.j{fill:#849496;}.k{fill:#d3a45f;}.l{fill:#dce1e5;}.m{fill:#e26d52;}.n{fill:#15857f;}.o{fill:#0e5955;}.p{fill:#3f3c36;}.q{opacity:.43;}</style></defs><g id="a"/><g id="b"><g id="c"><g><g><path class="g" d="M382.86,260.93c5.06-20-8.42-42.81-28.38-48.01,14.94,2.36,29.06,9.58,39.74,20.29-1.2-11.68,4.45-23.81,14.16-30.41-3.6,9.04-4.78,19.02-3.41,28.65,10.02-17.54,33.02-26.44,52.23-20.2-15.58,9.31-32.6,20.57-36.33,38.33-1.08,5.17-1.05,10.9-4.31,15.06-4.33,5.53-12.62,5.87-19.48,4.35-3.42-.76-7.2-2.24-8.41-5.53-1.22-3.29,2.81-7.65,5.55-5.46l-11.36,2.94Z"/><path class="e" d="M513.56,938.51c2.08,0,2.08-3.23,0-3.23s-2.08,3.23,0,3.23h0Z"/><path class="m" d="M343.92,867.92c-13.93,2.87-24.24,4.83-38.46,5.2,6.57,2.34,10.85,3.82,14.68,6.92-5.47,3.2-14.13,8.78-19.6,11.98l29.24,1.92c-2.35,4.44-4.69,8.89-7.04,13.33l40.55-27.35c3.79-2.56,7.79-5.37,9.47-9.62,2.08-5.26-.84-11.53-6.58-8.58-6.25,3.21-15.17,4.73-22.26,6.2Z"/><path class="m" d="M363.38,863.05c0,2.9,.01,5.94,1.34,8.48,1.33,2.54,5.36-2.06,7.81-3.37,1.38-49.46,.91-92.61,.4-142.09-.05-5.29-.32-11.12-3.76-14.96-3.42-3.81-9.64-4.3-13.55-1.07-7.55,6.23-.57,16.87,.56,24.51,2.11,14.21,3.01,28.77,4.08,43.1,2.13,28.41,3.18,56.9,3.12,85.4Z"/><path class="m" d="M516.85,874.88c14.18,1.11,24.66,1.75,38.81,.34-6.22,3.15-10.29,5.15-13.7,8.7,5.83,2.49,15.12,6.94,20.95,9.43-9.59,1.86-19.18,3.71-28.77,5.57,2.89,4.12,5.77,8.23,8.66,12.35-14.55-7.35-29.11-14.7-43.66-22.06-4.08-2.06-8.4-4.35-10.6-8.36-2.72-4.96-.61-11.55,5.46-9.34,6.61,2.41,15.64,2.8,22.86,3.36Z"/><path class="m" d="M496.93,872.48c.37,2.88,.73,5.9-.27,8.58-1,2.68-5.57-1.37-8.17-2.37-7.57-48.9-12.5-91.77-18.19-140.92-.61-5.25-1.08-11.07,1.86-15.31,2.91-4.21,9.02-5.47,13.31-2.76,8.27,5.24,2.68,16.66,2.51,24.39-.32,14.36,.62,28.92,1.35,43.27,1.44,28.45,3.98,56.85,7.6,85.12Z"/><path class="g" d="M339.64,728.98c2.8,7.86,6.04,15.89,12.07,21.66,6.03,5.77,15.59,8.66,22.93,4.69,5.96-3.22,9.02-9.93,11.5-16.23,6.86-17.47,12.4-35.81,12.42-54.58,0-4.31-.33-8.8-2.47-12.54-4.43-7.76-14.64-9.61-23.56-10.17-10.97-.69-22.19-.91-33.14,.14-7.35,.71-14,2.02-14.48,10.46-.49,8.41,3.18,18.02,5.29,26.01,2.73,10.31,5.86,20.52,9.43,30.57Z"/><path class="g" d="M452.96,728.98c2.8,7.86,6.04,15.89,12.07,21.66,6.03,5.77,15.59,8.66,22.93,4.69,5.96-3.22,9.02-9.93,11.5-16.23,6.86-17.47,12.4-35.81,12.42-54.58,0-4.31-.33-8.8-2.47-12.54-4.43-7.76-14.64-9.61-23.56-10.17-10.97-.69-22.19-.91-33.14,.14-7.35,.71-14,2.02-14.48,10.46-.49,8.41,3.18,18.02,5.29,26.01,2.73,10.31,5.86,20.52,9.43,30.57Z"/><path class="g" d="M555.41,429.22c44.66-8.84,84.92-37.89,107.4-77.49,11.71-20.63,18.63-43.54,26.98-65.75,.65-1.74,1.6-3.72,3.42-4.06,2.88-.54,4.44,3.28,4.61,6.2,.99,16.92-6.3,33.1-13.43,48.47-3.43,7.4-6.86,14.79-10.28,22.19,8.46-.36,26.15-30.49,31.73-36.87,.84-.96,1.81-1.91,3.05-2.19,4.52-1.04,5.65,6.09,4.4,10.56-7.81,27.9-18.36,55.04-31.46,80.88,5.5-5.66,16.45-18.84,20.18-11.83,4.05,6.31-3.29,18.68-8.12,26.77,2.22-.33,4.44-.66,6.67-.99,7.18,4.81-8.86,38.38-18.83,55.38-28.85,49.16-73.47,88.91-125.62,111.9-16.9,7.45-35.06,13.25-53.5,12.24-22.57-1.24-43.48-12.63-61.03-26.86-17.35-14.07-32.62-31.82-39.1-53.2-6.29-20.73-3.61-44.01,7.23-62.77,10.84-18.76,29.67-32.71,50.77-37.61,14.28-3.32,36.05-5.25,50.2-.67,7.28,2.35,12.6,6.42,20.71,7.29,8,.86,16.19-.02,24.05-1.58Z"/><g><path class="j" d="M651.56,481.58c.61-.36,1.13-.83,1.58-1.36-.61,.33-1.16,.77-1.58,1.36Z"/><path class="j" d="M681.75,480.37c9.97-17,26.02-50.57,18.83-55.38-2.22,.33-4.44,.66-6.67,.99,4.83-8.09,12.17-20.46,8.12-26.77-3.73-7.01-14.68,6.17-20.18,11.83,13.1-25.85,23.65-52.98,31.46-80.88,1.25-4.46,.12-11.59-4.4-10.56-1.24,.29-2.21,1.23-3.05,2.19-5.58,6.38-23.27,36.51-31.73,36.87,3.43-7.4,6.86-14.79,10.28-22.19,7.13-15.38,14.42-31.55,13.43-48.47-.17-2.93-1.73-6.74-4.61-6.2-1.83,.34-2.77,2.33-3.42,4.06-8.34,22.2-15.27,45.12-26.98,65.75-7.28,12.83-16.43,24.54-26.99,34.82,.36-.09,.72-.16,1.09-.22,4.62-.76,10.44,2.25,9.97,6.9-.18,1.78-1.24,3.33-2.26,4.8-2.34,3.35-4.68,6.7-7.02,10.05,2.22-1.13,4.55-2.29,7.04-2.29,2.49,0,5.17,1.6,5.52,4.06,.17,1.18-.2,2.36-.62,3.47-1.26,3.33-3.01,6.47-5.18,9.28,5.2-2.38,11.6,1.84,13.26,7.31,1.67,5.47-.2,11.41-2.88,16.46-5.4,10.19-13.94,18.31-22.32,26.23,6.58-1.93,13.73-7.2,19.44-3.4,3.55,2.36,3.9,7.98,1.24,11.14,2.18-1.17,5.27-.76,7.13,1.01,2.39,2.26,2.92,6,2.02,9.17s-3,5.85-5.26,8.24c1.97-.87,4.22-1.1,6.33-.65-1.27,5.73-3.13,11.32-5.51,16.68,8.83-10.8,16.84-22.26,23.9-34.29Z"/></g><path class="g" d="M252.95,487.82c-41.73,18.21-91.36,17.32-132.41-2.39-21.38-10.26-40.14-25.14-59.66-38.61-1.53-1.06-3.44-2.15-5.13-1.38-2.67,1.2-1.78,5.23-.25,7.73,8.84,14.46,24.05,23.59,38.68,32.16,7.03,4.12,14.07,8.24,21.1,12.36-7.16,4.53-38.88-10.13-47.09-12.18-1.24-.31-2.57-.54-3.76-.06-4.3,1.72-1.16,8.23,2.41,11.18,22.33,18.46,46.48,34.73,71.98,48.49-7.75-1.52-24.26-6.09-23.32,1.79,.27,7.49,13.36,13.47,21.94,17.35-2.01,1-4.03,1.99-6.04,2.99-3.16,8.04,29.17,26.47,47.06,34.74,51.74,23.92,111.05,31.12,167.01,20.26,18.13-3.52,36.36-9.11,50.92-20.46,17.83-13.89,28.51-35.17,34.81-56.88,6.23-21.46,8.64-44.74,1.77-66-6.66-20.61-22.14-38.21-41.74-47.43-19.6-9.22-43.03-9.94-63.15-1.94-13.62,5.42-32.6,16.25-41.62,28.09-4.64,6.09-6.69,12.46-12.85,17.8-6.08,5.27-13.31,9.21-20.65,12.42Z"/><g><path class="j" d="M203.84,585.66c-.71,.05-1.4-.03-2.07-.21,.69-.08,1.39-.02,2.07,.21Z"/><path class="j" d="M178.36,601.89c-17.89-8.27-50.22-26.7-47.06-34.74,2.01-1,4.03-1.99,6.04-2.99-8.58-3.89-21.67-9.86-21.94-17.35-.93-7.88,15.58-3.3,23.32-1.79-25.5-13.76-49.65-30.02-71.98-48.49-3.57-2.95-6.71-9.46-2.41-11.18,1.18-.47,2.52-.25,3.76,.06,8.22,2.06,39.94,16.72,47.09,12.18-7.03-4.12-14.07-8.24-21.1-12.36-14.62-8.57-29.84-17.7-38.68-32.16-1.53-2.5-2.43-6.53,.25-7.73,1.69-.76,3.6,.33,5.13,1.38,19.52,13.48,38.28,28.35,59.66,38.61,13.3,6.38,27.49,10.78,42.03,13.2-.34,.13-.68,.27-1.02,.43-4.22,2.01-7.29,7.8-4.25,11.36,1.16,1.36,2.92,2.03,4.59,2.65,3.83,1.42,7.66,2.83,11.5,4.25-2.47,.34-5.05,.71-7.09,2.14-2.04,1.43-3.34,4.26-2.22,6.49,.53,1.06,1.51,1.82,2.49,2.49,2.93,2.02,6.16,3.6,9.55,4.67-5.63,1.01-8.48,8.12-6.73,13.57,1.75,5.44,6.67,9.25,11.75,11.87,10.25,5.29,21.89,7.09,33.3,8.81-6.51,2.17-15.38,1.92-17.91,8.3-1.57,3.96,1.35,8.78,5.33,9.86-2.46,.28-4.76,2.38-5.29,4.9-.68,3.22,1.03,6.59,3.57,8.68,2.54,2.09,5.8,3.09,9.02,3.77-2.12,.41-4.1,1.5-5.57,3.08,4.31,3.98,9.03,7.51,14.04,10.56-13.41-3.83-26.53-8.68-39.19-14.53Z"/></g><path class="i" d="M354.23,269.53c-9.83,13.93-13.1,31.39-14.74,48.37-1.64,16.97-1.92,34.26-6.79,50.6-11.35,38.11-29.33,64.54-51.7,97.42-19.8,29.1-30.79,64.45-29.08,99.61s16.51,69.85,42.03,94.1c21.92,20.83,50.87,33.44,80.69,38.43,29.82,4.99,60.53,2.66,90.1-3.61,19.1-4.05,38.09-9.85,54.69-20.12,17.15-10.61,31.29-25.79,41.71-43.06,32.37-53.61,28.47-133.36-13.49-179.84-10.87-12.04-45.24-48.35-57.39-94.49-5.5-20.88-9.89-41.97-14.63-63.03-15.43-68.52-92.89-64.74-121.41-24.35Z"/><g><path class="p" d="M367.3,309.36c-.31,.97-.52,1.97-.53,2.98-.06,4.48,3.84,8.27,8.18,9.4,3.53,.92,7.78,.17,9.87-2.81,.53-.75,.89-1.6,1.17-2.48,1.15-3.65,.62-7.93-1.88-10.84-4.85-5.64-14.66-3.01-16.81,3.74Z"/><path class="h" d="M371.02,309.61c-.77,1.54-.95,3.5,.01,4.93,.96,1.43,3.26,1.93,4.46,.7,1.2-1.22,.86-3.35,1.92-4.69,.71-.88,1.95-1.31,2.41-2.34,1.1-2.5-2.14-2.9-3.73-2.57-2.13,.44-4.11,2.04-5.08,3.97Z"/></g><path class="j" d="M395.93,280.02c-.58-.89-1.83-.98-2.89-.97-5.98,.05-12,.1-17.89,1.15-6.24,1.11-13.34,3.46-17.8,8.23-3.14,3.36-4.77,9.75,1.08,11.47,4.65,1.36,36.91-20.78,37.5-19.88Z"/><g><path class="p" d="M459.28,307.94c.42,.92,.75,1.89,.89,2.9,.6,4.44-2.81,8.68-6.98,10.32-3.39,1.34-7.7,1.11-10.14-1.59-.61-.68-1.08-1.48-1.46-2.32-1.58-3.49-1.57-7.8,.55-10.99,4.13-6.19,14.18-4.76,17.14,1.68Z"/><path class="h" d="M455.62,308.64c.95,1.44,1.37,3.36,.58,4.9-.78,1.54-3,2.31-4.35,1.23-1.34-1.07-1.26-3.22-2.48-4.42-.81-.79-2.1-1.06-2.67-2.03-1.4-2.35,1.77-3.13,3.39-3,2.17,.18,4.33,1.53,5.52,3.32Z"/></g><path class="j" d="M429.42,284.18c.32-1.02,1.5-1.44,2.53-1.72,5.77-1.56,11.58-3.14,17.54-3.71,6.31-.61,13.78-.26,19.36,3.12,3.93,2.39,7.22,8.1,2.05,11.34-4.11,2.57-41.15-10.05-41.47-9.03Z"/><path class="n" d="M531.93,434.81c-8.14,2.75-15.7,5.32-17.24,5.74-13.92,3.73-28.03,6.74-42.26,9-50.08,7.98-101.61,6.86-151.27-3.47-7.44-1.55-15.05-3.04-22.34-5.4-5.56,8.65-11.51,17.4-17.82,26.67-19.8,29.1-30.79,64.45-29.08,99.61,1.13,23.06,7.88,45.92,19.6,65.77,35.53,7.62,72.11,10.87,108.5,12,58.59,1.83,118-1.75,174.02-19.04,4.45-1.37,8.9-2.85,13.3-4.48,25.45-53,19.38-125.09-19.68-168.36-3.41-3.77-9.12-9.93-15.73-18.02Z"/><path class="o" d="M373.41,586.27c2.88,.99,3.95-2.46,4.71-5.24,10.97,20.33,40.84,36.36,65.57,12.14,2.9-2.84,7.52-7.67,9.79-11.06,.21,1.45,.23,5.06,3.87,4.3,3.62-.76,1.82-5.54,.17-17.01-.29-2.04-3.66-3.55-5.75-.13-3.15,3.46-11.51,5.59-7.82,9.75,1.58,1.79,3.19,.64,4.91-.53,.64-.44-14.33,20.13-28.44,21.08-1.56-13.89-2.55-27.84-2.85-43.49,2.69-.24,5.09-.89,4.54-3.53-.64-3.04-4.61-1.28-4.61-1.44,.18-.02-.23,1.05,.09-14.11,16.63-3.53,10.71-29.64-4.67-26.97-12.59,2.17-15.53,23.17-1.16,26.88-.16,7.56-.12,10.69-.1,13.34-.23-.1-2.69-2.09-4.3,.31-1.65,2.47,1.5,4.11,4.36,4.95,.85,46.69,5.19,44.37,1.31,43.86-9.22-1.21-19.3-6.57-26.5-15.95-7.11-9.27,1.79,1.24,3.91-4.92,1.28-3.74-3.37-3.11-8.85-7.18-2.65-1.97-1.64-2.77-3.6-3.38-1.91-1.48-4.87,.15-4.7,2.27,.93,11.26-4.93,14.33,.12,16.07Zm35.28-57.13c-.04-.05-.03-.04,0,0h0Zm9.23,2.59c.19-.09,.2-.07,0,0h0Zm-.01,0c-.77,.27-.74-1.67-3.09-1.82-2.07-.13-2.67,1.89-2.78,1.85-6.24-2.31-6.36-11.5-1.22-15.66,4.68-3.17,10.67-.22,11.82,6.86,.52,8-6.24,9.31-4.72,8.78Z"/><path class="o" d="M291.24,440.05c5.82-7.54,10.93-15.63,15.25-24.12,1.42-2.81,2.86-5.78,5.43-7.6,2.46-1.74,5.61-2.16,8.63-2.18,12.13-.08,23.5,5.38,35.08,8.99,28.67,8.93,59.48,6.61,89.39,3.91,22.27-2.01,45.37-4.45,64.55-15.96,3.2-1.92,8.38-3.5,9.74-.04,.42,1.08,.21,2.28,.16,3.43-.33,7.01,5.06,12.82,10.08,17.72,5.42,5.3,10.84,10.59,16.26,15.89,2.07,2.03,4.3,4.44,4.11,7.34-.09,1.36-.73,2.63-1.46,3.78-4.03,6.36-10.97,10.24-17.85,13.3-16.43,7.3-34.1,11.41-51.82,14.43-49.99,8.52-101.4,8.69-151.45,.5-13.32-2.18-26.68-5.09-38.72-11.41-5.45-2.86-8.77-3.91-7.5-10.62,1.23-6.53,6.19-12.27,10.13-17.37Z"/><g><path class="d" d="M453.34,352.09c-2.22-6.88-7.61-12.23-11.04-18.6-3.44-6.37-4.9-13.69-8.55-19.94-5.6-9.59-14.27-11.41-22.62-8.92-8.36-2.5-17.02-.68-22.62,8.92-3.65,6.25-5.11,13.57-8.55,19.94-3.44,6.36-8.82,11.71-11.04,18.6-2.04,6.32-1.17,13.17-.18,19.74,4.01,26.8,9.47,53.39,16.35,79.6,2.72,10.35,5.67,20.68,10.07,30.44,3.61,8,9.53,20.61,15.99,20.61,6.37-.29,12.38-12.61,15.99-20.61,4.4-9.75,7.35-20.09,10.07-30.44,6.88-26.21,12.34-52.8,16.35-79.6,.98-6.57,1.86-13.42-.18-19.74Z"/><path class="k" d="M454.17,371.83c.98-6.57,1.86-13.42-.18-19.74-.43-1.33-.98-2.6-1.61-3.83,.27,2.83,.34,5.68,.09,8.53-.63,7.34-3.27,14.33-5.55,21.33-10.33,31.71-13.82,65.41-25.2,96.75-2.22,6.1-5.05,12.49-10.57,15.89-3.03,1.86-7.05,2.25-10.39,1.21,3.18,5.62,6.99,10.51,11.01,10.51,6.37-.29,12.38-12.61,15.99-20.61,4.4-9.75,7.35-20.09,10.07-30.44,6.88-26.21,12.34-52.8,16.35-79.6Z"/></g><g class="q"><path class="h" d="M392.96,323.77c.02,29.41,.04,58.83,.07,88.24,0,3.95,.1,8.21,2.44,11.4,.39,.53,.86,1.04,1.47,1.3,2.56,1.1,4.51-2.49,4.9-5.24,3.61-25.31-3.64-51.88,3.94-76.3,1.75-5.63,4.29-11.16,4.33-17.06,.11-13.86-17.15-18.57-17.14-2.34Z"/></g><path class="o" d="M262.36,630.58c1.12,2.74,2.38,5.5,4.45,7.61,2,2.04,4.63,3.34,7.28,4.39,9.65,3.78,35.93,8.45,46.23,9.53,31.83,3.34,113.16,6.69,163.26,.96,16.86-1.93,37.64-6.54,54.22-10.14,11.34-2.46,23.04-6.66,30.3-15.72,6.43-8.03,8.4-18.63,10.17-28.76,.24-1.38,.36-3.07-.78-3.88-.87-.61-2.05-.39-3.08-.14-92.29,22.45-188.6,31.07-282.9,19.77-26.71-3.2-29.79-14.87-34.03-14.14-7.43,1.32,1.35,21.87,4.89,30.52Z"/><path class="n" d="M260.91,613.1c2.41,9.42,6.22,18.48,11.27,26.8,1.67,2.75,5.99,.24,4.32-2.52-4.84-7.98-8.45-16.57-10.77-25.61-.8-3.11-5.62-1.79-4.82,1.33h0Z"/><path class="n" d="M277.72,620.41c1.3,6.34,3.93,12.43,7.66,17.72,.78,1.1,2.18,1.62,3.42,.9,1.09-.64,1.68-2.31,.9-3.42-3.57-5.06-5.92-10.48-7.16-16.53-.27-1.32-1.84-2.09-3.08-1.75-1.38,.38-2.02,1.75-1.75,3.08h0Z"/><path class="n" d="M294.35,626.65c1.65,4.39,3.3,8.77,4.95,13.16,.46,1.22,1.71,2.19,3.08,1.75,1.19-.39,2.24-1.76,1.75-3.08-1.65-4.39-3.3-8.77-4.95-13.16-.46-1.22-1.71-2.19-3.08-1.75-1.19,.39-2.24,1.76-1.75,3.08h0Z"/><path class="n" d="M313.45,626.6c1.23,6.99,3.39,13.74,6.33,20.2,.56,1.23,2.34,1.53,3.42,.9,1.26-.74,1.46-2.19,.9-3.42-2.76-6.05-4.68-12.46-5.82-19-.23-1.33-1.86-2.08-3.08-1.75-1.4,.39-1.98,1.74-1.75,3.08h0Z"/><path class="n" d="M332.69,629.38c.58,7.22,2.45,14.18,5.57,20.71,.58,1.22,2.32,1.54,3.42,.9,1.25-.73,1.48-2.2,.9-3.42-2.72-5.69-4.39-11.9-4.89-18.19-.11-1.35-1.07-2.5-2.5-2.5-1.27,0-2.61,1.15-2.5,2.5h0Z"/><path class="n" d="M357.54,627.68c.81,6.47,1.62,12.93,2.43,19.4,.17,1.34,1.03,2.5,2.5,2.5,1.22,0,2.67-1.15,2.5-2.5-.81-6.47-1.62-12.93-2.43-19.4-.17-1.34-1.03-2.5-2.5-2.5-1.22,0-2.67,1.15-2.5,2.5h0Z"/><path class="n" d="M435.92,623.71c.23,7.78,.17,15.57-.2,23.35-.15,3.22,4.85,3.21,5,0,.37-7.78,.43-15.57,.2-23.35-.1-3.21-5.1-3.22-5,0h0Z"/><path class="n" d="M450.95,624.85c-.04,8.41-1.02,16.76-2.94,24.95-.73,3.13,4.09,4.47,4.82,1.33,2.02-8.61,3.07-17.44,3.11-26.28,.02-3.22-4.98-3.22-5,0h0Z"/><path class="n" d="M476.39,619.16c-.98,9.19-2.75,18.27-5.24,27.17-.87,3.1,3.95,4.43,4.82,1.33,2.61-9.33,4.4-18.86,5.42-28.5,.14-1.34-1.25-2.5-2.5-2.5-1.47,0-2.36,1.15-2.5,2.5h0Z"/><path class="n" d="M497.33,616.87c-.99,8.66-2.97,17.19-5.78,25.43-1.04,3.05,3.79,4.36,4.82,1.33,2.96-8.69,4.91-17.65,5.96-26.76,.15-1.34-1.26-2.5-2.5-2.5-1.48,0-2.35,1.15-2.5,2.5h0Z"/><path class="n" d="M521.38,611.65c-2,8.99-4.27,17.91-6.81,26.75-.89,3.1,3.93,4.42,4.82,1.33,2.54-8.85,4.81-17.77,6.81-26.75,.7-3.14-4.12-4.47-4.82-1.33h0Z"/><path class="n" d="M546.1,607.72c-1.55,8.11-3.77,16.06-6.65,23.79-.47,1.27,.53,2.74,1.75,3.08,1.4,.38,2.6-.48,3.08-1.75,2.88-7.73,5.1-15.69,6.65-23.79,.25-1.32-.37-2.7-1.75-3.08-1.22-.34-2.82,.41-3.08,1.75h0Z"/><path class="n" d="M564.84,604.87c-.48,2.32-1.11,4.6-1.9,6.84-.19,.55-.39,1.09-.61,1.63-.11,.27-.22,.54-.32,.81-.11,.28-.13,.31-.04,.09-.05,.11-.1,.23-.15,.34-.48,1.1-1,2.19-1.55,3.26-.6,1.16-.34,2.77,.9,3.42,1.15,.61,2.78,.34,3.42-.9,2.31-4.47,4.04-9.24,5.06-14.17,.27-1.28-.37-2.76-1.75-3.08-1.25-.28-2.79,.38-3.08,1.75h0Z"/><path class="n" d="M375.55,630.67c.92,5.6,2.28,11.12,4.05,16.51,.42,1.28,1.73,2.12,3.08,1.75,1.26-.35,2.17-1.79,1.75-3.08-1.77-5.39-3.13-10.91-4.05-16.51-.22-1.33-1.87-2.08-3.08-1.75-1.42,.39-1.97,1.74-1.75,3.08h0Z"/><path class="n" d="M294.11,458.79c3.25-1.37,5.37-4.64,7.43-7.34,2.24-2.95,4.35-6,6.33-9.13,3.99-6.33,7.37-13.01,10.24-19.92,.52-1.25-.56-2.75-1.75-3.08-1.44-.39-2.56,.49-3.08,1.75-2.64,6.37-5.84,12.51-9.5,18.35-1.81,2.89-3.73,5.71-5.76,8.44-1.77,2.38-3.61,5.42-6.43,6.62-1.24,.53-1.52,2.36-.9,3.42,.75,1.29,2.17,1.43,3.42,.9h0Z"/><path class="n" d="M312.21,464.62c6.13-8.69,10.71-18.43,13.53-28.68,.85-3.11-3.97-4.43-4.82-1.33-2.71,9.86-7.12,19.13-13.02,27.49-.78,1.1-.2,2.78,.9,3.42,1.25,.73,2.64,.21,3.42-.9h0Z"/><path class="n" d="M333.81,470.12c1.22-5.29,2.44-10.59,3.66-15.88,.29-1.27-.39-2.77-1.75-3.08-1.27-.29-2.76,.38-3.08,1.75-1.22,5.29-2.44,10.59-3.66,15.88-.29,1.27,.39,2.77,1.75,3.08,1.27,.29,2.76-.38,3.08-1.75h0Z"/><path class="n" d="M473.77,467.71c-4.28-12.07-6.63-24.71-6.9-37.52-.07-3.21-5.07-3.22-5,0,.28,13.22,2.66,26.38,7.08,38.85,.45,1.27,1.71,2.12,3.08,1.75,1.23-.34,2.2-1.8,1.75-3.08h0Z"/><path class="n" d="M490.79,468.66c-4.73-12.88-8.3-26.17-10.67-39.69-.23-1.33-1.86-2.08-3.08-1.75-1.4,.39-1.98,1.74-1.75,3.08,2.37,13.52,5.94,26.8,10.67,39.69,.47,1.27,1.7,2.13,3.08,1.75,1.22-.34,2.21-1.8,1.75-3.08h0Z"/><path class="n" d="M513.91,456.92c-7.39-11.41-12.4-24.17-14.76-37.56-.24-1.33-1.86-2.08-3.08-1.75-1.4,.39-1.98,1.74-1.75,3.08,2.43,13.77,7.67,27.02,15.27,38.76,1.74,2.69,6.07,.19,4.32-2.52h0Z"/><path class="n" d="M533.39,445.68c-8.26-8.69-15.2-18.51-20.68-29.16-1.47-2.86-5.79-.34-4.32,2.52,5.67,11.02,12.93,21.19,21.46,30.17,2.22,2.34,5.75-1.2,3.54-3.54h0Z"/><path class="f" d="M25.53,489.82c-4.91,3.57-11.09,6.8-16.82,4.79-4.72-1.66-7.68-6.58-8.45-11.52-.77-4.94,.25-9.97,1.27-14.87,11.42-54.9,17.14-156.39,40.58-166.16,14.45-6.02,17.14,21.05,23.47,29.67,1.98,2.7,.56,2.37,1.98,5.41,1.5,3.19,2.32,6.66,2.99,10.12,3.92,20.16,3.06,41.04-.41,61.28-4.15,24.22-13.25,46.51-28.12,66.09-4.44,5.85-10.6,10.91-16.51,15.19Z"/><path class="l" d="M32.58,313.55c2.31-1.78,4.92-2.73,7.66-1.84,4.2,1.37,5.88,6.41,6.18,10.81,.67,10.11-2.8,19.98-5.68,29.7-8.51,28.7-12.19,58.64-13.51,88.55-.47,10.64-.65,21.35-2.69,31.8-1.56,7.96-4.29,15.85-8.72,22.6,3.61-.79,7.13-2.86,10.18-5.07,5.9-4.29,12.07-9.35,16.51-15.19,10.7-14.09,18.4-29.59,23.43-46.19,1.99-13.14,4.27-26.23,7.13-39.2,1.1-14.04,.66-28.18-2.03-41.98-.67-3.46-1.5-6.93-2.99-10.12-1.42-3.04,0-2.7-1.98-5.41-6.33-8.63-9.02-35.7-23.47-29.67-3.76,1.57-7.06,5.5-10.01,11.22Z"/><path class="p" d="M42.33,473.99c5.95-14.49,9.71-29.78,13.03-45.09,6.92-31.93,12-64.55,10.24-97.17,9.23,7.08,18.46,14.17,27.7,21.25,.53,.41,1.08,.83,1.44,1.4,.56,.87,.61,1.96,.64,3,.54,22.57-4.02,44.92-8.57,67.04-2.82,13.7-5.26,28.24-10.85,41.15-2.41,5.55-5.45,5.27-11.19,6.04-7.45,.99-14.93,1.79-22.43,2.39Z"/></g><g><path class="n" d="M163.54,71.19c1.31,.8,2.66,1.71,4.03,2.72,1.37,1.01,2.61,2.14,3.71,3.39,1.75,1.99,2.95,4.29,3.61,6.91,.66,2.62,.06,4.74-1.8,6.38-.89,.79-1.87,1.03-2.93,.72-1.06-.31-2.04-.97-2.95-2.01-1.49-1.69-2.52-3.73-3.08-6.1-.56-2.37-.42-4.59,.45-6.66-2.83-1.69-5.43-2.54-7.8-2.54-2.37,0-4.28,.64-5.73,1.9-1.31,1.15-2.37,2.67-3.2,4.57-.83,1.9-1.49,3.95-1.99,6.15-.5,2.2-.87,4.48-1.11,6.85-.24,2.36-.45,4.54-.65,6.54-.59,6.26-1,12.3-1.25,18.12-.24,5.82-.23,11.66,.03,17.49,.26,5.84,.89,11.75,1.88,17.73,.99,5.98,2.43,12.12,4.32,18.42,1.64,5.47,3.13,10.98,4.47,16.52,1.34,5.54,3.06,11.04,5.18,16.49,.69,1.61,1.47,3.44,2.34,5.47,.88,2.04,1.65,4.06,2.33,6.08,.68,2.02,1.05,3.87,1.14,5.56,.08,1.69-.39,2.99-1.42,3.89-.48,.42-1.14,.65-1.98,.66-.84,.02-1.64-.41-2.42-1.3-1.62-1.84-3.03-3.86-4.23-6.06-1.2-2.2-2.36-4.45-3.46-6.74-1.1-2.29-2.14-4.61-3.1-6.96-.97-2.35-2.05-4.62-3.26-6.82-5.7-10.78-11.52-21.55-17.45-32.32-5.93-10.77-11.04-21.71-15.33-32.82,1.66,7.15,3.57,14.35,5.73,21.58,2.16,7.24,4.14,14.37,5.93,21.4,1.8,7.03,3.39,14.11,4.78,21.24,1.39,7.13,2.72,14.25,3.98,21.36,.68,4.1,1.33,8.2,1.94,12.29,.61,4.09,1.53,8.15,2.75,12.17,.37,1.11,.57,2.24,.6,3.39,.03,1.15-.43,2.14-1.39,2.99-.76,.67-1.62,.83-2.57,.5-.96-.33-1.83-.94-2.61-1.82-1.16-1.32-2.12-2.76-2.88-4.32-.76-1.55-1.41-3.16-1.96-4.83-.55-1.67-1.04-3.33-1.46-4.98-.42-1.65-.84-3.21-1.27-4.66-1.34-4.3-2.82-8.54-4.44-12.74-1.61-4.19-3.39-8.5-5.33-12.93-1.76-3.8-3.46-7.75-5.11-11.85-1.65-4.09-3.45-8.15-5.41-12.18-1.95-4.02-4.08-7.96-6.37-11.82-2.29-3.86-4.9-7.44-7.81-10.75-1.23-1.4-2.64-2.8-4.24-4.2-1.6-1.4-3.3-2.68-5.1-3.83-1.81-1.15-3.67-2.09-5.59-2.82-1.92-.73-3.78-1.08-5.59-1.06l.97,1.1c2.59,2.95,4.72,6.2,6.38,9.75,1.67,3.56,2.68,7.27,3.03,11.14,.21,2.04,.31,4.2,.31,6.48,0,2.29-.18,4.5-.55,6.65-.37,2.15-.95,4.19-1.74,6.13-.79,1.94-1.95,3.57-3.46,4.9-2.34,2.05-5.09,3.11-8.27,3.16-3.18,.05-6.03-1.35-8.55-4.22-1.23-1.4-2.21-2.86-2.93-4.37-.72-1.52-1.37-3.01-1.92-4.47-4.62,.01-8.96-.7-13.03-2.15-4.07-1.44-7.34-3.56-9.8-6.36-2.07-2.35-3.47-4.88-4.19-7.57-.72-2.69-.89-5.38-.51-8.06,.38-2.68,1.31-5.3,2.79-7.84,1.48-2.54,3.42-4.87,5.83-6.98,2.54-2.23,5.54-3.95,8.99-5.16,1.08-.29,2.38-.59,3.89-.88,1.51-.28,3.14-.44,4.88-.47,1.74-.03,3.54,.15,5.4,.53,1.86,.39,3.61,1.1,5.25,2.13,1.47-.12,3.04-.42,4.69-.9,1.65-.47,3.25-.67,4.78-.59,4.34,.23,8.7,1.72,13.06,4.47,4.37,2.75,8.2,6,11.5,9.76,2.72,3.09,5.29,6.67,7.71,10.74,2.42,4.07,4.77,8.44,7.04,13.1,2.83,5.86,5.65,11.83,8.45,17.92,2.8,6.09,5.47,12.25,8.03,18.49-1.13-6.83-2.47-13.65-4-20.46-1.54-6.8-3.17-13.62-4.91-20.45-1.31-5.24-2.76-10.49-4.35-15.75-1.58-5.26-3.05-10.46-4.4-15.61-1.35-5.14-2.47-10.26-3.35-15.35-.89-5.09-1.32-10.13-1.3-15.1-.1-.95-.26-1.99-.46-3.12-.2-1.13-.35-2.2-.46-3.22-.1-1.02-.09-1.94,.03-2.77,.13-.83,.43-1.45,.91-1.88,.89-.78,2.09-1.02,3.58-.7,1.5,.32,2.76,1.06,3.8,2.24,.91,1.03,1.37,2.25,1.4,3.67,.35,4.13,1.07,8.32,2.18,12.56,1.11,4.24,2.5,8.56,4.18,12.96,1.7,3.6,3.5,7.1,5.41,10.51,1.9,3.41,3.71,6.92,5.41,10.51,3.02,6.35,6.05,12.63,9.07,18.84,3.02,6.22,6.15,12.4,9.38,18.57-1.34-4.57-2.62-9.11-3.86-13.64-1.24-4.52-2.39-9.06-3.46-13.6-1.25-5.16-2.15-10.24-2.71-15.24-.55-4.99-.86-9.91-.91-14.76-.06-4.84,.04-9.62,.28-14.34,.24-4.71,.53-9.44,.88-14.18,.2-2.26,.41-4.83,.63-7.7,.22-2.87,.61-5.72,1.16-8.56,.55-2.83,1.34-5.51,2.35-8.03,1.01-2.52,2.41-4.57,4.2-6.14,1.86-1.63,4.04-2.5,6.55-2.63,2.51-.12,5.78,.72,9.81,2.53ZM43.86,176.4c1,.17,2.1,.34,3.3,.53,1.2,.19,2.44,.24,3.71,.16-.45-3-.81-6.04-1.08-9.13-.27-3.09-.27-6.13,.02-9.12,.29-3,.93-5.87,1.91-8.63,.99-2.76,2.52-5.38,4.6-7.86-1.86-.45-3.64-.78-5.34-.98-1.7-.2-3.41-.17-5.12,.1-1.71,.27-3.45,.82-5.22,1.65-1.76,.83-3.61,2.1-5.53,3.79-1.99,1.75-3.52,3.65-4.59,5.7-1.06,2.05-1.75,4.11-2.04,6.2-.29,2.09-.15,4.12,.42,6.09,.58,1.97,1.54,3.73,2.9,5.28,2.91,3.31,6.93,5.39,12.06,6.23Zm24.62-24.38c-.32-.37-.63-.75-.92-1.15-.29-.4-.59-.78-.92-1.15-.58-.66-1.09-1.2-1.51-1.61-.42-.41-1.12-.19-2.08,.65-1.17,1.03-2.27,2.58-3.3,4.66-1.03,2.08-1.96,4.43-2.77,7.03-.81,2.61-1.41,5.35-1.8,8.24-.39,2.89-.48,5.61-.3,8.19,1.34-.13,2.61-.43,3.79-.89,1.18-.45,2.22-1.07,3.12-1.86,.76-.66,1.32-1.52,1.68-2.56,.37-1.04,.82-1.8,1.37-2.28,.48-.42,1.02-.57,1.62-.44,.6,.13,1.09,.41,1.48,.85,.45,.52,.64,1.14,.55,1.87-.09,.73-.33,1.46-.72,2.2-.39,.73-.86,1.44-1.42,2.13-.56,.69-1.08,1.24-1.55,1.66-1.17,1.03-2.5,1.84-3.99,2.43-1.49,.59-3.14,1.03-4.96,1.32,.37,1.11,.85,2.22,1.46,3.32,.6,1.1,1.29,2.09,2.07,2.98,1.29,1.47,2.97,2.41,5.03,2.82,2.06,.41,3.99-.18,5.77-1.75,1.92-1.69,3.28-4.06,4.08-7.11,.79-3.05,1.09-6.34,.9-9.89-.19-3.55-.86-7.07-1.99-10.58-1.13-3.5-2.7-6.53-4.7-9.08Z"/><path class="n" d="M207.72,153.21c.05-.61,.27-1.04,.65-1.28,.46-.29,1-.34,1.61-.15,.61,.2,1.1,.59,1.46,1.16,.31,.5,.46,.99,.43,1.46-.29,4.7-.86,9.46-1.72,14.28-.86,4.82-2.14,9.48-3.86,13.97-1.71,4.49-3.98,8.67-6.8,12.52-2.82,3.86-6.4,7.15-10.73,9.87-2.56,1.61-5.3,2.27-8.24,1.97-2.94-.29-5.64-2.39-8.09-6.29-2.5-3.98-4.27-8.6-5.31-13.85-1.03-5.25-1.77-10.29-2.2-15.11-.33-3.27-.48-6.73-.46-10.39,.02-3.66,.38-7.21,1.08-10.66,.7-3.45,1.88-6.68,3.55-9.7,1.67-3.02,4.09-5.52,7.27-7.52,1.86-1.17,3.76-1.76,5.7-1.76,1.94,0,3.67,1.19,5.18,3.6,1.83,2.91,2.81,6.19,2.96,9.86,.15,3.67-.29,7.27-1.31,10.81-1.02,3.54-2.53,6.8-4.54,9.8-2.01,3-4.25,5.28-6.73,6.83-.62,.39-1.29,.7-2.02,.92-.72,.23-1.4,.53-2.02,.92,.32,3.27,.85,6.76,1.56,10.48,.72,3.72,1.75,6.65,3.11,8.81,1.67,2.66,3.69,4.19,6.06,4.61,2.37,.42,4.72-.1,7.04-1.56,1.63-1.02,3.09-2.35,4.39-3.98,1.3-1.63,2.44-3.38,3.41-5.27,.98-1.89,1.84-3.82,2.6-5.8,.75-1.98,1.39-3.76,1.9-5.36,1.35-3.86,2.29-7.66,2.8-11.4,.51-3.74,.93-7.67,1.25-11.81Zm-24.02-13.2c-.31-.15-.61-.28-.9-.39-.29-.11-.66-.02-1.12,.27-1.47,.93-2.74,2.18-3.79,3.77-1.05,1.59-1.91,3.37-2.56,5.34-.65,1.97-1.17,4.03-1.54,6.18-.38,2.15-.61,4.18-.71,6.09,.03,.22,.06,.78,.08,1.68,.03,.91,.07,1.87,.11,2.88,.04,1.01,.07,1.92,.09,2.72,.02,.8-.02,1.23-.09,1.27,.44-.16,.81-.34,1.12-.53,.31-.19,.62-.39,.93-.58,2.56-1.61,4.66-3.8,6.32-6.58,1.66-2.78,2.75-5.72,3.28-8.83,.08-.39,.17-1.15,.28-2.26,.11-1.11,.18-2.29,.22-3.52s-.02-2.48-.15-3.72c-.13-1.24-.44-2.24-.91-2.99-.26-.41-.48-.68-.66-.8Z"/><path class="n" d="M215.79,145.03c.09,3.64,.38,7.21,.87,10.72,.48,3.51,1.52,6.95,3.1,10.32,.83,1.78,1.79,3.11,2.87,4.01,1.08,.9,2.21,1.48,3.39,1.74,1.18,.26,2.41,.25,3.7-.03,1.28-.28,2.55-.71,3.79-1.29,1.49-.7,3.1-1.95,4.84-3.74,1.74-1.79,3.4-3.95,4.99-6.49,1.59-2.53,3.03-5.32,4.33-8.37,1.3-3.05,2.29-6.19,2.99-9.45,.16-.73,.33-1.67,.49-2.83,.16-1.16,.34-2.29,.52-3.41,.18-1.11,.43-2.1,.74-2.95,.31-.85,.71-1.39,1.21-1.62,.5-.23,1.04-.22,1.62,.05,.58,.27,1,.67,1.25,1.2,.12,.27,.11,.98-.06,2.14-.16,1.16-.4,2.49-.71,3.98-.31,1.5-.65,2.98-1.01,4.46-.37,1.47-.7,2.66-.99,3.55-.86,2.68-1.98,5.59-3.34,8.71-1.36,3.13-2.94,6.17-4.73,9.13-1.8,2.96-3.81,5.66-6.04,8.12-2.23,2.46-4.63,4.29-7.2,5.49-3.56,1.67-7.26,1.76-11.1,.26-3.84-1.5-6.92-4.73-9.26-9.7-1.5-3.19-2.65-6.77-3.45-10.72-.8-3.95-1.39-8.01-1.77-12.16-.38-4.15-.64-8.31-.78-12.46-.13-4.16-.27-8.1-.4-11.83-.35-7.2-.79-14.38-1.33-21.55-.54-7.16-.77-14.34-.71-21.51,.03-3.16,.34-6.9,.94-11.24,.59-4.34,1.37-8.55,2.33-12.63,.96-4.08,2.06-7.65,3.3-10.73,1.23-3.07,2.56-4.94,3.96-5.6,.99-.47,2.05-.58,3.17-.35,1.12,.23,2.22,.69,3.3,1.37,1.08,.69,2.1,1.56,3.05,2.63,.96,1.07,1.71,2.18,2.25,3.33,1.21,2.57,1.97,5.27,2.29,8.1,.32,2.83,.42,5.73,.3,8.71-.12,2.98-.35,5.93-.69,8.85-.35,2.92-.58,5.66-.69,8.2-.64,11.13-2.1,22.21-4.39,33.25-2.29,11.04-4.61,21.82-6.95,32.34Zm-1.81-28.06c.17,2.09,.32,4.18,.45,6.28,.13,2.11,.28,4.2,.45,6.29,1.84-8.77,3.56-17.64,5.16-26.62,1.59-8.98,2.65-18.08,3.17-27.31,.12-2.33,.33-4.84,.63-7.53,.3-2.69,.53-5.33,.66-7.95,.14-2.61,.13-5.1-.02-7.46-.15-2.36-.64-4.43-1.48-6.21-.79-1.68-1.56-2.35-2.31-2-.5,.23-.95,.77-1.36,1.62-.41,.84-.79,1.75-1.14,2.73-.35,.98-.65,1.9-.89,2.78-.25,.88-.45,1.46-.62,1.75-1.69,3.72-2.92,8.14-3.7,13.27-.77,5.13-1.21,10.56-1.3,16.28-.09,5.73,.08,11.52,.51,17.38,.43,5.86,1.02,11.43,1.78,16.7Z"/><path class="n" d="M261.29,124.63c-.35,3.62-.49,7.21-.43,10.75,.06,3.54,.68,7.08,1.84,10.62,.61,1.86,1.4,3.31,2.37,4.33,.96,1.02,2.02,1.73,3.16,2.13,1.14,.4,2.37,.53,3.68,.41,1.31-.12,2.61-.4,3.92-.83,1.56-.52,3.32-1.56,5.25-3.13,1.94-1.57,3.85-3.52,5.73-5.84,1.88-2.32,3.65-4.92,5.31-7.79,1.65-2.87,3.02-5.87,4.1-9.02,.25-.7,.53-1.62,.83-2.75,.3-1.13,.61-2.24,.93-3.32,.32-1.08,.68-2.03,1.09-2.84,.41-.8,.87-1.29,1.4-1.47,.52-.17,1.05-.09,1.6,.25,.54,.34,.91,.78,1.09,1.34,.09,.28-.01,.99-.31,2.12-.3,1.13-.7,2.42-1.18,3.87-.48,1.45-1,2.88-1.54,4.3-.54,1.42-1.01,2.55-1.41,3.4-1.18,2.56-2.63,5.31-4.36,8.25-1.73,2.94-3.66,5.77-5.8,8.49-2.14,2.72-4.46,5.16-6.97,7.33-2.51,2.17-5.12,3.7-7.81,4.59-3.74,1.23-7.42,.88-11.05-1.07-3.63-1.95-6.31-5.53-8.03-10.74-1.11-3.35-1.82-7.04-2.13-11.06-.32-4.02-.41-8.12-.3-12.29,.12-4.17,.36-8.32,.73-12.47,.37-4.15,.71-8.07,1.02-11.79,.52-7.19,.94-14.37,1.27-21.55,.33-7.18,.96-14.32,1.88-21.44,.41-3.13,1.17-6.81,2.28-11.05,1.11-4.24,2.38-8.32,3.83-12.26,1.45-3.93,2.97-7.35,4.56-10.25,1.59-2.9,3.13-4.59,4.61-5.08,1.04-.34,2.11-.33,3.19,.03,1.08,.37,2.12,.95,3.11,1.76,.99,.81,1.9,1.8,2.72,2.97,.82,1.18,1.43,2.37,1.83,3.58,.89,2.7,1.32,5.47,1.3,8.32-.02,2.85-.27,5.74-.75,8.68-.47,2.94-1.06,5.85-1.75,8.71-.69,2.86-1.25,5.55-1.67,8.06-1.97,10.97-4.75,21.8-8.36,32.48-3.6,10.69-7.2,21.11-10.78,31.27Zm1.57-28.07c-.08,2.09-.18,4.19-.31,6.29-.12,2.11-.23,4.2-.31,6.29,2.88-8.48,5.66-17.09,8.32-25.81,2.66-8.72,4.8-17.63,6.42-26.73,.4-2.3,.91-4.76,1.53-7.39,.62-2.63,1.16-5.23,1.61-7.81,.45-2.57,.74-5.04,.88-7.41,.13-2.37-.11-4.48-.72-6.34-.58-1.77-1.27-2.52-2.05-2.27-.52,.17-1.04,.65-1.55,1.44-.51,.79-1,1.65-1.46,2.57-.47,.93-.87,1.81-1.22,2.65-.35,.84-.62,1.39-.82,1.67-2.13,3.49-3.88,7.73-5.26,12.73-1.38,5-2.47,10.33-3.24,16.01-.78,5.68-1.3,11.45-1.58,17.32-.28,5.87-.36,11.47-.24,16.8Z"/><path class="n" d="M412.11,83.65c-1.25,2.86-2.25,5.59-3,8.19-.75,2.61-1.52,5.38-2.32,8.33-.79,3.05-1.61,6.12-2.44,9.21-.84,3.1-1.24,6.16-1.21,9.2,.05,4.41,.95,7.49,2.7,9.23,1.75,1.75,3.73,2.61,5.93,2.59,1.83-.02,3.88-.6,6.16-1.75,2.27-1.15,4.48-2.67,6.61-4.55,2.13-1.88,3.98-4.01,5.56-6.38,1.58-2.37,2.63-4.83,3.15-7.38,.17-.78,.49-1.35,.94-1.7,.45-.35,.96-.52,1.5-.53,.46,0,.85,.14,1.17,.43,.32,.29,.49,.73,.49,1.32v.44c-.51,3.24-1.81,6.46-3.88,9.67-2.07,3.21-4.49,6.07-7.26,8.6-2.77,2.53-5.74,4.57-8.93,6.12-3.19,1.55-6.15,2.34-8.9,2.37-1.92,.02-3.73-.48-5.44-1.49-1.7-1.01-3.18-2.34-4.43-4-1.25-1.65-2.23-3.55-2.94-5.7-.71-2.15-1.07-4.4-1.1-6.75-.02-1.76,.38-3.24,1.19-4.42-1.17,1.68-2.64,3.68-4.4,6-1.76,2.32-3.71,4.59-5.83,6.82-2.13,2.23-4.33,4.11-6.6,5.65-2.27,1.54-4.51,2.32-6.7,2.35-1.83,.02-3.34-.43-4.54-1.35-1.2-.92-2.15-2.11-2.85-3.57-.7-1.46-1.22-3.02-1.56-4.69-.34-1.66-.51-3.23-.53-4.7-.03-3.43,.46-6.84,1.47-10.23,1.02-3.39,2.33-6.69,3.95-9.89,1.61-3.2,3.39-6.21,5.33-9.02,1.94-2.81,3.81-5.4,5.62-7.78,1.44-2.07,3.23-4.42,5.35-7.04,2.12-2.62,4.32-5.07,6.58-7.34,2.26-2.28,4.44-4.21,6.53-5.8,2.09-1.59,3.82-2.39,5.19-2.41,.37,0,.91,.06,1.65,.2,.73,.14,1.49,.38,2.27,.71,.78,.34,1.47,.75,2.07,1.23,.6,.49,.9,1.07,.91,1.75,0,.29-.04,.49-.13,.59,4.28-10.73,8.84-21.23,13.68-31.53,4.84-10.29,9.4-20.8,13.68-31.53,.45-1.08,1.06-1.87,1.83-2.37,.77-.5,1.57-.75,2.39-.76,1.01-.01,1.92,.32,2.76,1,.83,.68,1.25,1.56,1.26,2.63,0,.69-.12,1.37-.39,2.06-3.39,8.46-6.99,16.78-10.79,24.95-3.81,8.18-7.54,16.45-11.21,24.81-1.78,4.72-3.52,9.42-5.21,14.09-1.69,4.67-3.47,9.37-5.35,14.09Zm-5.86-9.2c.18-.49,.35-1.03,.53-1.62-.1-1.27-.32-2.62-.66-4.04-.34-1.42-.82-2.12-1.46-2.12h-.27c-1.82,.71-3.53,1.83-5.11,3.36-1.59,1.54-3.08,3.27-4.48,5.19-1.4,1.93-2.75,3.92-4.06,6-1.31,2.07-2.59,3.9-3.86,5.48-3.25,4.15-6.18,8.42-8.79,12.81-2.61,4.39-4.8,8.99-6.58,13.81-.18,.59-.49,1.4-.94,2.44-.45,1.03-.87,2.19-1.27,3.47-.4,1.28-.75,2.56-1.06,3.83-.31,1.28-.46,2.46-.44,3.53,.02,2.35,1.09,3.52,3.19,3.5,1.55-.02,3.15-.47,4.79-1.37s3.23-2.02,4.77-3.36c1.54-1.34,2.99-2.77,4.35-4.31,1.36-1.53,2.53-2.89,3.53-4.08,1.63-1.98,3.18-4,4.67-6.07,1.49-2.07,2.86-4.15,4.12-6.22,.95-5.1,2.25-10.21,3.89-15.33,1.64-5.11,3.35-10.08,5.13-14.9Z"/><path class="n" d="M493.38,116.47c.52-1.01,1.28-1.44,2.28-1.29,.54,.08,1.01,.33,1.42,.73,.4,.41,.55,.95,.45,1.63-.04,.29-.13,.53-.25,.71-1.08,2.22-2.5,4.6-4.28,7.16-1.77,2.56-3.75,4.93-5.94,7.13-2.18,2.2-4.53,3.95-7.04,5.25-2.51,1.31-5.03,1.77-7.57,1.38-3.35-.51-6-2.12-7.94-4.84-1.95-2.72-3.35-5.83-4.21-9.33-1.4,1.28-2.96,2.58-4.69,3.9-1.73,1.32-3.5,2.49-5.32,3.51-1.82,1.01-3.65,1.78-5.48,2.29-1.84,.52-3.62,.64-5.33,.38-2.89-.44-5.16-1.8-6.81-4.08-1.64-2.28-2.15-5.5-1.52-9.67,.69-4.55,2.22-9.15,4.59-13.8,2.37-4.65,5.29-9.13,8.77-13.47,3.48-4.33,7.37-8.35,11.68-12.06,4.31-3.71,8.76-6.95,13.34-9.73,.21-.17,.67-.49,1.4-.98,.72-.49,1.53-.96,2.43-1.42,.9-.46,1.77-.87,2.62-1.24,.84-.37,1.49-.52,1.94-.45,.45,.07,.81,.17,1.06,.31l.27,.04c.45,.07,.79,.25,1.03,.53,.23,.28,.47,.59,.69,.92l.54,.08c1.17,.18,2.1,.79,2.78,1.83,.67,1.04,1.14,2.25,1.39,3.63,.25,1.38,.36,2.81,.32,4.29-.04,1.48-.15,2.8-.32,3.96-.56,3.68-1.62,7.31-3.17,10.89-1.56,3.58-3.37,7-5.44,10.25-2.07,3.26-4.24,6.3-6.52,9.12-2.28,2.83-4.45,5.27-6.52,7.34,.49,2.85,1.44,5.6,2.85,8.24,1.4,2.64,3.33,4.15,5.77,4.52,1.9,.29,3.85-.11,5.87-1.19,2.01-1.08,3.94-2.53,5.79-4.33,1.84-1.8,3.56-3.8,5.14-5.99,1.58-2.19,2.88-4.25,3.92-6.17Zm-34.08,2.28c-.5-4.63-.35-9.62,.46-14.95,.47-3.1,1.14-6.05,2.03-8.84,.88-2.79,1.96-5.62,3.23-8.51-2.63,2.08-5.33,4.5-8.11,7.25-2.78,2.75-5.36,5.73-7.74,8.94-2.38,3.21-4.43,6.52-6.15,9.92-1.72,3.41-2.83,6.76-3.33,10.05-.21,1.36,.19,2.56,1.19,3.6,1,1.04,2.27,1.68,3.81,1.91,1.45,.22,2.89,.02,4.33-.61,1.44-.62,2.78-1.41,4.04-2.36,1.25-.95,2.42-1.94,3.5-2.96,1.08-1.03,2.04-1.87,2.88-2.54-.06-.21-.08-.36-.07-.46,.01-.1-.01-.25-.07-.46Zm7.89-26.46c-.78,2.06-1.44,4.15-1.99,6.24-.55,2.1-.99,4.26-1.33,6.49-.5,3.3-.66,6.79-.47,10.48,1.89-2.09,3.81-4.4,5.77-6.93,1.96-2.53,3.76-5.13,5.41-7.8,1.65-2.67,3.09-5.43,4.3-8.27,1.21-2.84,2.04-5.66,2.46-8.47,.18-1.16,.36-2.67,.55-4.53,.19-1.85-.06-3.28-.74-4.28-.84,1.26-1.98,2.25-3.43,2.97-1.45,.72-2.84,1.48-4.16,2.27-.63,.5-1.28,1.25-1.93,2.24-.66,.99-1.26,2.06-1.81,3.22-.55,1.16-1.04,2.3-1.49,3.42s-.83,2.1-1.14,2.95Z"/><path class="n" d="M564.57,126.02c.55-.54,1.18-.71,1.88-.49,.61,.19,1.07,.56,1.38,1.12,.3,.56,.37,1.12,.19,1.68-.15,.47-.35,.81-.61,1.04-1.37,1.32-2.83,2.61-4.37,3.87-1.54,1.27-3.1,2.5-4.68,3.7-1.57,1.2-3.09,2.37-4.54,3.51-1.46,1.14-2.77,2.19-3.94,3.16-1.63,1.24-3.32,2.5-5.07,3.81-1.75,1.3-3.57,2.45-5.46,3.45-1.9,1-3.84,1.7-5.83,2.11-2,.4-3.96,.3-5.88-.29-1.75-.55-3.07-1.75-3.97-3.63-.9-1.87-.88-4.3,.05-7.3,.67-2.15,1.63-4.21,2.87-6.19,1.24-1.97,2.43-3.71,3.56-5.2,2.6-3.71,5.31-7.17,8.14-10.4,2.83-3.22,5.83-6.39,9.01-9.51,.96-.93,1.99-1.92,3.08-2.96,1.09-1.04,1.84-2.22,2.25-3.53,.41-1.31,.26-2.07-.43-2.29-.61-.19-1.44-.09-2.47,.31-1.04,.4-1.89,.75-2.56,1.05-7.11,2.81-13.55,6.34-19.34,10.59-5.79,4.25-11.47,8.89-17.07,13.92-1.34,1.22-2.8,2.75-4.37,4.56-1.57,1.82-3.17,3.55-4.79,5.2-1.62,1.65-3.17,3.01-4.66,4.09-1.49,1.08-2.8,1.44-3.93,1.08-1.13-.35-2.01-1.06-2.64-2.13-.62-1.07-.73-2.26-.33-3.57,.23-.75,.69-1.43,1.36-2.04,3.99-3.58,7.8-7.39,11.41-11.45,3.61-4.05,7.17-8,10.67-11.84,1.6-1.76,3.32-3.51,5.16-5.24,1.84-1.74,3.61-3.52,5.33-5.34,1.72-1.82,3.29-3.77,4.7-5.85,1.41-2.07,2.5-4.33,3.26-6.76,.26-.84,.37-1.65,.33-2.44-.04-.78-.46-1.3-1.24-1.54-1.66-.52-3.53,.1-5.62,1.87-2.08,1.76-4.22,4-6.41,6.7-2.19,2.7-4.38,5.51-6.58,8.42-2.2,2.91-4.22,5.3-6.06,7.19-.67,.61-1.44,1.4-2.32,2.36-.88,.96-1.8,1.85-2.78,2.67-.98,.83-1.89,1.52-2.73,2.07-.84,.56-1.53,.75-2.05,.59-.52-.16-.94-.52-1.24-1.08-.3-.56-.37-1.12-.19-1.68,.61-1.35,1.82-2.74,3.61-4.19,1.79-1.44,3.42-2.81,4.88-4.1,1.54-1.57,3.03-3.19,4.46-4.84,1.43-1.66,2.8-3.36,4.11-5.11,1.31-1.75,2.74-3.63,4.29-5.67,1.54-2.03,3.2-3.88,4.96-5.53,1.76-1.66,3.61-2.9,5.55-3.73,1.94-.83,4-.91,6.18-.23,1.57,.49,2.96,1.34,4.17,2.53,1.21,1.2,1.55,2.64,1.02,4.32-.88,2.81-2.32,5.59-4.33,8.35-2.01,2.76-4.01,5.17-5.99,7.22,4.81-2.81,9.73-5.22,14.77-7.25,1.31-.51,2.72-1.12,4.24-1.83,1.51-.71,3.04-1.31,4.59-1.8,1.54-.49,3.09-.83,4.63-1.02,1.54-.19,3.06-.05,4.54,.42,1.75,.55,2.82,1.34,3.21,2.39,.39,1.05,.41,2.13,.06,3.25-.44,1.4-1.18,2.79-2.23,4.15-1.05,1.36-1.96,2.5-2.71,3.39-3.97,4.72-8.06,9.16-12.29,13.33-4.23,4.17-8.18,8.77-11.85,13.78-.32,.41-.81,1.06-1.46,1.93-.66,.87-1.36,1.89-2.1,3.04-.75,1.15-1.46,2.37-2.14,3.64-.69,1.28-1.2,2.47-1.55,3.6-.85,2.71-.27,4.38,1.74,5.01,1.05,.33,2.13,.38,3.25,.17,1.12-.21,2.24-.58,3.36-1.11,1.12-.52,2.19-1.11,3.21-1.77,1.02-.66,1.97-1.31,2.84-1.96,4.02-2.75,7.86-5.6,11.52-8.57,3.66-2.96,7.32-6.03,11-9.19Z"/><path class="n" d="M606.08,149.97c.54-.28,1.02-.33,1.43-.13,.5,.24,.82,.67,.98,1.29,.16,.62,.09,1.24-.2,1.86-.25,.53-.59,.91-1.01,1.15-4.13,2.26-8.46,4.32-12.99,6.17-4.54,1.85-9.16,3.25-13.87,4.2-4.71,.95-9.45,1.26-14.22,.94-4.77-.32-9.46-1.59-14.08-3.8-2.72-1.3-4.75-3.27-6.07-5.92-1.32-2.64-.99-6.04,1-10.2,2.03-4.24,4.99-8.21,8.88-11.89,3.89-3.68,7.75-6.99,11.6-9.93,2.59-2.02,5.44-4,8.54-5.94,3.11-1.94,6.3-3.53,9.59-4.78,3.28-1.25,6.65-1.98,10.09-2.18,3.44-.2,6.85,.51,10.24,2.13,1.98,.95,3.49,2.24,4.54,3.88,1.04,1.64,.95,3.74-.28,6.3-1.48,3.1-3.73,5.68-6.76,7.77-3.03,2.08-6.3,3.64-9.84,4.67-3.53,1.03-7.1,1.49-10.71,1.4-3.61-.09-6.73-.77-9.37-2.04-.66-.32-1.28-.72-1.85-1.21-.58-.49-1.19-.9-1.85-1.21-2.59,2.02-5.26,4.33-8.02,6.92-2.76,2.59-4.69,5.04-5.79,7.33-1.35,2.83-1.57,5.36-.66,7.59,.91,2.23,2.61,3.93,5.08,5.12,1.73,.83,3.63,1.36,5.71,1.59,2.07,.23,4.16,.25,6.28,.07,2.12-.18,4.21-.48,6.29-.9,2.08-.42,3.92-.84,5.55-1.26,3.99-.92,7.7-2.16,11.13-3.72,3.43-1.56,6.98-3.31,10.65-5.25Zm-1.67-27.36c-.04-.34-.09-.67-.15-.97-.06-.3-.34-.57-.83-.81-1.57-.75-3.31-1.15-5.21-1.19-1.91-.04-3.87,.19-5.88,.69-2.02,.5-4.03,1.17-6.05,1.99-2.02,.83-3.86,1.71-5.53,2.65-.17,.14-.63,.46-1.38,.97-.75,.51-1.54,1.05-2.38,1.63-.84,.58-1.59,1.09-2.25,1.53-.67,.44-1.04,.64-1.12,.6,.37,.29,.72,.51,1.05,.67,.33,.16,.66,.31,.99,.47,2.72,1.3,5.7,1.91,8.94,1.83,3.23-.08,6.31-.73,9.22-1.95,.37-.15,1.06-.47,2.06-.97,1-.5,2.03-1.07,3.09-1.7,1.06-.63,2.08-1.34,3.07-2.12,.98-.78,1.66-1.57,2.04-2.36,.21-.44,.32-.77,.32-.99Z"/><path class="n" d="M603.4,178.33c.14,1.18-.1,2.27-.71,3.27-.61,1-1.47,1.71-2.58,2.13-1.11,.41-2.25,.26-3.42-.45s-1.79-1.64-1.85-2.76c-.06-1.13,.21-2.19,.83-3.2,.61-1,1.43-1.74,2.46-2.2,1.03-.46,2.13-.34,3.3,.38,1.17,.71,1.83,1.66,1.97,2.83Zm81.02-96c-.12-1.22-.55-2.23-1.29-3.02-.75-.8-1.66-1.24-2.73-1.32-1.08-.08-2.08,.46-3,1.62-2.77,3.13-5.52,6.33-8.26,9.6-2.74,3.27-5.44,6.55-8.1,9.87-2.77,3.13-5.45,6.26-8.05,9.38-2.6,3.12-5.17,6.32-7.7,9.6-2.64,3.44-4.97,6.52-7,9.25-2.03,2.72-3.93,5.18-5.7,7.37-1.77,2.19-3.43,4.26-4.97,6.18-1.55,1.93-3.08,3.86-4.59,5.81-3.08,3.64-6.1,7.24-9.09,10.82-2.98,3.58-6.01,7.18-9.09,10.82-.57,.58-.8,1.18-.7,1.81,.1,.63,.32,1.14,.67,1.53,.35,.39,.78,.62,1.27,.69,.49,.07,.98-.2,1.47-.83,2.54-2.93,5.08-5.91,7.63-8.95,2.55-3.04,5.12-6.06,7.7-9.08,3.23-3.89,6.59-7.69,10.09-11.41,3.5-3.72,7.04-7.47,10.64-11.25,3.59-3.78,7.17-7.59,10.75-11.44,3.57-3.85,7.14-7.9,10.7-12.15,3.02-3.55,6.04-7.1,9.07-10.66,3.02-3.55,6.04-7.1,9.07-10.66,.92-1.16,1.32-2.35,1.21-3.57Z"/></g></g></g></g></svg>