<?xml version="1.0" encoding="UTF-8"?><svg xmlns="http://www.w3.org/2000/svg" viewBox="0 0 451.69 809.27"><defs><style>.d{fill:#efd486;}.e{fill:#eadec5;}.f{fill:#e8b667;}.g{fill:#fff;}.h{fill:#fff1d2;}.i{fill:#ffcb6e;}.j{fill:#849496;}.k{fill:#e2c756;}.l{fill:#c6ae4a;}.m{fill:#e26d52;}.n{fill:#3f3c36;}.o{fill:#717e7f;}.p{fill:#7fd0ff;}.q{opacity:.36;}</style></defs><g id="a"/><g id="b"><g id="c"><g><g><path class="o" d="M377.21,636.04c-2.13-6.25-5.19-12.19-9.04-17.56,10.3,9.79,25.27,14.42,39.29,12.17,.56-1.87-.16-4.05-1.71-5.22,14.33,6.33,30.47,8.48,45.95,6.12-12.18-17.28-24.37-34.56-36.55-51.83,7.4,5.38,15.87,9.29,24.76,11.44-4.15-12.96-15.8-21.79-26.62-30.03-40.39-30.77-77.92-65.27-111.98-102.93-4.78-5.29-9.78-10.84-16.48-13.29-5.29-1.93-11.1-1.72-16.7-1.17-38.11,3.71-80.13,35.97-63.65,79.15,6.26,16.4,23.03,28.31,35.83,39.33,19.39,16.7,38.93,33.65,60.44,47.61,22.85,14.83,48.74,26.43,76.47,26.22Z"/><path class="d" d="M289.49,809.27c2.08,0,2.08-3.23,0-3.23s-2.08,3.23,0,3.23h0Z"/><path class="m" d="M236.84,704.96c14.18,1.11,24.66,1.75,38.81,.34-6.22,3.15-10.29,5.15-13.7,8.7,5.83,2.49,15.12,6.94,20.95,9.43-9.59,1.86-19.18,3.71-28.77,5.57,2.89,4.12,5.77,8.23,8.66,12.35-14.55-7.35-29.11-14.7-43.66-22.06-4.08-2.06-8.4-4.35-10.6-8.36-2.72-4.96-.61-11.55,5.46-9.34,6.61,2.41,15.64,2.8,22.86,3.36Z"/><path class="m" d="M216.93,702.57c.37,2.88,.73,5.9-.27,8.58-1,2.68-5.57-1.37-8.17-2.37-7.57-48.9-12.5-91.77-18.19-140.92-.61-5.25-1.08-11.07,1.86-15.31,2.91-4.21,9.02-5.47,13.31-2.76,8.27,5.24,2.68,16.66,2.51,24.39-.32,14.36,.62,28.92,1.35,43.27,1.44,28.45,3.98,56.85,7.6,85.12Z"/><path class="e" d="M172.95,581.83c2.8,7.86,6.04,15.89,12.07,21.66,6.03,5.77,15.59,8.66,22.93,4.69,5.96-3.22,9.02-9.93,11.5-16.23,6.86-17.47,12.4-35.81,12.42-54.58,0-4.31-.33-8.8-2.47-12.54-4.43-7.76-14.64-9.61-23.56-10.17-10.97-.69-22.19-.91-33.14,.14-7.35,.71-14,2.02-14.48,10.46-.49,8.41,3.18,18.02,5.29,26.01,2.73,10.31,5.86,20.52,9.43,30.57Z"/><path class="h" d="M126.43,181.75c1.25-21.46,3.48-43.09,10.32-63.47,6.85-20.38,18.69-39.61,36.16-52.14,8.41-6.03,17.94-10.39,27.81-13.47,25.94-8.11,56.64-6.55,77.27,11.14,17.92,15.37,25.27,41.96,17.78,64.35-7.49,22.39-29.36,39.21-52.93,40.69-2.03,18.26,3.25,37.23,14.42,51.82,5.03,6.57,17.57,28.32,22.2,35.19,19.09,28.31,46.96,71.93,30.52,96.29-8.42,12.47-49.99-9.88-63.68-3.61-20.96,9.59-45.09,14.38-67.2,7.88-28.43-8.36-47.89-35.75-50.2-64.68-2.92-36.7-4.63-73.01-2.48-109.98Z"/><path class="m" d="M168.56,709.2c-14.2-.78-24.67-1.52-38.51-4.79,5.75,3.94,9.52,6.46,12.43,10.44-6.11,1.7-15.91,4.88-22.01,6.58l27.78,9.33c-3.4,3.7-6.81,7.4-10.21,11.09,15.4-5.36,30.79-10.73,46.19-16.09,4.32-1.5,8.9-3.2,11.62-6.88,3.35-4.56,2.13-11.36-4.18-9.98-6.87,1.51-15.87,.7-23.1,.31Z"/><path class="m" d="M187.43,708.97c.84,2.78,1.73,5.69,3.74,7.73s4.53-3.53,6.49-5.49c-13.01-47.74-25.97-88.9-40.8-136.11-1.59-5.05-3.53-10.55-7.94-13.23-4.37-2.66-10.47-1.32-13.28,2.91-5.42,8.15,4.34,16.31,7.64,23.3,6.14,12.98,11.22,26.66,16.4,40.07,10.28,26.57,19.53,53.54,27.74,80.83Z"/><path class="e" d="M125.84,587.54c4.96,6.71,10.39,13.46,17.83,17.23,7.44,3.77,17.43,3.77,23.3-2.16,4.77-4.81,5.76-12.12,6.3-18.87,1.5-18.71,1.48-37.86-3.93-55.83-1.24-4.13-2.87-8.33-6-11.29-6.48-6.14-16.8-4.95-25.49-2.9-10.7,2.52-21.5,5.56-31.68,9.74-6.83,2.81-12.81,5.99-10.83,14.21,1.97,8.19,8.27,16.32,12.61,23.36,5.6,9.08,11.55,17.94,17.89,26.52Z"/><path class="e" d="M7.39,352.54c-12.85,35.04-6.92,76.37,15.26,106.39,5.77,7.81,12.52,14.85,19.25,21.86-3.47-9.18-2.96-19.4-1.06-29.03,3.28-16.66,10.45-32.28,18.31-47.33,8.73-16.72,18.39-32.96,28.91-48.61,5.39-8.02,11.05-15.96,14.86-24.84,3.81-8.88,5.68-18.95,3.13-28.27-8.15-29.83-36.61-17.49-54.39-5.67-20.02,13.31-35.98,32.87-44.27,55.49Z"/><path class="j" d="M42.54,504.78c7.04,12.13,17.02,25.32,31.05,25.39,1.65,0,3.37-.2,4.72-1.15,3.31-2.34,2.53-7.37,1.39-11.26-10.85-36.97-21.82-74.22-39.85-108.28-1.32-2.5-2.8-5.1-5.26-6.48-2.46-1.39-6.18-.93-7.35,1.64-1.5,3.28,.79,9.08-2.79,9.56-3.53,.48-3.46-6.16-6.79-7.41-1.06,2.49-.6,5.33-.96,8.01-.36,2.68-2.2,5.65-4.9,5.49-2.32-.14-3.8-2.49-4.8-4.59-3.01-6.35-5.3-13.04-6.81-19.9-1.78,17.84,9.1,38.4,15.69,54.61,7.61,18.71,16.52,36.9,26.66,54.37Z"/><path class="h" d="M150.76,88.09c-14.61,8.8-34.42,76.76-36.06,93.73-1.64,16.97-1.92,34.26-6.79,50.6-11.35,38.11-29.33,64.54-51.7,97.42-19.8,29.1-30.79,64.45-29.08,99.61s16.51,69.85,42.03,94.1c21.92,20.83,50.87,33.44,80.69,38.43,29.82,4.99,60.53,2.66,90.1-3.62,19.1-4.05,38.09-9.85,54.69-20.12,17.15-10.61,31.29-25.79,41.71-43.06,32.37-53.61,28.47-133.36-13.49-179.84-10.87-12.04-50.17-8.6-62.33-54.74-5.5-20.88-41.27-59.75-9.7-102.78,41.55-56.63-30.64-111.54-100.09-69.71Z"/><path class="e" d="M231.32,167.31c-13.19-3.51-25.81-10.41-34.23-21.16,8.82,27.54,27.59,52.53,53.57,65.24-2.31-1.13-4.13-10.74-4.77-13.14-1.24-4.72-2.05-9.55-2.4-14.42-.17-2.33-.23-4.66-.19-6.99,.03-1.7,1.07-5.53,.3-7.01-1.21-2.34-9.36-1.73-12.29-2.51Z"/><path class="e" d="M272.34,355.47c-24.49,11.09-55.22,7.43-79.16-4.56-11.83-5.93-25.28-14.04-37.8-9.32-1.53,.57-3.01,1.36-3.97,2.55-2.68,3.31-.32,7.88,2.27,11.25,13.6,17.69,33.36,31.7,55.95,39.68-7.82-.3-15.65-.6-23.47-.9-2.59-.1-5.38-.15-7.54,1.1-5.95,3.45-1.28,11.67,4.35,15.51,8.24,5.64,18,9.56,28.25,11.34-8.54,1.02-22.72-3.83-23.59,5.94,.87,11.05,23.67,14.55,35.42,19.03-8.39-1.06-14.64,8.19-12.33,15.34,2.31,7.14,9.88,11.92,17.38,15.39,34.73,16.07,78.99,15.25,112.71-2.39,12.25-6.41,23.4-15.21,29.11-26.66,6.27-12.58,5.37-26.9,3.98-40.57-2.64-25.91-6.83-52.17-19.27-75.79-11.68-22.06-33.92-46.12-62.27-51.9,5.23,14.16,14.01,22.44,10.71,38.44-3.16,15.3-14.96,29.38-30.74,36.52Z"/><path class="n" d="M170.78,221.52c-7.67,4.7-14.41,11.34-17.84,19.65-3.2,7.74-3.36,16.41-2.51,24.75,1.04,10.26,3.55,20.38,7.41,29.94,6.33,15.67,16.53,31.54,13.03,48.08-2.25,10.62-10.42,19.67-20.6,23.45-10.18,3.78-22.03,2.35-31.3-3.31-9.01-5.51-15.36-14.5-20.18-23.9,9.53-8.25,19.07-16.5,28.6-24.75,4.8,5.55,9.59,11.09,14.39,16.64,1.39,1.61,2.9,3.29,4.94,3.88,3.27,.94,6.78-1.43,8.2-4.52,1.42-3.09,1.23-6.66,.8-10.04-2.01-15.58-8.62-30.17-12.23-45.46-3.62-15.29-3.77-32.73,5.79-45.2,3.15-4.11,7.19-7.44,11.35-10.51,12.01-8.84,25.44-15.75,39.61-20.41,2.8-.92,5.86-1.75,8.63-.75,3.93,1.41,5.78,6.49,3.72,10.09-2.19,3.83-7.22,4.21-11.09,4.28-11.21,.2-20.89,2.07-30.71,8.09Z"/><path class="j" d="M340.58,475.54c.56-.76,1.13-1.52,1.65-2.31-13.11,4.98-27.88,5.48-41.3,1.39-3.79-1.15-7.84-3.01-9.37-6.66-1.53-3.66,1.65-8.95,5.44-7.78-2.81-2.57-6.68-3.6-9.94-5.57-3.26-1.97-6.13-5.77-4.86-9.36,.65-1.85,2.25-3.17,3.82-4.34,8.81-6.56,18.84-11.23,28.8-15.86-9.92-.55-19.76-2.41-29.2-5.52-6.04-1.99-12.39-4.92-15.23-10.6-2.84-5.68,.43-14.4,6.78-14.43-5.1-1.22-10.05-3.05-14.71-5.45,3.42-4.81,9.17-7.87,15.06-8.03-5.45-1.16-10.7-3.25-15.45-6.16-1.56-.96-3.12-2.06-3.98-3.67-2.88-5.39,.86-8.87,4.81-12.22-22.62,6.58-48.78,2.46-69.73-8.03-11.83-5.93-25.28-14.04-37.8-9.32-1.53,.57-3.01,1.36-3.97,2.55-2.68,3.31-.32,7.88,2.27,11.25,13.6,17.69,33.36,31.7,55.95,39.68-7.82-.3-15.65-.6-23.47-.9-2.59-.1-5.38-.15-7.54,1.1-5.95,3.45-1.28,11.67,4.35,15.51,8.24,5.64,18,9.56,28.25,11.34-8.54,1.02-22.72-3.83-23.59,5.94,.87,11.05,23.67,14.55,35.42,19.03-8.39-1.06-14.64,8.19-12.33,15.34,2.31,7.14,9.88,11.92,17.38,15.39,34.65,16.03,78.78,15.25,112.47-2.26Z"/></g><g><path class="k" d="M206.95,13.08C218.67,4.31,233.33-1.02,247.92,.16c12.42,1.01,23.98,6.55,34.89,12.57,10.84,5.98,21.46,12.6,30.25,21.31,8.79,8.71,15.7,19.71,17.78,31.91,.73,4.26,.82,8.83-1.11,12.69-2.5,5.02-7.82,7.87-12.82,10.41-8.07,4.1-16.56,8.3-25.61,8.13-6.2-.11-12.16-2.28-17.99-4.42l-71.72-26.38c-7.96-2.93-26.62-10.53-23.16-21.42,1.23-3.86,8.98-11.62,11.78-15.22,4.86-6.23,10.4-11.94,16.73-16.68Z"/><path class="h" d="M136.86,129.66c14.85-15.55,17.54-36.7,35.95-47.81,18.41-11.1,39.88-18.1,61.31-16.34,10.31,.85,20.4,3.69,29.92,7.73,25.02,10.61,47.41,31.67,51.69,58.51,3.72,23.32-7.9,48.34-28.1,60.56-20.2,12.22-47.76,10.88-66.68-3.24"/><path class="h" d="M234.2,185.83c68.33-16.28,48.84-104.85-31.17-117.92-16.83-2.75-53.94,49.88-66.17,61.75"/><path class="i" d="M379.57,207.3c7.8,7.67,15.87,15.77,19.16,26.2,5.54,17.55-3.89,36.12-14.2,51.36,2.55-3.62,2.27-8.66,.4-12.67-1.87-4.01-5.11-7.21-8.36-10.22-29.96-27.81-69.82-43.26-105.66-62.93,3.41-6.94,7.93-19.59,6.1-27.11-.38-1.57,24.38-22.01,27.02-24.69,9.11-9.23,11.76-2.68,19.8,5.25,18.55,18.29,37.15,36.53,55.72,54.8Z"/><path class="f" d="M316.08,191.92c18.36,12.72,36.77,25.56,52.96,40.95,5.75,5.47,11.26,11.33,15.13,18.26,3.87,6.93,5.99,15.07,4.58,22.88-.59-8.97-4.58-17.47-10.04-24.61-5.47-7.14-48.62-40.69-55.7-46.23-24.07-18.82-26.43,7.64-52.2-8.78-2.43-1.55,1.32,2.56,0,0-.52-1.01,14.18-3.63,16.82-2.08,7.13,4.2,21.65-5.1,28.45-.39Z"/><g><path class="n" d="M266.74,123.48c-.8,.5-1.55,1.08-2.17,1.79-2.73,3.13-2.25,8.17,.14,11.57,1.94,2.77,5.4,4.8,8.68,3.95,.82-.21,1.6-.6,2.32-1.05,3.01-1.89,5.21-5.24,5.18-8.8-.04-6.91-8.56-10.94-14.15-7.46Z"/><path class="g" d="M269.23,125.9c-1.47,.63-2.78,1.91-2.95,3.5s1.15,3.32,2.74,3.18c1.58-.14,2.62-1.86,4.18-2.16,1.03-.2,2.17,.25,3.11-.21,2.28-1.11,.23-3.34-1.1-4.06-1.77-.97-4.14-1.03-5.98-.25Z"/></g><path class="j" d="M262.39,111.89c.16,.97,1.2,1.51,2.11,1.89,5.12,2.16,10.27,4.32,15.68,5.59,5.73,1.35,12.65,1.95,18.2-.47,3.91-1.71,7.65-6.56,3.29-10.18-3.46-2.87-39.11,4.15-39.28,3.16Z"/><path class="e" d="M220.9,190.31c.59-2.56-6.01-7.38-7.74-9.87-7.78-11.21-12.93-24.64-12.4-38.28"/><path class="l" d="M309.15,107.82c10.96-10.46,21.47-21.39,31.48-32.76-9.43-6.73-18.24-14.34-26.26-22.7-6.46,6.25-12.55,12.87-18.24,19.82-.84-8.38-1.68-16.76-2.52-25.14-.14-1.4-.33-2.91-1.28-3.95-.7-.76-1.71-1.15-2.68-1.51-39.15-14.31-82.65-16.44-123.01-6.04,5.68-1.46,11.18,27.01,12.31,30.08,3.89,10.57,15.69,8.54,24.98,9.14,23.56,1.52,46.92,6.78,68.93,15.29,12.57,4.86,24.73,10.8,36.28,17.75Z"/><g class="q"><path class="g" d="M229.55,10.85c-2.82,1.72-5.74,4.75-4.66,7.87,.63,1.8,2.49,2.95,4.38,3.21,1.89,.26,3.8-.21,5.61-.81,4.83-1.6,9.4-4.1,14.42-4.9,6.48-1.03,13.03,.87,19.58,1.08,1.17,.04,2.4,.01,3.44-.53,1.04-.54,1.83-1.74,1.53-2.87-.21-.78-.86-1.36-1.5-1.84-11.87-8.92-30.46-8.72-42.79-1.22Z"/></g></g><path class="p" d="M259.86,180.59h0c-6.01,0-10.89-4.88-10.89-10.89l10.9-25.76,11.82,24.82c0,6.53-5.3,11.83-11.83,11.83Z"/></g></g></g></svg>