<?xml version="1.0" encoding="UTF-8"?><svg xmlns="http://www.w3.org/2000/svg" viewBox="0 0 838.75 799.37"><defs><style>.d{fill:#f0f6fc;}.e{fill:#eadec5;}.f{fill:#e8b667;}.g{fill:#fff;}.h{fill:#fff1d2;}.i{fill:#ffcb6e;}.j{fill:#849496;}.k{fill:#dce1e5;}.l{fill:#e26d52;}.m{fill:#15857f;}.n{fill:#0e5955;}.o{fill:#3f3c36;}</style></defs><g id="a"/><g id="b"><g id="c"><g><path class="n" d="M242.02,388.14c-2.67,2.95-5.51,7.07-3.58,10.55,.98,1.78,2.94,2.74,4.8,3.56,19.59,8.62,40.78,12.99,61.97,16.03,15.15,2.17,30.53,3.68,45.75,2.03,30.66-3.32,58.54-19.16,83.64-37.08,19.12-13.65,37.23-28.7,54.14-44.99,4.03-3.88,8.1-8.01,10.01-13.27,1.9-5.24,1.42-11.02,.43-16.51-3.42-18.88-12.85-36.63-26.59-50.04-.88-.86-1.84-1.74-3.04-2.04-1.42-.35-2.9,.18-4.26,.7-31.92,12.21-63.45,25.41-94.98,38.6-7.85,3.28-19.25,7.46-26.6,11.74-10.76,6.27-16.68,13.67-27.18,20.35-11.21,7.13-26.85,9.98-36.51,18.66-13.79,12.37-25.56,27.97-37.98,41.71Z"/><path class="o" d="M326.88,173.36c-3.84,6.82-6.44,14.26-9.49,21.46-17.85,42.16-52.15,77.1-93.97,95.72,5.33-.18,10.67-.36,16-.54-1.5,4.21-3.54,8.23-6.05,11.93,5.82-2.63,11.46-5.68,16.84-9.12,6.87-4.39,13.32-9.4,19.55-14.65,29.94-25.27,54.9-56.42,73.04-91.15,3.74-7.16,7.24-14.64,8.23-22.66,.36-2.89,.24-6.19-1.85-8.22-6.47-6.3-19.85,12.89-22.29,17.24Z"/><path class="o" d="M324.09,150.87c-14.55,16.95-26.41,36.46-43.61,50.71-13.9,11.51-30.77,19.08-48.21,23.7-17.45,4.62-35.52,6.41-53.55,7.28,6.69,2.49,13.39,4.98,20.08,7.47-4.94,3.97-10.77,6.84-16.93,8.34,49.37,3.6,98.61-19.54,132.33-55.79,15.31-16.46,28.1-35.76,46.76-48.3,2.02-1.36,4.39-3.26,3.89-5.64-.49-2.35-3.4-3.18-5.79-3.38-15.5-1.28-25.13,4.17-34.96,15.62Z"/><path class="e" d="M460.21,297.76c32.98-5.61,59.95-29.75,79.79-56.7,29.1-39.52,46.91-87.27,50.79-136.2,.71-8.93,1.96-19.54,9.9-23.67,10.04,22.12-2.9,49.04,5.09,71.98,14.06-18.89,11.97-45.18,20.99-66.94,1.28-3.09,3.2-6.43,6.47-7.14,2.27-.5,4.63,.45,6.54,1.78,9.82,6.81,9.9,21.03,8.96,32.94-1.44,18.15-2.88,36.3-4.32,54.45,1.91-5.11,4.25-10.06,6.99-14.78,1.06-1.84,2.45-3.82,4.56-4.11,4.65-.64,5.62,6.39,4.55,10.96l-8.79,37.61c-1.94-5.9,7.4-10.23,12.43-6.6,5.04,3.63,5.95,10.69,5.81,16.9-.53,22.79-9.32,44.59-19.89,64.79-37.08,70.84-98.34,128.74-171.14,161.78-16.9,7.67-34.69,14.1-53.22,15.28-6.98,.44-14.24,.08-20.51-3.01-10.39-5.11-16.03-16.64-18.74-27.9-5.75-23.94-1.14-50.18,12.43-70.73,13.57-20.54,35.9-35.09,60.17-39.19-1.11,2.32-2.23,4.64-3.34,6.95l4.48-18.44Z"/><path class="j" d="M599.06,347.13c20.23-22.43,37.7-47.35,51.72-74.11,10.57-20.19,19.36-42,19.89-64.79,.14-6.2-.77-13.27-5.81-16.9-3.39-2.44-8.71-1.28-11.25,1.53,2.53-10.85,5.07-21.7,7.6-32.54,1.07-4.57,.1-11.6-4.55-10.96-2.1,.29-3.49,2.28-4.56,4.11-2.73,4.72-5.07,9.67-6.99,14.78,1.44-18.15,2.88-36.3,4.32-54.45,.94-11.91,.86-26.13-8.96-32.94-1.91-1.32-4.27-2.27-6.54-1.78-3.27,.71-5.19,4.05-6.47,7.14-9.01,21.76-6.93,48.05-20.99,66.94-8-22.94,4.95-49.86-5.09-71.98-7.95,4.14-9.19,14.74-9.9,23.67-2.4,30.25-10.13,60.04-22.55,87.72,8.92-.63,16.16,.23,14.06,12.72-1.13,6.74-2.9,13.37-5.26,19.77,4.83-6.8,11.3-12.42,18.71-16.24,2.12-1.09,4.83-2,6.74-.57,1.69,1.27,1.84,3.72,1.73,5.83-.48,9.05-2.93,18-7.12,26.04,3.55-4.05,7.31-8.24,12.37-10.09,5.05-1.85,11.75-.39,13.94,4.53,1.06,2.39,.91,5.12,.56,7.71-1.14,8.53-4.13,16.81-8.72,24.1,3.65-2.97,8.38-6.13,12.7-4.26,5.96,2.58,4.78,11.31,2.43,17.36-9.02,23.27-20.28,45.58-32.02,67.63Z"/><g><path class="o" d="M462.13,132.85c3.94,1.23,193.01-65.46,193.01-65.46l13.14,46.99-198.57,31.97-7.59-13.5Z"/><polygon class="o" points="636.3 64.36 652.81 124.14 822.63 99.49 779.05 21.53 636.3 64.36"/><path class="o" d="M774.11,7.06c2.46,3.36,36.15,103.3,36.15,103.3l28.5-4.44L801.03,0l-26.92,7.06Z"/><polygon class="o" points="464.61 122.01 478.56 154.44 465.97 157.66 453.29 123.77 464.61 122.01"/></g><path class="l" d="M370.46,743.99c.27,3.18,.54,6.52-.69,9.43s-6.07-1.77-8.87-2.98c-6.07-54.12-9.52-101.49-13.52-155.8-.43-5.81-.68-12.22,2.75-16.75,3.39-4.49,10.17-5.6,14.76-2.42,8.85,6.14,2.18,18.45,1.64,26.94-1.01,15.78-.65,31.83-.51,47.64,.27,31.35,1.75,62.7,4.44,93.95Z"/><path class="l" d="M394.55,746.84c16.79,2.02,29.21,3.31,46.09,2.34-7.55,3.43-12.48,5.6-16.71,9.66,6.8,3.25,17.62,9,24.42,12.25-11.49,1.73-22.97,3.46-34.46,5.19,3.22,5.03,6.45,10.07,9.67,15.1-16.92-9.46-33.85-18.92-50.78-28.38-4.75-2.65-9.77-5.59-12.18-10.46-2.99-6.03-.15-13.75,6.95-10.82,7.73,3.19,18.45,4.1,26.99,5.13Z"/><path class="e" d="M335.53,596.86c1.93,7.03,4.25,14.23,9.13,19.64,4.88,5.41,13.03,8.54,19.67,5.55,5.4-2.43,8.49-8.07,11.05-13.41,7.09-14.78,13.08-30.4,14.3-46.75,.28-3.76,.28-7.69-1.35-11.08-3.36-7.04-12.14-9.31-19.87-10.36-9.51-1.3-19.27-2.21-28.88-2-6.45,.15-12.32,.86-13.28,8.18-.96,7.3,1.62,15.9,2.95,22.99,1.72,9.16,3.79,18.25,6.27,27.23Z"/><path class="l" d="M220.76,750.29c12.64,9.22,22.09,15.88,36.16,22.73-7.65-.64-12.61-1.12-17.86,.24,4.02,5.7,10.16,15.24,14.18,20.94-10.06-3.8-20.12-7.59-30.17-11.39,.33,5.52,.65,11.04,.98,16.57-9.39-15.29-18.78-30.59-28.17-45.88-2.63-4.29-5.36-8.93-5.11-13.95,.31-6.22,6.1-11.17,10.51-5.6,4.8,6.07,13.04,11.65,19.48,16.35Z"/><path class="l" d="M203.48,736.55c-1.32,2.91-2.72,5.95-5.21,7.89-2.49,1.94-4.43-4.51-6.28-6.94,21.15-50.19,41.27-93.2,64.32-142.55,2.46-5.27,5.38-11,10.58-13.28,5.16-2.26,11.62,.08,14.06,5.1,4.72,9.68-7.11,17.16-11.73,24.31-8.59,13.27-16.12,27.46-23.72,41.32-15.08,27.49-29.1,55.57-42.03,84.14Z"/><path class="e" d="M291.14,598.88c-5.07,5.24-10.55,10.45-17.43,12.86-6.88,2.41-15.52,1.25-19.93-4.56-3.57-4.72-3.59-11.15-3.28-17.06,.86-16.37,3.09-32.95,9.85-47.88,1.55-3.43,3.44-6.88,6.5-9.08,6.32-4.57,15.12-2.35,22.41,.43,8.97,3.42,17.97,7.29,26.3,12.09,5.59,3.22,10.4,6.66,7.74,13.55-2.65,6.86-9.04,13.18-13.61,18.77-5.9,7.21-12.07,14.2-18.55,20.89Z"/><path class="h" d="M.19,466.56c.96-3.31,5.13-4.25,8.56-4.55,19.56-1.74,39.27-1.83,58.85-.27-12.54-1.57-24.85-4.95-36.43-10.01,6.09-2.61,12.65-4.12,19.26-4.44-11.19-2.76-21.94-7.28-31.73-13.35-1.62-1-3.3-2.15-4.04-3.9-2.08-4.92,4.31-9.03,9.5-10.29,26.37-6.38,47.7-7.46,84.56-7.43,46.36,2.16,174.39-25.23,235.83-68.01,20.58-14.33,46.64-28.85,61.19-49.18,.04-.65,.08-1.3,.13-1.95,.85-10.15,4.92-20.92,13.84-25.84,6.23-3.43,13.7-3.43,20.81-3.34,10.27,.13,11.99-9.49,21.33-5.22,33.38,15.26,59.91,82.33,52.26,148.93-4.37,38.06-25.59,68.54-52.5,95.81-14.02,14.2-31.01,25.21-48.9,34.06-56.39,27.87-121.72,34.41-184.13,26.53-62.41-7.87-122.35-29.49-179.58-55.59,6.66-5.61,15.85-8.1,24.44-6.62-23.58-5.53-46.34-14.56-67.31-26.68-3.29-1.9-7.02-5.02-5.96-8.67Z"/><path class="h" d="M338.93,251.14c-4.34-19.58-7.85-39.55-6.9-59.58,.96-20.03,6.68-40.3,19.17-55.99,6.01-7.55,13.45-13.89,21.52-19.17,21.21-13.88,49.16-20.3,72.17-9.67,20,9.23,33.36,31.22,32.34,53.22-1.02,22-16.37,42.66-37.14,49.99,2.83,16.9,24.5,43.89,35.52,58.31,4.69,6.14,49.34,96.99,38.75,113.78-7.49,11.88-14.74-20.84-25.43-11.74-16.36,13.94-36.8,24.39-58.3,24.18-27.64-.27-52.08-19.88-61.51-45.26-11.97-32.19-22.74-64.34-30.22-98.06Z"/><g><path class="j" d="M124.44,501.85c.56,.02,1.12,.09,1.67,.24-.58,0-1.13-.1-1.67-.24Z"/><path class="j" d="M121.6,533.22c3.29,2.7,6.57,5.4,9.86,8.09-28.06-9.32-55.55-20.59-82.44-32.85,6.66-5.61,15.85-8.1,24.44-6.62-23.58-5.53-46.34-14.56-67.31-26.68-3.29-1.9-7.02-5.02-5.96-8.67,.96-3.31,5.13-4.25,8.56-4.55,19.56-1.74,39.27-1.83,58.85-.27-12.54-1.57-24.85-4.95-36.43-10.01,6.09-2.61,12.65-4.12,19.26-4.44-11.19-2.76-21.94-7.28-31.73-13.35-1.62-1-3.3-2.15-4.04-3.9-2.08-4.92,4.31-9.03,9.5-10.29,26.37-6.38,47.7-7.46,84.56-7.43,10.1,.47,24.08-.46,40.4-2.65-5.63,2.1-11.74,3.26-16.21,7.39-4.17,3.85-9.07,15-1.76,18.86-2.77-1.46-6.66-.01-7.8,2.9-1.14,2.92,.74,6.62,3.77,7.42-5.18,.96-10.82,2.18-14.11,6.3-4.55,5.72-2.17,14.7,3.17,19.69,5.34,4.99,12.74,7,19.81,8.85-6.31-.82-13.53,1.24-16.67,6.77-2.86,5.03-.17,12.67,5.12,14.06-3.38-.12-6.83,1.98-8.06,5.16-1.44,3.71,.33,8.37,3.87,10.19-3.61-.42-6.17,4.09-5.3,7.62,.87,3.53,3.84,6.09,6.65,8.39Z"/></g><path class="i" d="M464.41,173.38c-2.68-5.15-6.17-10.2-9.92-12.46-1.29-.78,1.38-30.6,1.34-34.11-.15-12.1,5.93-9.56,16.47-9.69,24.3-.32,48.6-.7,72.89-1.05,10.2-.15,20.87-.19,29.95,4.46,15.28,7.83,21.42,26.26,24.77,43.09-.73-4.07-4.26-7.19-8.15-8.57s-8.13-1.33-12.26-1.16c-38.1,1.65-74.47,17.97-111.02,28.85-.93-2.67-2.33-6.03-4.06-9.36h0Z"/><path class="f" d="M493.35,148.11c20.48-3.84,41.07-7.64,61.89-8.29,7.4-.23,14.9-.05,22.03,1.93,7.13,1.98,13.93,5.91,18.18,11.96-6.34-5.49-14.59-8.42-22.91-9.47-8.32-1.05-16.76-.34-25.08,.72-28.27,3.63-55.82,11.36-83.61,17.69-2.62,.6-5.39,1.18-7.96,.37-1.01-.32-2.02-.91-2.47-1.87-1.86-3.99,14.51-7.48,17.27-8.21,7.46-1.98,15.06-3.41,22.64-4.84Z"/><g><path class="o" d="M429.98,137.64c-.33,.81-.58,1.67-.66,2.54-.35,3.86,2.77,7.4,6.43,8.66,2.98,1.03,6.71,.67,8.71-1.77,.51-.61,.88-1.32,1.17-2.06,1.24-3.08,1.06-6.81-.9-9.48-3.81-5.19-12.45-3.58-14.77,2.11Z"/><path class="g" d="M433.17,138.1c-.77,1.28-1.05,2.96-.32,4.26,.74,1.3,2.68,1.88,3.81,.9,1.11-.97,.96-2.84,1.97-3.92,.67-.71,1.77-1,2.23-1.86,1.12-2.08-1.65-2.64-3.05-2.47-1.87,.24-3.69,1.49-4.65,3.09Z"/></g><path class="j" d="M441.35,118.23c-.66-.64-1.73-.48-2.63-.27-5.04,1.19-10.11,2.39-14.89,4.4-5.06,2.13-10.61,5.48-13.45,10.36-2.01,3.44-2.16,9.15,3.11,9.48,4.18,.26,27.19-24.63,27.86-23.98Z"/><g><path class="e" d="M415.59,389.59c4.67,13.63,6.72,28.38,4.09,42.54-3.47,18.7-14.98,35.32-29.72,47.34-14.74,12.03-32.55,19.78-50.8,25.15-41.8,12.29-87.09,12.46-128.99,.48-11.87-3.39-24.01-8.11-31.99-17.52-2.43-2.86-4.46-6.29-4.64-10.04-.18-3.75,1.96-7.79,5.57-8.81-6.05-1.45-13.42-4.56-13.46-10.78-.05-6.2,7.21-9.42,13.19-11.05,8.91-2.44,17.82-4.88,26.73-7.32-11.43,.59-33.22,3.05-34.27-1.09-1.39-4.5,10.67-6.9,16.93-7.21-4.35,0-10.87,.4-12.61-2.86-2.06-4.37,16.45-8.69,25.26-11.73,43.73-15.09,86.92-31.73,129.45-49.9,15.26-6.52,37.94-18.31,55.12-13.4,15.24,4.35,25.4,22.4,30.14,36.21Z"/><path class="j" d="M239.93,509.89c2.19,.88,4.41,1.7,6.64,2.48-12.3-1.44-24.48-3.86-36.39-7.26-11.87-3.39-24.01-8.11-31.99-17.52-2.43-2.86-4.46-6.29-4.64-10.04-.18-3.75,1.96-7.79,5.57-8.81-6.05-1.45-13.42-4.56-13.46-10.78-.05-6.2,7.21-9.42,13.19-11.05,8.91-2.44,17.82-4.88,26.73-7.32-11.43,.59-33.22,3.05-34.27-1.09-1.39-4.5,10.67-6.9,16.93-7.21-4.35,0-10.87,.4-12.61-2.86-2.06-4.37,16.45-8.69,25.26-11.73,16.27-5.61,32.47-11.45,48.59-17.49-.89,.78-1.6,1.74-1.7,3.25-.23,3.21,2.46,6.34,5.67,6.61-3.33-.6-6.72,2.1-7.39,5.42-.68,3.32,1.02,6.83,3.72,8.87,2.7,2.04,6.23,2.75,9.61,2.56-6.22,1.63-12.32,3.73-18.22,6.26-3.02,1.29-6.03,2.73-8.45,4.95-2.42,2.22-4.19,5.34-4.08,8.62,.18,5.59,5.45,9.58,10.51,11.96-3.65,.7-7.4,1.49-10.49,3.57-3.09,2.07-5.4,5.74-4.78,9.41,.84,4.96,6.18,7.59,10.86,9.44-6.74,.38-12.4,7.18-11.55,13.87,.51,4.02,3,7.58,6.13,10.15,3.13,2.57,6.88,4.25,10.64,5.76Z"/><path class="m" d="M296.08,411.32c.53,1.47,2.2,1.9,3.55,1.48,1.02-.32,2.03-.69,3.01-1.13-7.67,18.26-1.54,38.64,10.14,47.8,5.53,4.34,12.58,6.11,19.44,6.92,3.77,.44,9.97,.97,13.76,.63l-1.41,1.52c-1.04,1.11-.48,2.96,.55,3.81,1.22,1,2.84,.48,3.81-.55l8.64-9.28c.72-.78,.64-2.14,.15-2.98-.54-.92-1.61-1.5-2.69-1.34-1,.15-1.54,.03-2.62-.19h0c-2.53-.76-4.41-1.62-6.74-2.07-1.49-.29-2.81,.99-3.04,2.36-.26,1.51,.96,2.77,2.36,3.04,.16,.03,.59,.04,.7,.15-.55-.14-.38-.11,.33,.11-3.98,.45-13.66-.47-18.13-1.38-5.66-1.15-9.32-3.06-12.06-5.26-.6-.48-1.35-1.14-1.89-1.72,9.34-9.43,18.9-18.29,29.91-27.53,.6,.62,1.26,1.2,1.97,1.7,1.06,.76,2.44,.52,3.26-.47,.78-.96,.52-2.55-.47-3.26-.6-.43-.84-.65-1.18-.94h0c.05,.05,.05,.05,0,0,3.39-2.78,6.83-5.51,10.3-8.19,6.4,5.21,15.48,2.32,19.11-5.19,2.5-5.17,1.77-9.46-1.81-13.55-.11-.12-3.29-3.75-9.01-3.1-2.94,.34-6.02,1.32-8.29,3.28-4.06,3.5-5.56,9.38-3.34,14.27-5.56,4.29-7.86,6.2-9.75,7.74-.08-.31-.09-.68-.13-.94-.19-1.29-1.34-2.11-2.61-2-1.24,.11-2.18,1.41-2,2.61,.18,1.19,.5,2.35,.96,3.45-10.53,8.81-20.64,18.11-30.29,27.87-6.1-9.16-7.9-22.25-3.32-34.15,.26,.95,.55,1.89,.91,2.81,.55,1.42,2.19,1.97,3.55,1.48,1.4-.51,1.99-2.23,1.48-3.55-3.31-8.49,.87-12.05-2.51-13.94-.85-.48-2.22-.53-2.99,.21-1.44,1.37-3.11,2.83-4.91,3.72,.5-.25-2.14,1.26-5.21,2.21-1.46,.45-1.94,2.27-1.48,3.55Zm62.14-7.83c.01-.06,0-.04,0,0h0Zm3.52,8.22c.18,.08,.17,.11,0,0h0Zm-.34-.22c1.2-1.97-.47-4.8-3.11-4.01-.37-1.09-.42-2.8-.01-4.12,1.8-5.75,8.73-7.1,11.95-5.44,6.03,3.57,2.17,9.96,2.09,10.12-1,1.55-1.61,2.38-3.35,3.43-1.36,.72-2.33,.96-3.44,1.06-1.83,.16-3.37-.55-4.12-1.04Z"/></g><path class="d" d="M303.13,123.69c-4.97-1.56-10.35-4.17-11.89-9.14-1.27-4.1,.61-8.65,3.62-11.71,3.01-3.06,7-4.92,10.9-6.72,43.67-20.19,116.53-68.12,135.25-56.95,11.54,6.88-5.74,22.57-8.45,31.34-.85,2.75-1.35,1.6-2.71,4.13-1.44,2.66-3.4,5-5.45,7.24-11.89,13.01-26.72,23.08-42.44,31.04-18.81,9.52-38.82,14.64-59.92,14.4-6.3-.07-12.93-1.73-18.91-3.61Z"/><path class="k" d="M428.21,38.46c2.41,.68,4.4,1.99,5.18,4.34,1.2,3.59-1.41,7.33-4.29,9.78-6.63,5.63-15.2,8.28-23.37,11.26-24.13,8.8-46.64,21.57-67.92,35.94-7.57,5.11-15.05,10.46-23.29,14.4-6.28,3-13.12,5.14-20.03,5.54,2.38,2.08,5.62,3.45,8.7,4.42,5.97,1.88,12.61,3.54,18.91,3.61,15.18,.17,29.8-2.44,43.81-7.46,10.07-5.34,20.25-10.46,30.66-15.12,10.24-6.42,19.75-13.95,27.89-22.85,2.04-2.23,4.01-4.57,5.45-7.24,1.37-2.53,1.86-1.38,2.71-4.13,2.71-8.77,19.99-24.46,8.45-31.34-3-1.79-7.4-2.05-12.85-1.16Z"/><path class="o" d="M322.63,127.18c13.03-3.31,25.49-8.53,37.73-14.07,25.54-11.55,50.62-24.72,72.2-42.61-.16,9.98-.33,19.97-.49,29.95,0,.58-.02,1.17-.23,1.7-.32,.83-1.04,1.42-1.74,1.97-15.28,11.91-33.01,20.19-50.58,28.36-10.88,5.06-22.15,10.81-33.9,13.55-5.06,1.18-6.42-1.06-9.88-4.63-4.49-4.63-8.87-9.37-13.11-14.24Z"/><path class="m" d="M497.17,337.86c-1.75-28.84-10.83-57.2-26.16-81.69,13.61,11.62,28.16,22.12,43.48,31.37-2.41,24-5.54,47.92-9.39,71.73-9.84-2.55-19.97-3.73-30.06-4.9-16.46-1.91-32.91-3.82-49.37-5.74-46.51-5.41-109.4,4.21-156.07,8.03,19.57-21.88,39.24-37.92,74.11-49.23,4.74,10.66,21.55,8.95,32.25,10.24,13.7,1.66,27.44,3.03,41.16,4.63,13.66,1.59,27.31,3.37,40.84,5.85,3.74,.69,39.22,6.83,39.22,9.71Z"/><path class="m" d="M478.01,406.86c-2.45,19.37-4.22,39.16-11.6,57.24,23.08-29.83,36.71-66.87,38.47-104.55,1.96,12.43,3.92,24.91,4.15,37.49,.23,12.58-1.34,25.36-6.19,36.97-2.52,6.03-5.91,11.7-8.01,17.89,10.96-11.57,19.49-25.43,24.88-40.43,1.7-4.74,3.1-9.62,3.63-14.63,.7-6.63-.14-13.32-1.42-19.86-1.26-6.45-2.96-12.81-5.08-19.02-1.22-3.59-2.62-7.2-5.05-10.11-2.42-2.91-6.06-5.05-9.84-4.79-5.64,.38-6.91,5.43-8.97,9.67-2.74,5.63-5.48,11.04-7.46,17.01-3.98,12.02-5.93,24.61-7.51,37.14Z"/></g></g></g></svg>