<?xml version="1.0" encoding="UTF-8"?><svg xmlns="http://www.w3.org/2000/svg" viewBox="0 0 664.51 781.48"><defs><style>.d{fill:#f7b566;}.e{fill:#efd486;}.f{fill:#f0f6fc;}.g{fill:#eadec5;}.h{fill:#fff;}.i{fill:#fff1d2;}.j{fill:#849496;}.k{fill:#d3a45f;}.l{fill:#dce1e5;}.m{fill:#e26d52;}.n{fill:#15857f;}.o{fill:#12706b;}.p{fill:#0e5955;}.q{fill:#3f3c36;}.r{opacity:.43;}</style></defs><g id="a"/><g id="b"><g id="c"><g><g><path class="g" d="M168.27,409.55c-16.07,42.6-51.35,77.53-94.1,93.18-22.27,8.15-46.02,11.21-69.29,15.79-1.82,.36-3.94,.96-4.57,2.71-1.01,2.75,2.5,4.92,5.36,5.57,16.53,3.76,33.68-.77,50.02-5.27,7.86-2.16,15.72-4.33,23.58-6.49-1.75,8.29-34.38,20.78-41.59,25.23-1.08,.67-2.18,1.47-2.67,2.65-1.77,4.28,5.08,6.57,9.69,6.08,28.81-3.11,57.31-9.06,84.96-17.72-6.49,4.49-21.29,13.13-14.99,17.95,5.56,5.03,18.97-.17,27.74-3.6-.69,2.14-1.38,4.27-2.07,6.41,3.56,7.88,39.31-2.42,57.72-9.46,53.24-20.37,99.78-57.83,131.05-105.5,10.13-15.44,18.84-32.4,20.88-50.75,2.49-22.46-5.3-44.96-16.45-64.62-11.02-19.43-26.02-37.41-46.04-47.33-19.41-9.62-42.82-10.8-63.1-3.2-20.28,7.6-37.15,23.88-45.45,43.89-5.62,13.54-11.11,34.69-8.92,49.41,1.12,7.57,4.26,13.49,3.78,21.63-.47,8.03-2.69,15.96-5.52,23.46Z"/><g><path class="j" d="M204.09,513c-.46,.55-1,.98-1.6,1.33,.42-.55,.95-1.01,1.6-1.33Z"/><path class="j" d="M197.93,542.58c-18.41,7.04-54.16,17.34-57.72,9.46,.69-2.14,1.38-4.27,2.07-6.41-8.77,3.43-22.18,8.64-27.74,3.6-6.3-4.83,8.5-13.46,14.99-17.95-27.65,8.67-56.15,14.61-84.96,17.72-4.61,.5-11.45-1.79-9.69-6.08,.49-1.18,1.58-1.98,2.67-2.65,7.21-4.45,39.84-16.94,41.59-25.23-7.86,2.16-15.72,4.33-23.58,6.49-16.34,4.5-33.5,9.03-50.02,5.27-2.86-.65-6.37-2.82-5.36-5.57,.64-1.74,2.75-2.35,4.57-2.71,23.27-4.57,47.02-7.63,69.29-15.79,13.85-5.07,26.91-12.17,38.79-20.89-.14,.34-.28,.68-.4,1.03-1.51,4.43,.5,10.66,5.17,10.97,1.79,.12,3.49-.67,5.11-1.44,3.69-1.76,7.38-3.51,11.06-5.27-1.48,2-3.01,4.11-3.41,6.57-.4,2.46,.72,5.36,3.1,6.12,1.13,.36,2.36,.19,3.52-.04,3.49-.69,6.87-1.9,10.01-3.58-3.2,4.74-.1,11.74,5.02,14.29,5.12,2.54,11.28,1.68,16.71-.13,10.94-3.65,20.35-10.74,29.55-17.7-2.99,6.18-9.36,12.36-6.55,18.62,1.74,3.89,7.23,5.16,10.78,3.06-1.51,1.96-1.61,5.07-.18,7.2,1.83,2.73,5.44,3.86,8.71,3.5,3.27-.37,6.26-2,8.99-3.83-1.18,1.8-1.78,3.98-1.68,6.14,5.86-.31,11.68-1.22,17.36-2.69-12.1,6.93-24.73,12.95-37.76,17.93Z"/></g></g><g><path class="g" d="M505.51,426.5c12.71,43.72,45.16,81.29,86.57,100.22,21.57,9.86,45,14.76,67.85,21.13,1.79,.5,3.85,1.27,4.35,3.06,.79,2.82-2.88,4.71-5.78,5.14-16.77,2.46-33.52-3.39-49.46-9.14-7.67-2.77-15.34-5.54-23-8.31,1.1,8.4,32.66,23.39,39.5,28.39,1.03,.75,2.06,1.64,2.45,2.85,1.43,4.41-5.58,6.16-10.13,5.3-28.48-5.34-56.43-13.49-83.32-24.28,6.12,4.98,20.2,14.74,13.55,19.07-5.93,4.59-18.9-1.65-27.38-5.75,.52,2.18,1.04,4.37,1.57,6.55-4.16,7.58-39.01-5.48-56.81-13.93-51.49-24.45-94.98-65.42-122.44-115.37-8.9-16.18-16.27-33.77-16.86-52.22-.73-22.59,8.78-44.41,21.43-63.14,12.5-18.52,28.85-35.27,49.58-43.6,20.1-8.08,43.53-7.44,63.16,1.72,19.63,9.16,35.17,26.7,41.9,47.29,4.55,13.93,8.37,35.45,5.05,49.95-1.71,7.46-5.3,13.12-5.45,21.27-.15,8.05,1.44,16.12,3.68,23.82Z"/><g><path class="j" d="M461.75,526.85c.41,.58,.92,1.06,1.49,1.45-.38-.58-.87-1.08-1.49-1.45Z"/><path class="j" d="M465.59,556.82c17.8,8.45,52.65,21.5,56.81,13.93-.52-2.18-1.04-4.37-1.57-6.55,8.48,4.1,21.44,10.34,27.38,5.75,6.65-4.33-7.43-14.08-13.55-19.07,26.89,10.79,54.84,18.94,83.32,24.28,4.55,.85,11.56-.9,10.13-5.3-.39-1.21-1.42-2.1-2.45-2.85-6.84-5-38.4-19.99-39.5-28.39,7.67,2.77,15.34,5.54,23,8.31,15.94,5.76,32.69,11.61,49.46,9.14,2.9-.43,6.57-2.31,5.78-5.14-.5-1.79-2.56-2.56-4.35-3.06-22.85-6.37-46.28-11.27-67.85-21.13-13.41-6.13-25.88-14.23-37.04-23.85,.12,.35,.23,.7,.32,1.06,1.16,4.53-1.33,10.59-6.01,10.54-1.79-.02-3.43-.94-4.98-1.83-3.54-2.04-7.08-4.08-10.62-6.12,1.32,2.11,2.68,4.33,2.89,6.82,.21,2.48-1.14,5.29-3.57,5.86-1.16,.27-2.37,0-3.51-.32-3.42-.96-6.71-2.43-9.7-4.35,2.82,4.97-.82,11.71-6.12,13.85-5.3,2.14-11.38,.79-16.65-1.43-10.62-4.49-19.46-12.29-28.08-19.95,2.5,6.39,8.37,13.05,5.08,19.07-2.04,3.74-7.61,4.58-10.99,2.21,1.36,2.07,1.22,5.18-.38,7.19-2.04,2.58-5.72,3.43-8.95,2.81-3.23-.62-6.09-2.48-8.66-4.52,1.04,1.89,1.47,4.11,1.2,6.25-5.82-.77-11.55-2.13-17.1-4.03,11.53,7.85,23.65,14.83,36.25,20.82Z"/></g></g><path class="e" d="M432.06,781.48c2.08,0,2.08-3.23,0-3.23s-2.08,3.23,0,3.23h0Z"/><path class="m" d="M262.42,710.89c-13.93,2.87-24.24,4.83-38.46,5.2,6.57,2.34,10.85,3.82,14.68,6.92-5.47,3.2-14.13,8.78-19.6,11.98,9.75,.64,19.49,1.28,29.24,1.92l-7.04,13.33,40.55-27.35c3.79-2.56,7.79-5.37,9.47-9.62,2.08-5.26-.84-11.53-6.58-8.58-6.25,3.21-15.17,4.73-22.26,6.2Z"/><path class="m" d="M281.88,706.03c0,2.9,.01,5.94,1.34,8.48,1.33,2.54,5.36-2.06,7.81-3.37,1.38-49.46,.91-92.61,.4-142.09-.05-5.29-.32-11.12-3.76-14.96-3.42-3.81-9.64-4.3-13.55-1.07-7.55,6.23-.57,16.87,.56,24.51,2.11,14.21,3.01,28.77,4.08,43.1,2.13,28.41,3.18,56.9,3.12,85.4Z"/><path class="m" d="M435.35,717.85c14.18,1.11,24.66,1.75,38.81,.34-6.22,3.15-10.29,5.15-13.7,8.7,5.83,2.49,15.12,6.94,20.95,9.43l-28.77,5.57c2.89,4.12,5.77,8.23,8.66,12.35-14.55-7.35-29.11-14.7-43.66-22.06-4.08-2.06-8.4-4.35-10.6-8.36-2.72-4.96-.61-11.55,5.46-9.34,6.61,2.41,15.64,2.8,22.86,3.36Z"/><path class="m" d="M415.43,715.45c.37,2.88,.73,5.9-.27,8.58-1,2.68-5.57-1.37-8.17-2.37-7.57-48.9-12.5-91.77-18.19-140.92-.61-5.25-1.08-11.07,1.86-15.31,2.91-4.21,9.02-5.47,13.31-2.76,8.27,5.24,2.68,16.66,2.51,24.39-.32,14.36,.62,28.92,1.35,43.27,1.44,28.45,3.98,56.85,7.6,85.12Z"/><path class="g" d="M258.13,571.95c2.8,7.86,6.04,15.89,12.07,21.66,6.03,5.77,15.59,8.66,22.93,4.69,5.96-3.22,9.02-9.93,11.5-16.23,6.86-17.47,12.4-35.81,12.42-54.58,0-4.31-.33-8.8-2.47-12.54-4.43-7.76-14.64-9.61-23.56-10.17-10.97-.69-22.19-.91-33.14,.14-7.35,.71-14,2.02-14.48,10.46-.49,8.41,3.18,18.02,5.29,26.01,2.73,10.31,5.86,20.52,9.43,30.57Z"/><path class="g" d="M371.46,571.95c2.8,7.86,6.04,15.89,12.07,21.66,6.03,5.77,15.59,8.66,22.93,4.69,5.96-3.22,9.02-9.93,11.5-16.23,6.86-17.47,12.4-35.81,12.42-54.58,0-4.31-.33-8.8-2.47-12.54-4.43-7.76-14.64-9.61-23.56-10.17-10.97-.69-22.19-.91-33.14,.14-7.35,.71-14,2.02-14.48,10.46-.48,8.41,3.18,18.02,5.29,26.01,2.73,10.31,5.86,20.52,9.43,30.57Z"/><path class="i" d="M272.73,112.5c-9.83,13.93-13.1,31.39-14.74,48.37-1.64,16.97-1.92,34.26-6.79,50.6-11.35,38.11-29.33,64.54-51.7,97.42-19.8,29.1-30.79,64.45-29.08,99.61s16.51,69.85,42.03,94.1c21.92,20.83,50.87,33.44,80.69,38.43,29.82,4.99,60.53,2.66,90.1-3.62,19.1-4.05,38.09-9.85,54.69-20.12,17.15-10.61,31.29-25.79,41.71-43.06,32.37-53.61,28.47-133.36-13.49-179.84-10.87-12.04-45.24-48.35-57.39-94.49-5.5-20.88-9.89-41.97-14.63-63.03-15.43-68.52-92.89-64.74-121.41-24.35Z"/><g><path class="q" d="M285.8,152.33c-.31,.97-.52,1.97-.53,2.98-.06,4.48,3.84,8.27,8.18,9.4,3.53,.92,7.78,.17,9.87-2.81,.53-.75,.89-1.6,1.17-2.48,1.15-3.65,.62-7.93-1.88-10.84-4.85-5.64-14.66-3.01-16.81,3.74Z"/><path class="h" d="M289.52,152.58c-.77,1.54-.95,3.5,.01,4.93,.96,1.43,3.26,1.93,4.46,.7,1.2-1.22,.86-3.35,1.92-4.69,.71-.88,1.95-1.31,2.41-2.34,1.1-2.5-2.14-2.9-3.73-2.57-2.13,.44-4.11,2.04-5.08,3.97Z"/></g><path class="j" d="M282,130.04c-.13,1.11-3.72,2.92-3.12,3.66,3.37,4.15,4.85,5.58,8.68,8.87,4.05,3.49,11.49,1.31,16.4,.65,3.46-.47,7.61-4.4,5.21-9.85-.93-2.12-8.11,4.8-15.48,2.89s-11.76-5.63-11.69-6.21Z"/><path class="j" d="M378.14,134.02c.39-1.44,5.46-3.13,4.82-4.22-3.63-6.12-5.32-8.29-9.72-13.37-4.66-5.38-14.89-3.95-21.48-4.03-4.65-.06-10.88,4.32-8.78,11.97,.82,2.97,11.62-4.75,20.96-.81,9.78,4.13,14.4,9.7,14.2,10.45Z"/><g><path class="q" d="M377.78,150.91c.42,.92,.75,1.89,.89,2.9,.6,4.44-2.81,8.68-6.98,10.32-3.39,1.34-7.7,1.11-10.14-1.59-.61-.68-1.08-1.48-1.46-2.32-1.58-3.49-1.57-7.8,.55-10.99,4.13-6.19,14.18-4.76,17.14,1.68Z"/><path class="h" d="M374.11,151.61c.95,1.44,1.37,3.36,.58,4.9-.78,1.54-3,2.31-4.35,1.23-1.33-1.07-1.26-3.22-2.48-4.42-.81-.79-2.09-1.06-2.67-2.03-1.4-2.35,1.77-3.13,3.39-3,2.17,.18,4.33,1.53,5.52,3.32Z"/></g><g><path class="o" d="M450.43,277.78c-8.14,2.75-15.7,5.32-17.24,5.74-13.92,3.73-28.03,6.74-42.26,9-50.08,7.98-101.61,6.86-151.27-3.47-7.44-1.55-15.05-3.04-22.34-5.41-5.56,8.65-11.51,17.4-17.82,26.67-19.8,29.1-30.79,64.45-29.08,99.61,1.13,23.06,7.88,45.92,19.6,65.77,35.53,7.62,72.11,10.87,108.5,12,58.59,1.83,118-1.75,174.02-19.04,4.45-1.37,8.9-2.85,13.3-4.48,25.45-53,19.38-125.09-19.68-168.36-3.41-3.77-9.12-9.93-15.73-18.02Z"/><g><g><path class="f" d="M498.91,422.19c-2.08,.83-4.16,1.64-6.25,2.43-11.3,4.26-22.81,7.98-34.46,11.18-11.77,3.24-23.68,5.95-35.68,8.17-5.96,1.1-11.95,2.09-17.95,2.96-1.36,.2-2.73,.37-4.09,.57-.21,.03-.41,.05-.62,.08-.86,.11-1.72,.22-2.58,.33-3.02,.37-6.04,.72-9.06,1.04-24.49,2.58-49.16,3.36-73.77,2.66-12.22-.35-24.42-1.06-36.6-2.11-6.08-.52-12.15-1.13-18.21-1.81-3.13-.35-6.26-.73-9.39-1.12-1.29-.16-2.58-.33-3.87-.5h.06c-.05,0-.11,0-.16-.01-.08,0-.15-.02-.23-.03-.07,0-.14-.02-.23-.03-.13-.02-.25-.03-.38-.05-.89-.12-1.77-.24-2.66-.37-12.42-1.75-24.8-3.9-36.98-6.9-6.17-1.52-12.29-3.26-18.32-5.29-2.95-.99-5.88-2.05-8.78-3.18-.73-.28-1.45-.57-2.17-.86-.3-.12-2.2-.93-1.09-.44,1.15,.5-.18-.08-.46-.2-.31-.13-.61-.27-.92-.4-.58-.25-1.15-.51-1.72-.77,1.25,7.24,3.06,14.39,5.39,21.36,16.36,5.91,33.44,9.77,50.64,12.53,25.33,4.07,50.95,6.66,76.58,7.79,24.83,1.09,49.74,.71,74.5-1.47,25.16-2.21,50.23-6.16,74.74-12.33,13.48-3.39,26.78-7.48,39.84-12.25,2.08-6.83,3.7-13.84,4.87-20.95Z"/><path class="f" d="M239.13,327.55c25.33,4.07,50.95,6.66,76.58,7.79,24.83,1.09,49.74,.71,74.5-1.47,25.16-2.21,50.23-6.16,74.74-12.33,5.52-1.39,11-2.9,16.45-4.52-3.16-5.47-6.69-10.7-10.61-15.61-.62,.17-1.23,.36-1.84,.53-11.77,3.24-23.68,5.95-35.68,8.17-5.96,1.1-11.95,2.09-17.95,2.96-1.36,.2-2.73,.37-4.09,.57-.21,.03-.41,.05-.62,.08-.86,.11-1.72,.22-2.58,.33-3.02,.37-6.04,.72-9.06,1.04-24.49,2.58-49.16,3.36-73.77,2.66-12.22-.35-24.42-1.06-36.6-2.11-6.08-.52-12.15-1.13-18.21-1.81-3.13-.35-6.26-.73-9.39-1.12-1.29-.16-2.58-.33-3.87-.5h.06c-.05,0-.11,0-.16-.01-.08-.01-.15-.02-.23-.03-.07,0-.14-.02-.23-.03-.13-.02-.25-.03-.38-.05-.89-.12-1.77-.24-2.66-.37-12.42-1.75-24.8-3.9-36.98-6.9-3.75-.92-7.47-1.94-11.17-3.04-1.93,2.85-3.89,5.74-5.89,8.68-1.52,2.24-2.99,4.52-4.41,6.84,14.33,4.66,29.15,7.87,44.05,10.27Z"/><path class="f" d="M471.95,346.84c-11.77,3.24-23.68,5.95-35.68,8.17-5.96,1.1-11.95,2.09-17.95,2.96-1.36,.2-2.72,.37-4.09,.57-.21,.03-.41,.05-.62,.08-.86,.11-1.72,.22-2.58,.33-3.02,.37-6.04,.72-9.06,1.04-24.49,2.58-49.16,3.36-73.77,2.66-12.22-.35-24.42-1.06-36.6-2.11-6.08-.52-12.15-1.13-18.21-1.81-3.13-.35-6.26-.73-9.39-1.12-1.29-.16-2.58-.33-3.87-.5h.06c-.05,0-.11,0-.16-.01-.08,0-.15-.02-.23-.03-.07,0-.14-.02-.23-.03-.13-.02-.25-.03-.38-.05-.89-.12-1.77-.24-2.66-.37-12.42-1.75-24.8-3.9-36.98-6.9-6.17-1.52-12.29-3.26-18.32-5.29-2.95-.99-5.88-2.05-8.78-3.18-.73-.28-1.45-.57-2.17-.86-.3-.12-2.2-.93-1.09-.44,1.15,.5-.18-.08-.46-.2-.31-.13-.61-.27-.92-.4-.81-.36-1.63-.72-2.44-1.09-.35-.16-.68-.33-1.03-.49-2.41,5.46-4.54,11.04-6.37,16.72,20.33,9.14,42.15,14.45,64.15,17.98,25.33,4.07,50.95,6.66,76.58,7.79,24.83,1.09,49.74,.71,74.5-1.47,25.16-2.21,50.23-6.16,74.74-12.33,9.83-2.47,19.56-5.32,29.18-8.53-1.32-5.86-2.95-11.61-4.92-17.23-6.7,2.23-13.45,4.28-20.26,6.15Z"/><path class="f" d="M308.21,425.53c24.83,1.09,49.74,.71,74.5-1.47,25.16-2.21,50.23-6.16,74.74-12.33,14.81-3.73,29.39-8.3,43.67-13.69,.13-6.29-.09-12.59-.66-18.84-1.51,.59-3.03,1.18-4.55,1.75-11.3,4.26-22.81,7.98-34.46,11.18-11.77,3.24-23.68,5.95-35.68,8.17-5.96,1.1-11.95,2.09-17.95,2.96-1.36,.2-2.73,.37-4.09,.57-.21,.03-.41,.05-.62,.08-.86,.11-1.72,.22-2.58,.33-3.02,.37-6.04,.72-9.06,1.04-24.49,2.58-49.16,3.36-73.77,2.66-12.22-.35-24.42-1.06-36.6-2.11-6.08-.52-12.15-1.13-18.21-1.81-3.13-.35-6.26-.73-9.39-1.12-1.29-.16-2.58-.33-3.87-.5h.06c-.05,0-.11,0-.16-.01-.08,0-.15-.02-.23-.03-.07,0-.14-.02-.23-.03-.13-.02-.25-.03-.38-.05-.89-.12-1.77-.24-2.66-.37-12.42-1.75-24.8-3.9-36.98-6.9-6.17-1.52-12.29-3.26-18.32-5.29-2.95-.99-5.88-2.05-8.78-3.18-.73-.28-1.45-.57-2.17-.86-.3-.12-2.2-.93-1.09-.44,1.15,.5-.18-.08-.46-.2-.31-.13-.61-.27-.92-.4-.81-.36-1.63-.72-2.44-1.09-1.07-.49-2.13-1-3.18-1.52-.86,6.29-1.35,12.63-1.43,18.97,19.53,8.39,40.37,13.38,61.37,16.75,25.33,4.07,50.95,6.66,76.58,7.79Z"/></g><polygon class="i" points="517.98 169.92 517.98 169.92 517.98 169.92 517.98 169.92"/></g></g><g><path class="d" d="M371.84,195.07c-2.22-6.88-7.61-12.23-11.04-18.6-3.44-6.37-4.9-13.69-8.55-19.94-5.6-9.59-14.27-11.41-22.62-8.92-8.36-2.5-17.02-.68-22.62,8.92-3.65,6.25-5.11,13.57-8.55,19.94-3.44,6.36-8.82,11.71-11.04,18.6-2.04,6.32-1.17,13.17-.18,19.74,4.01,26.8,9.47,53.39,16.35,79.6,2.72,10.35,5.67,20.68,10.07,30.44,3.61,8,9.53,20.61,15.99,20.61,6.37-.29,12.38-12.61,15.99-20.61,4.4-9.75,7.35-20.09,10.07-30.44,6.88-26.21,12.34-52.8,16.35-79.6,.98-6.57,1.86-13.42-.18-19.74Z"/><path class="k" d="M372.66,214.8c.98-6.57,1.86-13.42-.18-19.74-.43-1.33-.98-2.6-1.61-3.83,.27,2.83,.34,5.68,.09,8.53-.63,7.34-3.27,14.33-5.55,21.33-10.33,31.71-13.82,65.41-25.2,96.75-2.22,6.1-5.05,12.49-10.57,15.89-3.03,1.86-7.05,2.25-10.39,1.21,3.18,5.62,6.99,10.51,11.01,10.51,6.37-.29,12.38-12.61,15.99-20.61,4.4-9.75,7.35-20.09,10.07-30.44,6.88-26.21,12.34-52.8,16.35-79.6Z"/></g><g class="r"><path class="h" d="M311.45,166.75l.07,88.24c0,3.95,.1,8.21,2.44,11.4,.39,.53,.86,1.04,1.47,1.3,2.56,1.1,4.51-2.49,4.9-5.24,3.61-25.31-3.64-51.88,3.94-76.3,1.75-5.63,4.29-11.16,4.33-17.06,.11-13.86-17.15-18.57-17.14-2.34Z"/></g><path class="f" d="M241.27,96.64c-6.53-6.49-7.47-17.32-3.63-25.68,3.84-8.37,11.7-14.38,20.27-17.74,8.57-3.36,17.87-4.34,27.06-4.88s19.48,2.09,27.48-2.46c48.38-27.51,65.21-7.51,65.78-.5,2.86,34.8-18.11,30.25-22.24,36.1-3.63,5.14-4.37,11.99-10.02,14.76-9.25,4.52-19.36,6.99-29.46,8.96-10.58,2.06-21.26,3.62-32,4.66-7.65,.74-17.82,1.81-24.5-2.89-5.9-4.16-13.5-5.07-18.77-10.31Z"/><path class="l" d="M362.7,32.54c.97,.85,11.52,5.35,3.74,17.11-7.32,11.06-21.76,16.88-34.7,13.98-10.7,9.1-25.2,14.82-38.91,11.78-.91-.2-1.84-.44-2.77-.31-1.65,.24-2.87,1.6-3.99,2.84-4.96,5.49-10.86,10.29-17.76,12.96-6.9,2.67-14.88,3.03-21.6-.07-2.96-1.37-5.55-3.44-7.61-5.96-1.18-1.44-2.17-3.09-3.72-3.99-.03,5.69,1.87,11.33,5.88,15.32,5.27,5.24,12.87,6.16,18.77,10.31,6.67,4.7,16.85,3.64,24.5,2.89,10.73-1.04,21.41-2.6,32-4.66,10.1-1.97,20.21-4.43,29.46-8.96,5.65-2.76,6.39-9.62,10.02-14.76,4.13-5.84,25.1-1.3,22.24-36.1-.29-3.54-5.02-10.02-15.54-12.4Z"/><path class="p" d="M372.63,96.32c-3.39-4.96-5.66-14.38-7.43-20.12-37.25,15.67-62.4,26.31-109.01,27.85,4.31-.35,3.45,26.53,6.58,27.27,5.66,1.35,29.52-2.77,40.23-5.2,11.09-2.52,25.07-8.1,35.72-12.13,11.96-4.52,23.47-10.28,33.92-17.68Z"/><path class="p" d="M283.02,48.89c-5.43-1.88-10.34-5.92-12.16-11.37,1.19,.12,2.39,.24,3.58,.36-1.59-3.82-2.61-7.87-3.02-11.99,3.01-.48,6.1-.44,9.09,.12-.71-5.22-.28-10.6,1.26-15.64,1.87,1.4,4.05,2.36,6.34,2.8-.18-1.38,.21-2.82,1.05-3.92,.49,.98,1.17,1.87,1.99,2.6,1.78-3.95,3.56-7.9,5.34-11.85l13.02,8.63c.4-2.11,1.46-4.08,3.01-5.57l1.67,6.2,5.07-3.65c.45,3.56,1.34,7.07,2.63,10.41,1.82-1.28,3.63-2.56,5.45-3.83,.52,3.6,.35,7.29-.49,10.82,.98-.77,1.96-1.54,2.94-2.32,.71,4.7,1.39,9.68-.51,14.04-.8,1.84-2.03,3.47-3.4,4.95-5.17,5.59-12.48,9.08-20.05,9.74-7.61,.66-15.41,2.03-22.84-.54Z"/><path class="h" d="M250.74,67.09c-1.17,1.52-2.22,3.28-2.2,5.2,.01,1.09,.38,2.16,.98,3.08,1.93,2.98,6.38,3.96,9.38,2.05,3.38-2.14,4.22-6.67,6.74-9.78,3.99-4.92,11.13-5.38,17.35-6.58,.99-.19,2.02-.43,2.82-1.05,4.59-3.59-4.77-4.91-6.57-5.05-3.24-.24-5.87,.33-8.96,1.17-7.66,2.07-14.49,4.4-19.55,10.95Z"/><path class="n" d="M276.72,30.83c2.06,1.22,4.38,1.99,6.76,2.23-.34-1.64-1.19-3.18-2.4-4.33,.98,.71,2.05,1.3,3.18,1.75,.1-1.26-.17-2.56-.78-3.67,.22,.47,.76-.3,.66-.81-.44-2.22-.89-4.43-1.33-6.65,2.1,2.2,4.85,3.79,7.8,4.52-.92-2.9-1.12-6.03-.57-9.03,2.27,4.14,4.97,8.04,8.06,11.61-1.6,.02-3.19-.32-4.64-.98,.97,1.34,1.93,2.69,2.9,4.03-2.08-.72-4.16-1.43-6.24-2.14,.45,.48,.91,.96,1.36,1.45-1.04-.35-2.08-.71-3.12-1.06,2.53,3.14,5.44,5.98,8.65,8.44-3.66-.52-7.33-1.03-10.99-1.55,1.48,1.96,3.21,3.74,5.13,5.26-.45,.36-1.15,.37-1.61,.03,2.61,1.95,5.36,3.72,8.22,5.28-1.37-.75-5.31,.06-7.16-.51-2.05-.63-3.73-1.58-5.23-3.09-3.15-3.17-6.42-6.88-8.67-10.77Z"/></g></g></g></svg>