<?xml version="1.0" encoding="UTF-8"?><svg xmlns="http://www.w3.org/2000/svg" viewBox="0 0 797.33 921.7"><defs><style>.d{fill:#f7b566;}.e{fill:#eeff23;}.f{fill:#eadec5;}.g{fill:#fff;}.h{fill:#fff1d2;}.i{fill:#ff15e4;}.j{fill:#849496;}.k{fill:#d3a45f;}.l{fill:#e26d52;}.m{fill:#15857f;}.n{fill:#12706b;}.o{fill:#0e5955;}.p{fill:#3f3c36;}.q{opacity:.3;}.r{opacity:.43;}</style></defs><g id="a"/><g id="b"><g id="c"><g><g><g><path class="f" d="M403.12,149.87c10.85-13.08,8.89-34.82-4.11-45.76,10.27,7.04,18.23,17.41,22.38,29.16,3.24-9.11,11.74-16.13,21.3-17.61-5.87,5.45-10.29,12.45-12.68,20.1,13.66-9.5,33.92-7.98,46.01,3.46-14.88,1.41-31.53,3.76-40.59,15.65-2.64,3.46-4.64,7.74-8.53,9.68-5.18,2.58-11.46-.1-16.03-3.66-2.28-1.78-4.56-4.22-4.3-7.09,.26-2.88,4.8-4.69,6.06-2.09l-9.49-1.84Z"/><path class="h" d="M387.97,380.7c-3.83-12.81,53.78-82.79,61.07-121.41,3.3-17.48,7.5-34.72,11.43-52.07,12.77-56.43-46.18-81.04-81.69-61.09-12.25,6.88-20.86,18.71-28.08,30.76-7.22,12.05-13.56,24.8-22.96,35.24-21.93,24.33-28.94,93.5-57.22,110.04"/><g><path class="p" d="M374.41,180.39c-.57,.61-1.08,1.28-1.45,2.03-1.63,3.31-.07,7.52,2.75,9.89,2.3,1.93,5.73,2.88,8.34,1.4,.66-.37,1.23-.88,1.75-1.43,2.15-2.31,3.27-5.68,2.44-8.73-1.61-5.91-9.84-7.43-13.83-3.17Z"/><path class="g" d="M377.09,181.89c-1.12,.87-1.94,2.27-1.73,3.67,.21,1.4,1.74,2.59,3.07,2.1,1.32-.48,1.82-2.19,3.09-2.81,.84-.41,1.91-.28,2.62-.89,1.7-1.47-.57-2.91-1.87-3.23-1.74-.43-3.78,.06-5.18,1.15Z"/></g><path class="j" d="M406.08,168.69c-.11-.87-1.01-1.38-1.81-1.75-4.47-2.08-8.96-4.17-13.72-5.47-5.04-1.38-11.15-2.15-16.15-.18-3.52,1.39-7,5.57-3.26,8.91,2.97,2.66,34.82-2.39,34.93-1.51Z"/><g><path class="p" d="M443.33,211.89c-.01,.83-.11,1.67-.37,2.47-1.13,3.51-5.17,5.46-8.85,5.21-2.99-.2-6.12-1.9-6.98-4.78-.22-.72-.28-1.49-.27-2.24,.06-3.15,1.59-6.36,4.3-7.98,5.26-3.14,12.24,1.48,12.16,7.32Z"/><path class="g" d="M440.36,211.11c.2,1.41-.17,2.98-1.3,3.85-1.13,.87-3.05,.65-3.67-.62-.62-1.27,.21-2.84-.28-4.16-.32-.87-1.18-1.53-1.27-2.46-.21-2.24,2.43-1.7,3.59-1.03,1.55,.9,2.68,2.67,2.93,4.43Z"/></g><path class="j" d="M429.52,183.64c.59-.64,1.62-.54,2.49-.38,4.85,.88,9.73,1.77,14.36,3.44,4.91,1.78,10.35,4.68,13.29,9.17,2.08,3.17,2.5,8.59-2.48,9.16-3.96,.46-27.05-22.05-27.66-21.39Z"/></g><path class="m" d="M426.78,328.57c15.45-6.43,32.56-8.24,49.24-7-15.77,15.73-36.51,26.4-58.47,30.09,28.21,1.65,54.9,19.53,67.17,44.99-.73-1.51-14.62-2.5-16.68-2.87-5.93-1.07-11.85-2.21-17.74-3.5-11.51-2.52-22.93-5.56-33.97-9.71-8.75-3.28-24.88-8.18-30.87-15.75-4.93-6.23,6.95-10.17,11.06-14.06,9.52-9.03,17.86-17.04,30.26-22.2Z"/><path class="f" d="M86.53,307.65c-9.29-10.9-17.59-22.72-28.06-32.49-2.8-2.62-6.34-5.24-10.11-4.5-6.94,1.38-6.8,11.38-4.51,18.07,3.37,9.87,7.62,19.44,12.67,28.57-5.04-4.65-12.54-9.53-18.1-5.5-3.35,2.43-4.1,7.07-4.12,11.21-.08,24.18,15.3,45.38,30.47,64.21-5.45-3.21-12-4.51-18.27-3.62,2.64,13.83,11.28,26.41,23.25,33.84-6.34,.97-9.93,8.47-8.97,14.81,.96,6.34,5.14,11.66,9.24,16.6,23.19,27.92,48.85,54.13,78.85,74.56,30,20.43,64.61,34.92,100.78,37.9,18.96,1.56,39.3-.46,54.57-11.81,10.98-8.16,18.34-20.5,22.49-33.54,8.69-27.3,3.55-58.62-13.39-81.73-19.2-26.19-51.34-35.9-80.92-45.65-34.95-11.52-68.09-18.66-99.3-39.57-17.3-11.6-33.06-25.51-46.57-41.38Z"/><path class="j" d="M157.83,364.12c-8.56-3.95-16.98-8.53-25.27-14.08-17.3-11.6-33.06-25.51-46.57-41.38-9.29-10.9-17.59-22.72-28.06-32.49-2.8-2.62-6.34-5.24-10.11-4.5-6.94,1.38-6.8,11.38-4.51,18.07,3.37,9.87,7.62,19.44,12.67,28.57-5.04-4.65-12.54-9.53-18.1-5.5-3.35,2.43-4.1,7.07-4.12,11.21-.08,24.18,15.3,45.38,30.47,64.21-5.45-3.21-12-4.51-18.27-3.62,2.64,13.83,11.28,26.41,23.25,33.84-6.34,.97-9.93,8.47-8.97,14.81,.96,6.34,5.14,11.66,9.24,16.6,7.96,9.58,16.22,18.95,24.83,27.97-.46-9.97-11.08-18.2-8.74-28.58,1.39-6.17,10.85-14.98,16.33-7.18-3.54-5.61-6.15-11.81-7.71-18.26,4.96-1.32,10.39-.78,15,1.48-9.4-17.32-16.11-36.09-19.82-55.44-.45-2.35-.73-5.14,1-6.8,2.36-2.26,6.21-.57,8.96,1.19,5.1,3.27,10.2,6.54,15.3,9.81-4.48-6.45-8.17-16.94-1.28-20.71,3.3-1.8,7.36-.71,10.95,.41,11.21,3.51,22.43,7.03,33.64,10.54-.04-.06-.08-.13-.12-.19Z"/><path class="l" d="M508.45,871.5c15.54,6.32,27.1,10.8,43.51,14.28-8.12,1.31-13.41,2.1-18.52,4.88,5.66,4.89,14.52,13.22,20.18,18.11-11.45-1.35-22.89-2.69-34.34-4.04,1.77,5.66,3.54,11.32,5.31,16.98-13.73-13.48-27.46-26.95-41.19-40.43-3.85-3.78-7.89-7.9-8.93-13.19-1.28-6.55,3.45-13.2,9.48-8.55,6.57,5.07,16.59,8.74,24.5,11.96Z"/><path class="l" d="M180.13,771.9c-2.28,2.55-4.65,5.25-5.46,8.53-.82,3.28,6.34,2.38,9.53,3.14,39.96-42.57,73.33-81.02,111.64-125.09,4.09-4.71,8.43-10.06,8.4-16.15-.03-6.04-5.14-11.34-11.12-11.56-11.54-.41-13.72,14.44-18.7,22.08-9.26,14.19-19.88,27.75-30.15,41.23-20.36,26.74-41.76,52.71-64.13,77.81Z"/><path class="l" d="M473.42,858.17c.62,3.37,1.29,6.9,3.37,9.56,2.08,2.66,5.77-3.54,8.33-5.59-9-57.69-18.8-107.65-30-164.96-1.2-6.13-2.75-12.83-7.57-16.55-4.78-3.69-12.11-2.92-15.95,1.67-7.42,8.85,2.95,19.7,5.91,28.32,5.5,16.03,9.66,32.74,13.98,49.13,8.56,32.5,15.88,65.35,21.93,98.42Z"/><path class="f" d="M276.78,633.47c-2.93,7.25-5.65,14.89-5.01,22.67,.64,7.79,5.54,15.75,13.15,17.53,6.18,1.45,12.49-1.34,18.14-4.22,15.66-7.97,30.94-17.38,42.62-30.5,2.68-3.02,5.24-6.37,6.07-10.32,1.72-8.18-4.28-15.83-10.18-21.76-7.26-7.3-14.97-14.43-23.3-20.5-5.59-4.07-11.06-7.29-16.64-1.68-5.57,5.59-8.97,14.6-12.46,21.51-4.5,8.92-8.65,18.01-12.39,27.27Z"/><path class="f" d="M417.88,692.24c3.91,6.76,8.27,13.61,14.8,17.89,6.53,4.29,15.83,5.32,21.91,.41,4.94-3.98,6.62-10.67,7.83-16.9,3.35-17.25,5.32-35.08,2.15-52.37-.73-3.97-1.8-8.05-4.41-11.13-5.4-6.39-15.12-6.36-23.42-5.35-10.22,1.23-20.58,2.93-30.49,5.77-6.65,1.9-12.55,4.24-11.56,12.09,.98,7.83,5.99,16.05,9.3,23.05,4.27,9.03,8.88,17.9,13.89,26.54Z"/><path class="h" d="M758.33,545.99c-1.07-3.54-5.55-4.5-9.23-4.78-20.99-1.64-42.12-1.52-63.1,.37,13.42-1.82,26.58-5.59,38.94-11.15-6.56-2.73-13.6-4.27-20.7-4.54,11.96-3.08,23.44-8.05,33.87-14.67,1.72-1.09,3.51-2.34,4.28-4.23,2.17-5.3-4.72-9.63-10.3-10.92-28.34-6.54-51.22-7.46-90.73-7.01-49.67,2.84-187.24-25.07-253.59-70.24-22.22-15.13-50.32-30.4-66.15-52.03-.05-.7-.1-1.39-.17-2.09-1.03-10.87-5.51-22.38-15.12-27.54-6.72-3.61-14.73-3.52-22.35-3.34-11.01,.26-12.97-10.04-22.93-5.36-35.61,16.74-73.71,81.14-64.77,152.45,5.11,40.75,38.63,80.99,67.78,109.92,15.19,15.07,33.53,26.68,52.8,35.96,60.77,29.24,130.88,35.51,197.69,26.36,66.82-9.15,130.83-33,191.89-61.62-7.21-5.94-17.09-8.5-26.27-6.82,25.22-6.2,49.51-16.13,71.85-29.37,3.5-2.07,7.47-5.46,6.3-9.36Z"/><path class="h" d="M276.23,319.12c-6.73,4.82-14.24,8.45-21.12,13.05-24.44,16.33-40.02,47.93-31.4,76.02,4.42,14.39,14.45,26.44,25.71,36.42,17.25,15.28,38.94,26.91,61.98,27.13,29.63,.29,56.24-20.22,66.88-47.23,13.5-34.25,25.72-68.49,34.44-104.47"/><g><path class="j" d="M625.53,585.23c-.6,.03-1.2,.11-1.78,.28,.62-.01,1.21-.12,1.78-.28Z"/><path class="j" d="M628.93,618.82c-3.49,2.93-6.99,5.86-10.48,8.79,29.98-10.31,59.32-22.7,88.01-36.15-7.21-5.94-17.09-8.5-26.27-6.82,25.22-6.2,49.51-16.13,71.85-29.37,3.5-2.07,7.47-5.46,6.3-9.36-1.07-3.54-5.55-4.5-9.23-4.78-20.99-1.64-42.12-1.52-63.1,.37,13.42-1.82,26.58-5.59,38.94-11.15-6.56-2.73-13.61-4.27-20.7-4.54,11.96-3.08,23.44-8.05,33.87-14.67,1.72-1.09,3.51-2.34,4.28-4.23,2.17-5.3-4.72-9.63-10.3-10.92-28.34-6.54-51.22-7.46-90.73-7.01-10.82,.62-25.82-.22-43.34-2.38,6.06,2.19,12.62,3.36,17.46,7.73,4.51,4.08,9.9,15.98,2.1,20.2,2.95-1.6,7.14-.09,8.4,3.02,1.26,3.12-.72,7.11-3.96,8,5.57,.97,11.63,2.21,15.19,6.6,4.95,6.08,2.49,15.74-3.18,21.15-5.67,5.41-13.57,7.65-21.14,9.71,6.76-.95,14.52,1.17,17.95,7.07,3.12,5.36,.32,13.58-5.33,15.13,3.62-.17,7.34,2.04,8.7,5.44,1.59,3.96-.26,8.98-4.03,10.97,3.87-.49,6.66,4.32,5.77,8.11s-4.05,6.57-7.04,9.07Z"/></g><path class="f" d="M381.86,524.91c4.94,14.63,12.85,28.51,24.34,38.82,15.18,13.62,35.81,20.21,56.2,20.8,20.38,.58,40.59-4.47,59.61-11.84,43.55-16.89,82.15-46.36,109.92-83.92,7.87-10.64,15.1-22.59,15.72-35.8,.19-4.02-.32-8.26-2.62-11.56-2.3-3.3-6.76-5.34-10.5-3.84,4.19-5.19,8.42-12.65,4.39-17.96-4.01-5.3-12.29-3.29-18.43-.77-9.16,3.75-18.33,7.51-27.49,11.26,10.09-6.97,30.22-19.13,28.41-23.33-1.76-4.73-13.58,1.12-19.1,4.94,3.69-2.84,9.5-6.76,8.85-10.67-1.11-5.06-19.66,3.37-29.14,6.55-47.02,15.77-94.6,29.86-142.62,42.23-17.23,4.44-44.2,9.25-55.59,24.65-10.11,13.66-6.94,35.63-1.93,50.47Z"/><path class="j" d="M609.77,512.27c-1.29,2.18-2.63,4.33-4.02,6.45,9.51-9.26,18.28-19.28,26.17-29.96,7.87-10.64,15.1-22.59,15.72-35.8,.19-4.02-.32-8.26-2.62-11.56-2.3-3.3-6.76-5.34-10.5-3.84,4.19-5.19,8.42-12.65,4.39-17.96-4.01-5.3-12.29-3.29-18.44-.77-9.16,3.75-18.33,7.51-27.49,11.26,10.09-6.97,30.22-19.13,28.41-23.33-1.76-4.73-13.58,1.12-19.1,4.94,3.69-2.84,9.5-6.76,8.85-10.67-1.11-5.06-19.66,3.37-29.14,6.55-17.5,5.87-35.07,11.5-52.72,16.9,1.27,.08,2.5,.44,3.57,1.65,2.29,2.58,2.06,7-.49,9.32,2.44-2.69,7.08-2.61,9.82-.23,2.74,2.38,3.6,6.48,2.64,9.97-.96,3.5-3.5,6.41-6.49,8.46,6.35-2.68,12.9-4.88,19.58-6.6,3.41-.87,6.91-1.62,10.42-1.32,3.5,.3,7.05,1.8,9.1,4.66,3.5,4.87,1.63,11.7-1.11,17.03,3.56-1.79,7.27-3.57,11.25-3.83,3.98-.26,8.34,1.35,10.22,4.87,2.53,4.76-.29,10.49-3.06,15.12,5.97-4.09,15.23-2.01,18.88,4.24,2.19,3.75,2.41,8.4,1.42,12.63s-3.06,8.11-5.27,11.85Z"/><path class="f" d="M284.22,311.86c2.53-.41,7.08-9.07,8.39-11.18"/><path class="l" d="M157.62,758.87c-15.71-9.04-27.2-15.91-41.07-27.58,4.28,7.79,7.12,12.82,8.15,19.02-7.93-1.58-20.91-3.59-28.83-5.16l26.26,26.58-18,6.76c20.6,2.74,41.21,5.49,61.82,8.23,5.78,.77,11.97,1.48,17.17-1.16,6.44-3.26,8.95-11.71,.98-13.75-8.68-2.23-18.47-8.32-26.47-12.93Z"/><g><path class="n" d="M523.56,15.98c8.09-2.48,16.75-4.16,25-2.26,11.44,2.63,20.54,12.02,25.03,22.88,4.49,10.85,4.89,23,3.6,34.67-1.55,14.05-5.69,28.27-14.83,39.05-1.23,1.45-2.67,2.9-4.53,3.24-1.33,.25-2.7-.11-4-.48-17.23-4.9-33.91-12.38-47.86-23.6-7.5-6.03-14.15-13.16-19.46-21.19-3.75-5.68-10.61-15.67-10.11-22.83,.5-7.27,12.77-13.15,18.26-16.48,9.05-5.5,18.78-9.88,28.91-12.99Z"/><path class="m" d="M469.33,47.55c.88,4.41,2.9,8.51,5.11,12.42,5.1,9.05,11.33,17.52,18.88,24.66,11.13,10.53,24.8,17.91,38.5,24.78,8.08,4.05,16.51,8.05,25.54,8.43,1.23,.05,2.5,.03,3.66-.38,1.55-.55,2.78-1.74,3.85-3,3.14-3.69,5.27-8.23,6.11-13,.19-1.06,.28-2.26-.39-3.11-.55-.7-1.46-.97-2.31-1.21-15.7-4.48-29.99-12.95-43.16-22.59-6.19-4.52-12.17-9.32-17.97-14.33-7.71-6.65-15.4-14.18-18.2-23.97-.56-1.97-1.05-4.2-2.75-5.35-1.17-.79-2.68-.87-4.09-.76-10.06,.76-14.7,7.71-12.78,17.39Z"/><path class="m" d="M552.08,9.67c-.08-2.19,1.19-4.59,3.34-5.02,.2-1.64,1.57-3.06,3.2-3.31,1.63-.25,3.37,.69,4.05,2.19,1.87-3.02,6.05-4.36,9.33-3,1.36,.56,2.68,1.94,2.21,3.34,2.56-.93,5.72,.31,6.98,2.72,1.26,2.42,.45,5.71-1.77,7.28,.77,.67,1.56,1.37,2.05,2.27,1.06,1.97,.33,4.6-1.38,6.03-1.71,1.43-4.17,1.76-6.34,1.2,.36,.61,.07,1.43-.47,1.89-.54,.45-1.26,.61-1.96,.72-4.23,.64-8.67-.15-12.42-2.21-2.37-1.3-4.5-3.35-5.16-6.04-.57-2.33-1.56-5.67-1.65-8.05Z"/><g class="q"><path class="g" d="M507.2,29.26c-1.57,1.05-3.22,2.45-3.29,4.34-.08,2.16,2.11,3.85,4.26,4.01,2.15,.16,4.21-.8,6.14-1.77,6.6-3.33,13.42-7.29,20.8-6.85,4.24,.25,8.54,1.96,12.63,.81,1.32-.37,2.63-1.12,3.18-2.37,.75-1.71-.25-3.79-1.78-4.87-5.4-3.82-14.46-2.78-20.52-1.78-7.63,1.27-15,4.15-21.42,8.47Z"/></g></g><path class="m" d="M199.03,383.74c-14.75,28.91-19.85,62.04-18.84,94.48,49.89,1.02,97.22-23.84,135.13-56.29,3.34-2.86,6.65-5.8,10.47-7.98,3.76-2.14,7.91-3.49,12.03-4.79,11.71-3.7,23.56-7.19,34.57-12.62,11.01-5.43,21.28-12.99,27.98-23.28,4.9-7.55,7.7-16.24,10.44-24.81-10.57,5.35-23.14,4.04-34.9,2.59-23.25-2.88-46.86-5.91-68.37-15.21-7.51-3.25-14.69-7.23-22.16-10.57-10.65-4.77-16.3-5.33-26.8-.53-8.64,3.95-16.74,9.06-24.14,15.01-14.78,11.89-26.81,27.13-35.42,44.01Z"/><path class="o" d="M286.58,348.1c20.6,17.35,48.48,23.77,75.41,24.42-41.41,29.36-93.41,43.41-143.97,38.9,27.19,6.49,55.66,2.23,83.23-2.34,31.75-5.26,64.57-11.37,90.91-29.86-5.25,1.33-10.67,1.99-16.09,1.97,12.89-3.43,24.26-12.25,30.77-23.9-1.15,2.05-9.14,3.78-11.35,4.27,.26-.46,.48-.94,.71-1.39-18.67,1.41-36.01,3.6-54.89,1.18-18.65-2.4-36.93-7.23-54.72-13.25Z"/></g><g><path class="d" d="M423.28,242.63c.78-5.91-1.33-11.79-1.63-17.74-.31-5.96,1.2-11.92,.7-17.86-.77-9.12-6.57-13.54-13.67-14.64-5.33-4.82-12.42-6.53-19.99-1.37-4.93,3.36-8.6,8.29-13.42,11.81-4.81,3.52-10.71,5.59-14.8,9.92-3.76,3.98-5.53,9.38-7.12,14.62-6.51,21.36-11.85,43.07-16.01,65-1.64,8.66-3.1,17.39-3.29,26.2-.15,7.23-.21,18.7,4.6,20.99,4.84,2.04,13.67-5,19.19-9.67,6.72-5.7,12.58-12.34,18.26-19.08,14.4-17.06,27.87-34.91,40.34-53.43,3.06-4.54,6.13-9.32,6.85-14.75Z"/><path class="k" d="M416.91,257.61c3.06-4.54,6.13-9.32,6.85-14.75,.15-1.14,.19-2.28,.16-3.42-.8,2.21-1.76,4.34-2.95,6.38-3.07,5.23-7.5,9.5-11.68,13.91-18.91,19.93-33.43,43.77-52.99,63.05-3.81,3.75-8.18,7.5-13.49,8.08-2.91,.31-6.04-.82-8.16-2.78,.37,5.3,1.48,10.29,4.47,11.71,4.84,2.04,13.67-5,19.19-9.67,6.72-5.7,12.58-12.34,18.26-19.08,14.4-17.06,27.87-34.91,40.34-53.43Z"/></g><g class="r"><path class="g" d="M388.39,200.19c-10.39,21.89-20.79,43.78-31.18,65.66-1.4,2.94-2.83,6.14-2.22,9.34,.1,.54,.27,1.08,.63,1.49,1.51,1.73,4.23-.25,5.5-2.17,11.65-17.55,15.65-39.88,29.94-55.36,3.29-3.57,7.14-6.79,9.26-11.15,4.99-10.27-6.19-19.88-11.92-7.81Z"/></g><g><rect class="i" x="82.1" y="194.05" width="10.95" height="23.71" transform="translate(93.82 -17.76) rotate(24.64)"/><rect class="i" x="105.08" y="136.43" width="10.95" height="23.71" transform="translate(-56.26 228.2) rotate(-78.89)"/><rect class="i" x="204.26" y="220.67" width="10.95" height="23.71" transform="translate(443.99 440.33) rotate(173.63)"/><rect class="i" x="245.1" y="117.84" width="10.95" height="23.71" transform="translate(23.66 297.38) rotate(-63.83)"/></g><g><rect class="i" x="687.11" y="210.15" width="10.95" height="23.71" transform="translate(-16.01 385.86) rotate(-30.79)"/><rect class="i" x="652.7" y="158.54" width="10.95" height="23.71" transform="translate(996.17 760.3) rotate(-134.33)"/><rect class="i" x="778.33" y="124.65" width="10.95" height="23.71" transform="translate(1274.44 -489.81) rotate(118.19)"/><rect class="i" x="716.83" y="32.68" width="10.95" height="23.71" transform="translate(1036.52 696.44) rotate(-119.26)"/></g><g><rect class="e" x="687.59" y="335.18" width="10.95" height="23.71" transform="translate(-79.96 403.73) rotate(-30.79)"/><rect class="e" x="653.18" y="283.58" width="10.95" height="23.71" transform="translate(907.54 973.05) rotate(-134.33)"/><rect class="e" x="778.82" y="249.69" width="10.95" height="23.71" transform="translate(1385.35 -306.13) rotate(118.19)"/><rect class="e" x="717.31" y="157.72" width="10.95" height="23.71" transform="translate(928.15 883.01) rotate(-119.26)"/></g><g><rect class="e" x="41.24" y="178.38" width="10.95" height="23.71" transform="translate(-90.8 50.74) rotate(-30.79)"/><rect class="e" x="6.83" y="126.78" width="10.95" height="23.71" transform="translate(-78.27 244.3) rotate(-134.33)"/><rect class="e" x="132.47" y="92.89" width="10.95" height="23.71" transform="translate(295.44 32.66) rotate(118.19)"/><rect class="e" x="70.96" y=".92" width="10.95" height="23.71" transform="translate(102.66 85.7) rotate(-119.26)"/></g></g></g></g></svg>