<?xml version="1.0" encoding="UTF-8"?><svg xmlns="http://www.w3.org/2000/svg" viewBox="0 0 60.41 186.53"><defs><style>.d{fill:#f2f2f2;}.e{fill:#fff;}.f{fill:#f1f2f2;}.g{fill:#cbccce;}.h{fill:#e1b796;}.i{fill:#122628;}.j{stroke:#cbccce;}.j,.k{fill:none;stroke-miterlimit:10;}.k{stroke:#122628;stroke-width:.25px;}</style></defs><g id="a"/><g id="b"><g id="c"><g><path class="f" d="M29.45,186.06s24.33,2.29,25.42-3.16c0,0,3.94-5.92,4.22-8.78,1.52-15.3,1.46-42.25,1.15-76.51-.36-40.64-11.61-66.77-13.79-75.12s-11.61-13.06-11.61-13.06C34.84,9.43,33.02,0,30.12,0h.18c-2.9,0-4.72,9.43-4.72,9.43,0,0-9.43,4.72-11.61,13.06S.54,56.97,.18,97.62c-.32,36.14-.38,64.14,1.42,78.92,.22,1.84,5.07,5.99,5.07,5.99,1.09,5.44,24.42,3.53,24.42,3.53"/><path class="h" d="M31.75,44.92c-1.67,0-5.73-3.28-10.31-2.8-4.58,.48-7.08,19.22-7.08,21.63s1.25,5.29,3.33,5.29h27.8c2.08,0,3.33-2.88,3.33-5.29s-2.5-21.15-7.08-21.63c-4.58-.48-8.84,2.8-10.51,2.8"/><path class="i" d="M36.82,79.02h-11.08c-9.66,0-17.49,7.83-17.49,17.49v10.43c0-9.1,7.37-16.47,16.47-16.47h13.12c9.1,0,16.47,7.37,16.47,16.47v-10.43c0-9.66-7.83-17.49-17.49-17.49Z"/><rect class="h" x="7.9" y="137.38" width="46.65" height="42.79" rx="8.76" ry="8.76"/><path class="e" d="M37.84,90.48h-13.12c-9.1,0-16.47,7.37-16.47,16.47v14.64c0,9.66,7.83,17.49,17.49,17.49h11.08c9.66,0,17.49-7.83,17.49-17.49v-14.64c0-9.1-7.37-16.47-16.47-16.47Z"/><g><line class="k" x1="8.26" y1="47.29" x2="6.09" y2="55.95"/><line class="k" x1="3.93" y1="64.61" x2="2.85" y2="73.63"/><line class="k" x1="1.76" y1="79.04" x2="1.04" y2="91.31"/><line class="k" x1="1.42" y1="101.09" x2="1.42" y2="113.22"/><line class="k" x1=".76" y1="124.26" x2="1.2" y2="140.8"/><line class="k" x1="1.42" y1="147.86" x2="1.64" y2="159.12"/></g><g><line class="k" x1="51.31" y1="46.03" x2="53.47" y2="54.69"/><line class="k" x1="55.64" y1="63.35" x2="56.72" y2="72.37"/><line class="k" x1="57.8" y1="77.78" x2="58.52" y2="90.05"/><line class="k" x1="58.15" y1="99.83" x2="58.15" y2="111.97"/><line class="k" x1="58.81" y1="123" x2="58.37" y2="139.55"/><line class="k" x1="58.15" y1="146.61" x2="57.92" y2="157.86"/></g><g><path class="g" d="M30.21,1.28c.89,.3,2.55,3.95,3.41,8.39l.09,.45,.03,.15,.14,.07,.41,.21c.09,.04,8.96,4.59,10.96,12.26,.38,1.47,1.03,3.44,1.85,5.93,3.77,11.49,11.6,35.41,11.9,68.88,.29,32.57,.41,60.8-1.14,76.37-.18,1.85-2.56,6.02-4.02,8.21l-.1,.15-.03,.05v.06l-.05,.18c-.05,.27-.89,2.63-13.5,2.63-4.31,0-8.32-.29-9.85-.41h-.18c-1.46,.1-4.42,.26-7.77,.26-10.96,0-14.24-1.79-14.45-2.85l-.06-.32-.02-.11-.08-.07-.25-.21c-2.38-2.04-4.55-4.47-4.64-5.2-1.82-14.97-1.71-44.53-1.41-78.76,.3-33.47,8.14-57.38,11.9-68.88,.82-2.49,1.46-4.46,1.85-5.93,2-7.68,10.88-12.22,10.96-12.26l.41-.21,.14-.07,.03-.15,.09-.45c.86-4.45,2.51-8.09,3.41-8.39m0-.32c-1.25,.23-2.95,4.69-3.71,8.65l-.09,.45-.41,.21c-.09,.05-9.08,4.64-11.13,12.46-.38,1.46-1.03,3.43-1.84,5.92C9.26,40.16,1.41,64.11,1.11,97.62c-.31,34.24-.41,63.81,1.41,78.8,.11,.91,2.55,3.51,4.75,5.4l.25,.21,.06,.32c.3,1.5,4.33,3.1,14.76,3.1,3.36,0,6.33-.16,7.79-.26h.14c1.53,.12,5.55,.41,9.88,.41,12.28,0,13.67-2.21,13.81-2.88l.04-.18,.1-.15c1.06-1.59,3.85-6.2,4.07-8.35,1.55-15.59,1.44-43.83,1.15-76.41-.3-33.51-8.15-57.46-11.92-68.97-.82-2.49-1.46-4.45-1.84-5.92-2.04-7.83-11.04-12.42-11.13-12.46l-.41-.21-.09-.45c-.77-3.96-2.46-8.43-3.71-8.65h0Z"/><g><path class="d" d="M30.12,0s.06,.02,.09,.02c.03,0,.06-.02,.09-.02h-.18Z"/><path class="i" d="M30.3,0h-.18s.06,.02,.09,.02c.03,0,.06-.02,.09-.02h0Z"/></g></g><circle class="g" cx="31.03" cy="36.87" r="4.77"/><line class="j" x1="25.72" y1="75.5" x2="18.77" y2="85.32"/><line class="j" x1="33.5" y1="75.91" x2="41.27" y2="84.09"/></g></g></g></svg>