<?xml version="1.0" encoding="UTF-8"?><svg xmlns="http://www.w3.org/2000/svg" viewBox="0 0 186.53 60.41"><defs><style>.d{fill:#f2f2f2;}.e{fill:#fff;}.f{fill:#f1f2f2;}.g{fill:#7bbfe9;}.h{fill:#cbccce;}.i{fill:#e1b796;}.j{fill:#122628;}.k{stroke:#c4c4c4;}.k,.l,.m{fill:none;stroke-miterlimit:10;}.l{stroke:#cbccce;}.m{stroke:#122628;stroke-width:.25px;}</style></defs><g id="a"/><g id="b"><g id="c"><g><g><path class="f" d="M.48,29.45s-2.29,24.33,3.16,25.42c0,0,5.92,3.94,8.78,4.22,15.3,1.52,42.25,1.46,76.51,1.15,40.64-.36,66.77-11.61,75.12-13.79s13.06-11.61,13.06-11.61c0,0,9.43-1.81,9.43-4.72v.18c0-2.9-9.43-4.72-9.43-4.72,0,0-4.72-9.43-13.06-11.61S129.56,.54,88.92,.18C52.78-.15,24.78-.2,10,1.59c-1.84,.22-5.99,5.07-5.99,5.07C-1.44,7.75,.48,31.08,.48,31.08"/><path class="i" d="M141.61,31.75c0-1.67,3.28-5.73,2.8-10.31-.48-4.58-19.22-7.08-21.63-7.08s-5.29,1.25-5.29,3.33v27.8c0,2.08,2.88,3.33,5.29,3.33s21.15-2.5,21.63-7.08c.48-4.58-2.8-8.84-2.8-10.51"/><path class="j" d="M107.51,36.82v-11.08c0-9.66-7.83-17.49-17.49-17.49h-10.43c9.1,0,16.47,7.37,16.47,16.47v13.12c0,9.1-7.37,16.47-16.47,16.47h10.43c9.66,0,17.49-7.83,17.49-17.49Z"/><rect class="i" x="4.44" y="9.83" width="46.65" height="42.79" rx="8.76" ry="8.76" transform="translate(58.98 3.46) rotate(90)"/><path class="e" d="M96.06,37.84v-13.12c0-9.1-7.37-16.47-16.47-16.47h-14.64c-9.66,0-17.49,7.83-17.49,17.49v11.08c0,9.66,7.83,17.49,17.49,17.49h14.64c9.1,0,16.47-7.37,16.47-16.47Z"/><g><line class="m" x1="139.24" y1="8.26" x2="130.59" y2="6.09"/><line class="m" x1="121.93" y1="3.93" x2="112.91" y2="2.85"/><line class="m" x1="107.49" y1="1.76" x2="95.23" y2="1.04"/><line class="m" x1="85.45" y1="1.42" x2="73.31" y2="1.42"/><line class="m" x1="62.28" y1=".76" x2="45.73" y2="1.2"/><line class="m" x1="38.67" y1="1.42" x2="27.42" y2="1.64"/></g><g><line class="m" x1="140.5" y1="51.31" x2="131.84" y2="53.47"/><line class="m" x1="123.18" y1="55.64" x2="114.16" y2="56.72"/><line class="m" x1="108.75" y1="57.8" x2="96.48" y2="58.52"/><line class="m" x1="86.7" y1="58.15" x2="74.57" y2="58.15"/><line class="m" x1="63.54" y1="58.81" x2="46.99" y2="58.37"/><line class="m" x1="39.93" y1="58.15" x2="28.67" y2="57.92"/></g><g><path class="h" d="M185.25,30.21c-.3,.89-3.95,2.55-8.39,3.41l-.45,.09-.15,.03-.07,.14-.21,.41c-.04,.09-4.59,8.96-12.26,10.96-1.47,.38-3.44,1.03-5.93,1.85-11.49,3.77-35.41,11.6-68.88,11.9-32.57,.29-60.8,.41-76.37-1.14-1.85-.18-6.02-2.56-8.21-4.02l-.15-.1-.05-.03h-.06l-.18-.05c-.27-.05-2.63-.89-2.63-13.5,0-4.31,.29-8.32,.41-9.85v-.18c-.1-1.46-.26-4.42-.26-7.77,0-10.96,1.79-14.24,2.85-14.45l.32-.06,.11-.02,.07-.08,.21-.25c2.04-2.38,4.47-4.55,5.2-4.64,14.97-1.82,44.53-1.71,78.76-1.41,33.47,.3,57.38,8.14,68.88,11.9,2.49,.82,4.46,1.46,5.93,1.85,7.68,2,12.22,10.88,12.26,10.96l.21,.41,.07,.14,.15,.03,.45,.09c4.45,.86,8.09,2.51,8.39,3.41m.32,0c-.23-1.25-4.69-2.95-8.65-3.71l-.45-.09-.21-.41c-.05-.09-4.64-9.08-12.46-11.13-1.46-.38-3.43-1.03-5.92-1.84-11.51-3.77-35.46-11.62-68.97-11.92C54.67,.81,25.1,.7,10.11,2.52c-.91,.11-3.51,2.55-5.4,4.75l-.21,.25-.32,.06c-1.5,.3-3.1,4.33-3.1,14.76,0,3.36,.16,6.33,.26,7.79v.14c-.12,1.53-.41,5.55-.41,9.88,0,12.28,2.21,13.67,2.88,13.81l.18,.04,.15,.1c1.59,1.06,6.2,3.85,8.35,4.07,15.59,1.55,43.83,1.44,76.41,1.15,33.51-.3,57.46-8.15,68.97-11.92,2.49-.82,4.45-1.46,5.92-1.84,7.83-2.04,12.42-11.04,12.46-11.13l.21-.41,.45-.09c3.96-.77,8.43-2.46,8.65-3.71h0Z"/><g><path class="d" d="M186.53,30.12s-.02,.06-.02,.09c0,.03,.02,.06,.02,.09v-.18Z"/><path class="j" d="M186.53,30.3v-.18s-.02,.06-.02,.09c0,.03,.02,.06,.02,.09h0Z"/></g></g><circle class="h" cx="149.67" cy="31.03" r="4.77"/><line class="l" x1="111.03" y1="25.72" x2="101.21" y2="18.77"/><line class="l" x1="110.63" y1="33.5" x2="102.44" y2="41.27"/><path class="k" d="M90.47,36.34v-10.11c0-7-5.68-12.68-12.68-12.68h-11.28c-7.44,0-13.47,6.03-13.47,13.47v8.53c0,7.44,6.03,13.47,13.47,13.47h11.28c7,0,12.68-5.68,12.68-12.68Z"/><path class="i" d="M88.94,25c-2.33-4.35-3.81-7.14-8.86-9.48l-1.71,6.06,4.04,4.66,6.53-1.24Z"/><rect class="i" x="54.79" y="33.18" width="18.61" height="4.08" transform="translate(99.32 -28.87) rotate(90)"/><path class="k" d="M83.69,41.86v-10.11c0-7-5.68-12.68-12.68-12.68h-11.28"/></g><g><rect class="g" x="25.26" y="31.53" width="19.71" height="19.5" rx="9.23" ry="9.23"/><path class="i" d="M35.74,32.53c4.54,0,8.23,3.68,8.23,8.23v1.04c0,4.54-3.68,8.23-8.23,8.23h-1.26c-4.54,0-8.23-3.68-8.23-8.23v-1.04c0-4.54,3.68-8.23,8.23-8.23h1.26m0-2h-1.26c-5.64,0-10.23,4.59-10.23,10.23v1.04c0,5.64,4.59,10.23,10.23,10.23h1.26c5.64,0,10.23-4.59,10.23-10.23v-1.04c0-5.64-4.59-10.23-10.23-10.23h0Z"/></g></g></g></g></svg>