<?xml version="1.0" encoding="UTF-8"?><svg xmlns="http://www.w3.org/2000/svg" viewBox="0 0 54.18 216.29"><defs><style>.d{fill:#6a4219;}.e{fill:#dcddde;}.f{fill:#231f20;}.g{fill:#f1f2f2;stroke-width:.25px;}.g,.h,.i,.j{stroke-miterlimit:10;}.g,.i,.j{stroke:#cbccce;}.h{fill:#fff;stroke:#dcddde;}.i{fill:#f6f6f6;}.j{fill:none;}</style></defs><g id="a"/><g id="b"><g id="c"><g><rect class="h" x="23.61" y=".5" width="6.24" height="15.47" rx="2.78" ry="2.78"/><path class="h" d="M27.09,10.53h-.4c-14.69,0-26.19,61.63-26.19,72.9v113.2c0,11.26,11.91,10.24,26.59,10.24h0c14.69,0,26.59,1.02,26.59-10.24V83.42c0-11.26-11.91-72.9-26.59-72.9Z"/><ellipse class="f" cx="27.44" cy="43.83" rx="2.82" ry="3.11"/><rect class="d" x="23.89" y="184.66" width="5.34" height="35.37" transform="translate(-175.79 228.91) rotate(-90)"/><path class="i" d="M26.81,25.18h-.28c-10.31,0-18.39,54.45-18.39,64.4v100c0,9.95,8.36,8.36,18.67,8.36h0c10.31,0,18.67,1.59,18.67-8.36V89.58c0-9.95-8.36-64.4-18.67-64.4Z"/><path class="d" d="M32.23,119.21h-11.03c-7.65,0-13.85,8.17-13.85,18.24v16.22c0,10.7,6.58,19.37,14.71,19.37h9.31c8.12,0,14.71-8.67,14.71-19.37v-16.22c0-10.07-6.2-18.24-13.85-18.24Z"/><path class="e" d="M32.23,124.83h-11.03c-7.65,0-13.85,8.17-13.85,18.24v16.22c0,10.7,6.58,19.37,14.71,19.37h9.31c8.12,0,14.71-8.67,14.71-19.37v-16.22c0-10.07-6.2-18.24-13.85-18.24Z"/><rect class="g" x="23.01" y="198.64" width="6.66" height="17.52"/><path class="f" d="M45.13,107.14c-10.79-8.61-25.8-8.61-36.59,0,0-5.02,0-17.23,0-22.25,10.79-8.61,25.8-8.61,36.59,0,0,5.02,0,17.23,0,22.25Z"/><path class="j" d="M33.31,71.29h-12.82c-3,0-5.42-2.92-5.42-6.52,0,0,4.28-18.49,7.28-18.49h9.72c3,0,6.67,18.49,6.67,18.49,0,3.6-2.43,6.52-5.42,6.52Z"/><ellipse class="h" cx="16.77" cy="180.84" rx="4.89" ry="5.4"/><ellipse class="h" cx="36.92" cy="180.84" rx="4.89" ry="5.4"/></g></g></g></svg>