<?xml version="1.0" encoding="UTF-8"?><svg xmlns="http://www.w3.org/2000/svg" viewBox="0 0 54.76 115.18"><defs><style>.d{fill:#f2f2f2;}.e,.f{fill:#f8f8f9;}.g{fill:#cbccce;}.h{fill:#dcddde;}.i{fill:#e1b796;}.j{fill:#122628;}.k{fill:#56b7e8;}.f,.l{stroke:#cbccce;}.f,.l,.m{stroke-miterlimit:10;}.f,.m{stroke-width:.25px;}.l,.m{fill:none;}.m{stroke:#122628;}</style></defs><g id="a"/><g id="b"><g id="c"><g><rect class="e" x="8.37" y="100.46" width="38.96" height="14.72" rx="2.64" ry="2.64"/><g><line class="l" x1="11.75" y1="112.72" x2="43.96" y2="112.72"/><line class="l" x1="11.75" y1="110.06" x2="43.96" y2="110.06"/><line class="l" x1="11.75" y1="107.45" x2="43.96" y2="107.45"/></g><path class="f" d="M26.7,105.31s21.96,1.29,22.94-1.78c0,0,3.55-3.35,3.81-4.96,1.37-8.65,1.31-23.89,1.04-43.25-.33-22.98-10.48-37.75-12.44-42.47-1.96-4.72-10.48-7.39-10.48-7.39,0,0-1.64-5.33-4.26-5.33h.16c-2.62,0-4.26,5.33-4.26,5.33,0,0-8.51,2.67-10.48,7.39C10.76,17.56,.61,32.33,.28,55.31,0,75.74-.06,91.57,1.56,99.93c.2,1.04,4.57,3.39,4.57,3.39,.98,3.08,22.03,1.99,22.03,1.99"/><g><path class="g" d="M27.38,1.56c.8,.17,2.27,2.2,3.03,4.68l.08,.25,.03,.08,.12,.04,.37,.12c.08,.03,7.98,2.56,9.76,6.84,.34,.82,.92,1.92,1.64,3.31,3.35,6.41,10.33,19.74,10.59,38.4,.26,18.16,.36,33.9-1.02,42.58-.16,1.03-2.28,3.36-3.58,4.58l-.09,.09-.03,.03v.03l-.04,.1c-.05,.15-.79,1.47-12.02,1.47-3.84,0-7.41-.16-8.77-.23h-.16c-1.3,.05-3.94,.14-6.92,.14-9.75,0-12.67-1-12.86-1.59l-.06-.18-.02-.06-.07-.04-.22-.12c-2.12-1.14-4.05-2.49-4.13-2.9-1.62-8.35-1.52-24.83-1.25-43.91,.27-18.66,7.24-32,10.59-38.41,.73-1.39,1.3-2.49,1.64-3.31,1.78-4.28,9.68-6.81,9.76-6.84l.37-.12,.12-.04,.03-.08,.08-.25c.76-2.48,2.23-4.51,3.03-4.68m0-.18c-1.11,.13-2.62,2.62-3.3,4.82l-.08,.25-.37,.12c-.08,.03-8.08,2.59-9.9,6.95-.34,.82-.91,1.91-1.64,3.3C8.74,23.24,1.76,36.59,1.49,55.28c-.27,19.09-.37,35.58,1.25,43.93,.1,.51,2.27,1.96,4.22,3.01l.22,.12,.06,.18c.27,.84,3.86,1.73,13.13,1.73,2.99,0,5.63-.09,6.94-.15h.12c1.36,.07,4.94,.23,8.79,.23,10.93,0,12.17-1.23,12.29-1.61l.03-.1,.09-.09c.94-.89,3.43-3.46,3.62-4.66,1.38-8.69,1.28-24.44,1.02-42.6-.27-18.69-7.25-32.04-10.61-38.46-.73-1.39-1.3-2.48-1.64-3.3-1.82-4.36-9.82-6.92-9.9-6.95l-.37-.12-.08-.25c-.68-2.21-2.19-4.7-3.3-4.82h0Z"/><g><path class="d" d="M27.3,.85s.05,0,.08,0c.03,0,.05,0,.08,0h-.16Z"/><path class="j" d="M27.46,.85h-.16s.05,0,.08,0c.03,0,.05,0,.08,0h0Z"/></g></g><path class="l" d="M28.24,18.16h-.29c-10.81,0-19.28,18.11-19.28,28.32v10.65c0,10.21,8.76,18.48,19.57,18.48h0c10.81,0,19.57-8.27,19.57-18.48v-10.65c0-10.21-8.76-28.32-19.57-28.32Z"/><path class="j" d="M33.35,44.8h-9.99c-8.72,0-15.78,4.43-15.78,9.89v5.9c0-5.14,6.65-9.31,14.86-9.31h11.84c8.21,0,14.86,4.17,14.86,9.31v-5.9c0-5.46-7.07-9.89-15.78-9.89Z"/><g><line class="m" x1="7.58" y1="26.86" x2="5.62" y2="31.76"/><line class="m" x1="3.67" y1="36.65" x2="2.69" y2="41.75"/><line class="m" x1="1.72" y1="44.81" x2="1.07" y2="51.75"/><line class="m" x1="1.41" y1="57.27" x2="1.41" y2="64.14"/><line class="m" x1=".81" y1="70.37" x2="1.21" y2="79.73"/><line class="m" x1="1.41" y1="83.72" x2="1.61" y2="90.08"/></g><g><line class="m" x1="46.42" y1="26.15" x2="48.38" y2="31.04"/><line class="m" x1="50.33" y1="35.94" x2="51.31" y2="41.04"/><line class="m" x1="52.28" y1="44.1" x2="52.93" y2="51.03"/><line class="m" x1="52.59" y1="56.56" x2="52.59" y2="63.42"/><line class="m" x1="53.19" y1="69.66" x2="52.79" y2="79.02"/><line class="m" x1="52.59" y1="83.01" x2="52.39" y2="89.37"/></g><line class="l" x1="23.33" y1="42.81" x2="17.06" y2="48.36"/><line class="l" x1="30.35" y1="43.04" x2="37.36" y2="47.67"/><rect class="j" x="15.18" y="35.82" width="5.11" height="4.54"/><rect class="j" x="35.53" y="35.82" width="5.11" height="4.54"/><g><path class="k" d="M23.43,77.38h9.43c5.09,0,9.23,4.13,9.23,9.23v1.26c0,5.09-4.13,9.22-9.22,9.22h-9.43c-5.09,0-9.23-4.13-9.23-9.23v-1.26c0-5.09,4.13-9.23,9.23-9.23Z"/><path class="i" d="M32.86,78.38c4.54,0,8.23,3.68,8.23,8.23v1.26c0,4.54-3.68,8.23-8.23,8.23h-9.43c-4.54,0-8.23-3.68-8.23-8.23v-1.26c0-4.54,3.68-8.23,8.23-8.23h9.43m0-2h-9.43c-5.64,0-10.23,4.59-10.23,10.23v1.26c0,5.64,4.59,10.23,10.23,10.23h9.43c5.64,0,10.23-4.59,10.23-10.23v-1.26c0-5.64-4.59-10.23-10.23-10.23h0Z"/></g><path class="h" d="M34.27,51.27h-11.84c-8.21,0-14.86,4.17-14.86,9.31v8.28c0,5.46,7.07,9.89,15.78,9.89h9.99c8.72,0,15.78-4.43,15.78-9.89v-8.28c0-5.14-6.65-9.31-14.86-9.31Z"/><rect class="j" x="17.35" y="56.18" width="6.04" height="5.37"/><rect class="j" x="34.34" y="56.18" width="6.04" height="5.37"/></g></g></g></svg>