<?xml version="1.0" encoding="UTF-8"?><svg xmlns="http://www.w3.org/2000/svg" viewBox="0 0 115.18 54.76"><defs><style>.d{fill:#f2f2f2;}.e,.f{fill:#f8f8f9;}.g{fill:#cbccce;}.h{fill:#dcddde;}.i{fill:#e1b796;}.j{fill:#122628;}.k{fill:#56b7e8;}.f,.l{stroke:#cbccce;}.f,.l,.m{stroke-miterlimit:10;}.f,.m{stroke-width:.25px;}.l,.m{fill:none;}.m{stroke:#122628;}</style></defs><g id="a"/><g id="b"><g id="c"><g><rect class="e" x="-12.12" y="20.49" width="38.96" height="14.72" rx="2.64" ry="2.64" transform="translate(35.22 20.49) rotate(90)"/><g><line class="l" x1="2.46" y1="11.75" x2="2.46" y2="43.96"/><line class="l" x1="5.12" y1="11.75" x2="5.12" y2="43.96"/><line class="l" x1="7.73" y1="11.75" x2="7.73" y2="43.96"/></g><path class="f" d="M9.87,26.7s-1.29,21.96,1.78,22.94c0,0,3.35,3.55,4.96,3.81,8.65,1.37,23.89,1.31,43.25,1.04,22.98-.33,37.75-10.48,42.47-12.44,4.72-1.96,7.39-10.48,7.39-10.48,0,0,5.33-1.64,5.33-4.26v.16c0-2.62-5.33-4.26-5.33-4.26,0,0-2.67-8.51-7.39-10.48C97.62,10.76,82.85,.61,59.87,.28,39.44,0,23.61-.06,15.25,1.56c-1.04,.2-3.39,4.57-3.39,4.57-3.08,.98-1.99,22.03-1.99,22.03"/><g><path class="g" d="M113.62,27.38c-.17,.8-2.2,2.27-4.68,3.03l-.25,.08-.08,.03-.04,.12-.12,.37c-.03,.08-2.56,7.98-6.84,9.76-.82,.34-1.92,.92-3.31,1.64-6.41,3.35-19.74,10.33-38.4,10.59-18.16,.26-33.9,.36-42.58-1.02-1.03-.16-3.36-2.28-4.58-3.58l-.09-.09-.03-.03h-.03l-.1-.04c-.15-.05-1.47-.79-1.47-12.02,0-3.84,.16-7.41,.23-8.77v-.16c-.05-1.3-.14-3.94-.14-6.92,0-9.75,1-12.67,1.59-12.86l.18-.06,.06-.02,.04-.07,.12-.22c1.14-2.12,2.49-4.05,2.9-4.13,8.35-1.62,24.83-1.52,43.91-1.25,18.66,.27,32,7.24,38.41,10.59,1.39,.73,2.49,1.3,3.31,1.64,4.28,1.78,6.81,9.68,6.84,9.76l.12,.37,.04,.12,.08,.03,.25,.08c2.48,.76,4.51,2.23,4.68,3.03m.18,0c-.13-1.11-2.62-2.62-4.82-3.3l-.25-.08-.12-.37c-.03-.08-2.59-8.08-6.95-9.9-.82-.34-1.91-.91-3.3-1.64-6.42-3.36-19.77-10.34-38.46-10.61-19.09-.27-35.58-.37-43.93,1.25-.51,.1-1.96,2.27-3.01,4.22l-.12,.22-.18,.06c-.84,.27-1.73,3.86-1.73,13.13,0,2.99,.09,5.63,.15,6.94v.12c-.07,1.36-.23,4.94-.23,8.79,0,10.93,1.23,12.17,1.61,12.29l.1,.03,.09,.09c.89,.94,3.46,3.43,4.66,3.62,8.69,1.38,24.44,1.28,42.6,1.02,18.69-.27,32.04-7.25,38.46-10.61,1.39-.73,2.48-1.3,3.3-1.64,4.36-1.82,6.92-9.82,6.95-9.9l.12-.37,.25-.08c2.21-.68,4.7-2.19,4.82-3.3h0Z"/><g><path class="d" d="M114.33,27.3s0,.05,0,.08c0,.03,0,.05,0,.08v-.16Z"/><path class="j" d="M114.33,27.46v-.16s0,.05,0,.08c0,.03,0,.05,0,.08h0Z"/></g></g><path class="l" d="M97.02,28.24v-.29c0-10.81-18.11-19.28-28.32-19.28h-10.65c-10.21,0-18.48,8.76-18.48,19.57h0c0,10.81,8.27,19.57,18.48,19.57h10.65c10.21,0,28.32-8.76,28.32-19.57Z"/><path class="j" d="M70.38,33.35v-9.99c0-8.72-4.43-15.78-9.89-15.78h-5.9c5.14,0,9.31,6.65,9.31,14.86v11.84c0,8.21-4.17,14.86-9.31,14.86h5.9c5.46,0,9.89-7.07,9.89-15.78Z"/><g><line class="m" x1="88.32" y1="7.58" x2="83.42" y2="5.62"/><line class="m" x1="78.53" y1="3.67" x2="73.43" y2="2.69"/><line class="m" x1="70.37" y1="1.72" x2="63.43" y2="1.07"/><line class="m" x1="57.9" y1="1.41" x2="51.04" y2="1.41"/><line class="m" x1="44.81" y1=".81" x2="35.45" y2="1.21"/><line class="m" x1="31.46" y1="1.41" x2="25.1" y2="1.61"/></g><g><line class="m" x1="89.03" y1="46.42" x2="84.14" y2="48.38"/><line class="m" x1="79.24" y1="50.33" x2="74.14" y2="51.31"/><line class="m" x1="71.08" y1="52.28" x2="64.15" y2="52.93"/><line class="m" x1="58.62" y1="52.59" x2="51.76" y2="52.59"/><line class="m" x1="45.52" y1="53.19" x2="36.16" y2="52.79"/><line class="m" x1="32.17" y1="52.59" x2="25.81" y2="52.39"/></g><line class="l" x1="72.37" y1="23.33" x2="66.82" y2="17.06"/><line class="l" x1="72.14" y1="30.35" x2="67.51" y2="37.36"/><rect class="j" x="74.54" y="15.46" width="5.11" height="4.54" transform="translate(94.83 -59.36) rotate(90)"/><rect class="j" x="74.54" y="35.82" width="5.11" height="4.54" transform="translate(115.18 -39.01) rotate(90)"/><g><rect class="k" x="18.09" y="14.2" width="19.71" height="27.88" rx="9.23" ry="9.23"/><path class="i" d="M28.57,15.2c4.54,0,8.23,3.68,8.23,8.23v9.43c0,4.54-3.68,8.23-8.23,8.23h-1.26c-4.54,0-8.23-3.68-8.23-8.23v-9.43c0-4.54,3.68-8.23,8.23-8.23h1.26m0-2h-1.26c-5.64,0-10.23,4.59-10.23,10.23v9.43c0,5.64,4.59,10.23,10.23,10.23h1.26c5.64,0,10.23-4.59,10.23-10.23v-9.43c0-5.64-4.59-10.23-10.23-10.23h0Z"/></g><path class="h" d="M63.9,34.27v-11.84c0-8.21-4.17-14.86-9.31-14.86h-8.28c-5.46,0-9.89,7.07-9.89,15.78v9.99c0,8.72,4.43,15.78,9.89,15.78h8.28c5.14,0,9.31-6.65,9.31-14.86Z"/><rect class="j" x="53.29" y="17.68" width="6.04" height="5.37" transform="translate(76.68 -35.95) rotate(90)"/><rect class="j" x="53.29" y="34.68" width="6.04" height="5.37" transform="translate(93.68 -18.95) rotate(90)"/></g></g></g></svg>