<?xml version="1.0" encoding="UTF-8"?><svg xmlns="http://www.w3.org/2000/svg" viewBox="0 0 211.91 53.1"><defs><style>.d{fill:#6a4219;}.e{fill:#a5a7aa;}.f{fill:#dcddde;}.g{fill:#231f20;}.h{fill:#f1f2f2;stroke-width:.25px;}.h,.i,.j,.k{stroke-miterlimit:10;}.h,.j,.k{stroke:#cbccce;}.i{fill:#fff;stroke:#dcddde;}.j{fill:#f6f6f6;}.k{fill:none;}</style></defs><g id="a"/><g id="b"><g id="c"><g><g><rect class="i" x="200.78" y="18.62" width="6.11" height="15.16" rx="2.78" ry="2.78" transform="translate(230.03 -177.63) rotate(90)"/><path class="i" d="M201.59,26.55v-.39c0-14.39-60.38-25.66-71.42-25.66H19.27c-11.04,0-10.03,11.66-10.03,26.05h0c0,14.39-1,26.05,10.03,26.05h110.91c11.04,0,71.42-11.66,71.42-26.05Z"/><ellipse class="g" cx="168.96" cy="26.89" rx="3.05" ry="2.76"/><rect class="d" x="11.05" y="8.7" width="5.23" height="34.66"/><path class="j" d="M187.23,26.28v-.27c0-10.1-53.34-18.02-63.09-18.02H26.17c-9.75,0-8.19,8.19-8.19,18.29h0c0,10.1-1.56,18.29,8.19,18.29H124.14c9.75,0,63.09-8.19,63.09-18.29Z"/><path class="d" d="M95.11,31.59v-10.81c0-7.49-8-13.56-17.87-13.56h-15.89c-10.48,0-18.98,6.45-18.98,14.41v9.12c0,7.96,8.5,14.41,18.98,14.41h15.89c9.87,0,17.87-6.07,17.87-13.56Z"/><path class="f" d="M89.61,31.59v-10.81c0-7.49-8-13.56-17.87-13.56h-15.89c-10.48,0-18.98,6.45-18.98,14.41v9.12c0,7.96,8.5,14.41,18.98,14.41h15.89c9.87,0,17.87-6.07,17.87-13.56Z"/><rect class="h" x="5.45" y="17.23" width="6.52" height="17.17" transform="translate(34.52 17.1) rotate(90)"/><path class="g" d="M106.93,44.22c8.44-10.57,8.44-25.27,0-35.85,4.91,0,16.88,0,21.8,0,8.44,10.57,8.44,25.27,0,35.85-4.91,0-16.88,0-21.8,0Z"/><path class="k" d="M142.06,32.64v-12.56c0-2.93,2.86-5.31,6.39-5.31,0,0,18.12,4.2,18.12,7.13v9.53c0,2.93-18.12,6.53-18.12,6.53-3.53,0-6.39-2.38-6.39-5.31Z"/><ellipse class="i" cx="34.74" cy="16.44" rx="5.29" ry="4.79"/><ellipse class="i" cx="34.74" cy="36.18" rx="5.29" ry="4.79"/></g><ellipse class="e" cx="114.65" cy="4.17" rx="7.02" ry="1.49"/><ellipse class="e" cx="87.77" cy="4.17" rx="7.02" ry="1.49"/><ellipse class="e" cx="60.89" cy="4.17" rx="7.02" ry="1.49"/><ellipse class="e" cx="34" cy="4.17" rx="7.02" ry="1.49"/><ellipse class="e" cx="114.65" cy="48.65" rx="7.02" ry="1.49"/><ellipse class="e" cx="87.77" cy="48.65" rx="7.02" ry="1.49"/><ellipse class="e" cx="60.89" cy="48.65" rx="7.02" ry="1.49"/><ellipse class="e" cx="34" cy="48.65" rx="7.02" ry="1.49"/></g></g></g></svg>